<svg width="17" height="17" viewBox="0 0 17 17" fill="none" xmlns="http://www.w3.org/2000/svg">
<path d="M15.998 10.3182H0.182067C0.0820665 10.3182 0.000248352 10.4 0.000248352 10.5V11.8636C0.000248352 11.9636 0.0820665 12.0455 0.182067 12.0455H13.9366L10.6571 16.2045C10.5639 16.3227 10.648 16.5 10.8002 16.5H12.448C12.5593 16.5 12.6639 16.45 12.7343 16.3614L16.5707 11.4955C16.9457 11.0182 16.6071 10.3182 15.998 10.3182ZM16.5457 4.95455H2.79116L6.0707 0.795455C6.16389 0.677273 6.07979 0.5 5.92752 0.5H4.27979C4.16843 0.5 4.06389 0.55 3.99343 0.638636L0.157066 5.50455C-0.217934 5.98182 0.120703 6.68182 0.727521 6.68182H16.5457C16.6457 6.68182 16.7275 6.6 16.7275 6.5V5.13636C16.7275 5.03636 16.6457 4.95455 16.5457 4.95455Z" fill="#4B5563"/>
</svg>
