<svg width="68" height="68" viewBox="0 0 68 68" fill="none" xmlns="http://www.w3.org/2000/svg">
<circle cx="34" cy="34" r="34" fill="#1B75BC"/>
<path fill-rule="evenodd" clip-rule="evenodd" d="M25.5778 17.4802L34.2446 8.5L42.9114 17.4802L38.3506 22.2934L34.2446 17.8011L30.1386 22.2934L25.5778 17.4802ZM24.8163 18.2793L34.2833 28.0671L43.5185 18.2793L49.2999 24.1401L39.8695 34.0001L49.2999 43.7815L43.5185 49.7166L34.2833 39.9331L24.8163 49.7166L19.2666 43.9451L28.6198 33.9448L19.2666 24.1401L24.8163 18.2815V18.2793ZM30.1386 45.7066L25.5778 50.5198L34.2446 59.5L42.9114 50.5198L38.3506 45.7066L34.2446 50.1989L30.1386 45.7066Z" fill="white"/>
</svg>
