<svg width="68" height="68" viewBox="0 0 68 68" fill="none" xmlns="http://www.w3.org/2000/svg">
<path d="M34 68C52.7782 68 68 52.7782 68 34C68 15.2218 52.7782 0 34 0C15.2218 0 0 15.2218 0 34C0 52.7782 15.2218 68 34 68Z" fill="#EDF0F4"/>
<path fill-rule="evenodd" clip-rule="evenodd" d="M30.6713 57.8866C31.7192 58.4854 32.9167 58.8147 34.1143 58.8147C35.3417 58.8147 36.5093 58.4854 37.5871 57.8866L52.8857 49.0548C55.0113 47.8273 56.3286 45.5221 56.3286 43.0671V25.3735C56.3286 22.9185 55.0113 20.6132 52.8857 19.3858L37.5871 10.5539C35.4315 9.32643 32.797 9.32643 30.6713 10.5539L15.3428 19.3858C13.2172 20.6132 11.8999 22.9185 11.8999 25.3735V43.0372C11.8999 45.5221 13.2172 47.7974 15.3728 49.0548L30.6713 57.8866ZM31.8689 12.6197C32.5575 12.2305 33.3359 12.0209 34.1143 12.0209C34.9226 12.0209 35.701 12.2305 36.3896 12.6197L51.6582 21.4815C53.0354 22.2599 53.9036 23.7568 53.9036 25.3735V43.097C53.9036 44.7137 53.0354 46.1807 51.6582 46.989L36.3597 55.8209C34.9526 56.6292 33.2461 56.6292 31.8389 55.8209L16.5404 46.9591C15.1632 46.1508 14.295 44.6838 14.295 43.0671V25.3735C14.295 23.7867 15.1333 22.2898 16.5404 21.4815L31.8689 12.6197ZM34.1141 50.7912C33.4555 50.7912 32.8268 50.6116 32.258 50.2823L21.1208 43.8754C19.9832 43.2168 19.2647 41.9893 19.2647 40.6421V27.7985C19.2647 26.4812 19.9532 25.2537 21.1208 24.5651L32.258 18.1583C33.4256 17.4996 34.8327 17.4996 35.9703 18.1583L47.0775 24.5651C48.2152 25.2238 48.9337 26.4512 48.9337 27.7985V40.6421C48.9337 41.9594 48.2152 43.2168 47.0775 43.8754L35.9404 50.2823C35.4015 50.6116 34.7728 50.7912 34.1141 50.7912ZM33.1561 19.7151C33.4555 19.5354 33.7848 19.4456 34.1142 19.4456C34.4734 19.4456 34.8027 19.5354 35.0722 19.7151L46.1794 26.1219C46.7781 26.4812 47.1374 27.1099 47.1374 27.7985V40.6421C47.1374 41.3307 46.7781 41.9594 46.1794 42.3186L35.0722 48.7255C34.4734 49.0847 33.7549 49.0847 33.1561 48.7255L22.019 42.3186C21.4202 41.9594 21.061 41.3307 21.061 40.6421V27.7985C21.061 27.1099 21.4202 26.4812 22.019 26.1219L33.1561 19.7151ZM34.1144 42.6479C33.7851 42.6479 33.4557 42.558 33.1563 42.4084L27.5279 39.1151C26.9291 38.7858 26.5699 38.1272 26.5699 37.4685V30.9419C26.5699 30.2533 26.9291 29.6246 27.5279 29.2953L33.1563 26.032C33.7551 25.7027 34.4736 25.7027 35.0724 26.032L40.7008 29.2953C41.2996 29.6246 41.6589 30.2533 41.6589 30.9419V37.4685C41.6589 38.1571 41.2996 38.7858 40.7008 39.1151L35.0724 42.3784C34.773 42.558 34.4437 42.6479 34.1144 42.6479ZM33.7551 27.0799C33.8749 27.02 33.9946 26.9901 34.1144 26.9901C34.2341 26.9901 34.3539 27.02 34.4736 27.0799L40.1021 30.3432C40.3117 30.4629 40.4613 30.7024 40.4613 30.9419V37.4685C40.4613 37.708 40.3117 37.9775 40.1021 38.0972L34.4736 41.3605C34.2341 41.4803 33.9647 41.4803 33.7551 41.3605L28.1267 38.0972C27.9171 37.9475 27.7674 37.708 27.7674 37.4685V30.9419C27.7674 30.7024 27.9171 30.4629 28.1267 30.3432L33.7551 27.0799Z" fill="url(#paint0_linear_323_5109)"/>
<defs>
<linearGradient id="paint0_linear_323_5109" x1="11.8999" y1="58.811" x2="56.3406" y2="58.811" gradientUnits="userSpaceOnUse">
<stop stop-color="#E168FD"/>
<stop offset="1" stop-color="#7B00FC"/>
</linearGradient>
</defs>
</svg>
