<svg width="69" height="69" viewBox="0 0 69 69" fill="none" xmlns="http://www.w3.org/2000/svg">
<circle cx="34.5" cy="34.5" r="34.5" fill="#E7EFF3"/>
<path d="M42.7087 49.0011C40.6042 47.991 38.9417 46.4056 38.3734 45.7392C38.184 46.2793 37.7 47.5448 37.2791 48.2856C36.753 49.2116 35.806 50.4532 34.9431 51.2108C34.0803 51.9684 31.3024 54.578 28.2719 54.0729C25.2415 53.5678 23.0949 52.0316 22.0847 50.1375C21.0746 48.2435 20.9483 46.3495 21.4323 44.3923C21.8196 42.8265 22.7722 41.0602 23.2001 40.3727C22.7161 40.485 21.3061 40.5495 19.5383 39.9097C17.3286 39.11 16.0028 37.9105 15.2452 36.3742C14.4875 34.8379 14.214 32.1231 14.4665 29.6398C14.719 27.1566 16.2343 24.1892 19.7277 24.4418C22.5225 24.6438 25.4659 26.2376 26.5883 27.0092C26.2586 24.8837 25.797 20.0602 26.5883 17.7706C27.5774 14.9085 29.9976 14.2982 32.9649 14.3823C35.9322 14.4665 37.6158 15.9817 38.7102 17.7495C39.5856 19.1637 39.7063 22.1689 39.6572 23.4948C40.4569 22.7091 42.7045 21.0956 45.2972 20.9273C48.5381 20.7168 50.0954 21.285 51.4002 22.2742C52.705 23.2633 54.1781 25.1363 54.5148 27.0724C54.8516 29.0085 54.3886 30.2291 53.5047 31.7654C52.7976 32.9944 51.0214 34.2837 50.2217 34.7748C50.7057 35.1536 51.8716 36.1385 52.6629 37.0476C53.652 38.1841 54.578 40.2254 54.599 42.7297C54.6201 45.2341 53.8624 46.3705 53.2101 47.4648C52.5577 48.5592 51.2108 50.2428 48.938 50.4322C46.6651 50.6216 45.3393 50.2638 42.7087 49.0011Z" fill="#DC8898"/>
<path d="M28.3349 47.2544C27.2068 48.5507 26.069 48.7907 25.6411 48.7486C25.8165 48.6293 26.2682 48.3235 26.6723 48.0541C27.1774 47.7174 28.9662 45.4024 29.5765 44.4765C30.0647 43.7357 31.6459 41.1374 32.3755 39.9308L32.7964 40.1623C31.7792 41.9862 29.4629 45.958 28.3349 47.2544Z" fill="#C57180"/>
<path d="M23.9996 32.018C25.5653 32.3715 28.1454 33.5964 29.2398 34.1646L28.882 34.8801C28.4611 34.6696 27.4846 34.173 26.9459 33.8699C26.2724 33.4911 23.726 32.5652 21.9372 32.4389C20.1484 32.3126 19.6012 32.5862 18.8646 32.8598C18.1281 33.1334 17.4546 33.8068 17.602 33.3228C17.7493 32.8387 18.1491 32.3337 19.3908 31.9128C20.6324 31.4919 22.0424 31.576 23.9996 32.018Z" fill="#C57180"/>
<path d="M33.4703 23.8735C33.6218 25.1194 33.786 28.2088 33.8491 29.5977H33.344C33.337 29.2961 33.3272 28.5371 33.344 27.9141C33.3651 27.1355 32.9652 24.1261 32.7127 22.4635C32.5107 21.1335 31.8428 18.6684 31.5342 17.6022C31.8428 18.0581 32.5107 19.1511 32.7127 19.875C32.9652 20.7799 33.2809 22.3162 33.4703 23.8735Z" fill="#C57180"/>
<path d="M42.3298 28.756C40.9829 29.7156 39.4256 31.7794 38.8153 32.6914L38.4365 32.1021C38.8083 31.597 39.7329 30.3891 40.4568 29.5978C41.3618 28.6087 42.8559 27.4512 45.1919 26.3569C47.0607 25.4814 49.3097 25.8097 50.2006 26.0833C49.8849 26.0622 49.1526 26.0328 48.7485 26.0833C48.2434 26.1464 47.6331 26.1885 46.3915 26.4831C45.1498 26.7778 44.0134 27.5564 42.3298 28.756Z" fill="#C57180"/>
<path d="M43.9716 40.6674C42.591 39.7414 38.9348 38.4156 37.2793 37.8684L37.6371 37.3423C38.1421 37.5106 39.3291 37.9147 40.0362 38.1841C40.9201 38.5208 42.6036 39.4468 43.235 39.7835C43.8663 40.1202 46.0129 41.4671 46.6443 41.8669C47.2756 42.2668 49.5064 43.9083 49.9483 44.2871C50.3902 44.6659 50.4113 45.2341 50.285 45.3814C50.1587 45.5287 49.7378 44.9605 49.1907 44.3923C48.6435 43.8241 45.6972 41.8248 43.9716 40.6674Z" fill="#C57180"/>
<ellipse cx="34.017" cy="34.5644" rx="5.66106" ry="5.7242" fill="#FBECB3"/>
</svg>
