<svg width="68" height="68" viewBox="0 0 68 68" fill="none" xmlns="http://www.w3.org/2000/svg">
<circle cx="34" cy="34" r="34" fill="#EDF0F4"/>
<path fill-rule="evenodd" clip-rule="evenodd" d="M36.3233 17.51L47.4583 23.205C49.0733 24.055 50.0933 25.67 50.0933 27.54V30.175H46.0133V27.54C46.0133 27.285 45.8433 27.03 45.5883 26.86L34.4533 21.165C34.2833 21.08 34.0283 21.08 33.7733 21.165L22.6383 26.86C22.3833 26.945 22.2133 27.2 22.2133 27.54V30.175H18.1333V27.54C18.1333 25.755 19.1533 24.055 20.7683 23.205L31.9033 17.51C33.2633 16.83 34.8783 16.83 36.3233 17.51ZM37.5984 33.83C37.5984 31.875 35.9834 30.345 34.1134 30.345C32.1584 30.345 30.6284 31.875 30.6284 33.83C30.6284 35.785 32.2434 37.315 34.1134 37.315C35.9834 37.315 37.5984 35.785 37.5984 33.83ZM45.5033 41.14C45.7583 41.055 45.9283 40.8 45.9283 40.46V37.825H50.0083V40.46C50.0083 42.245 48.9883 43.945 47.3733 44.795L36.2383 50.49C35.5583 50.83 34.7933 51 34.0283 51C33.2633 51 32.4983 50.83 31.8183 50.49L20.7683 44.795C19.1533 43.945 18.1333 42.33 18.1333 40.46V37.825H22.2133V40.46C22.2133 40.715 22.3833 40.97 22.6383 41.14L32.0733 45.9V41.14C28.8433 40.205 26.5483 37.315 26.5483 33.83C26.5483 29.665 29.9483 26.18 34.1983 26.18C38.3633 26.18 41.8483 29.58 41.8483 33.83C41.8483 37.315 39.4683 40.29 36.3233 41.14V45.9L45.5033 41.14Z" fill="#245AE5" fill-opacity="0.9"/>
</svg>
