<svg width="68" height="68" viewBox="0 0 68 68" fill="none" xmlns="http://www.w3.org/2000/svg">
<circle cx="34" cy="34" r="34" fill="#EDF0F4"/>
<path d="M51.5961 29.9645C51.7453 26.8384 49.5618 24.7634 47.0935 23.3394L45.4932 32.7583C46.1618 32.6654 46.8377 32.8684 47.3444 33.3143C47.939 33.8977 47.9919 34.8379 47.4665 35.4843C49.0125 35.2266 51.4198 33.7415 51.5961 29.9645Z" fill="url(#paint0_linear_323_3537)"/>
<path fill-rule="evenodd" clip-rule="evenodd" d="M30.5752 19.0132L28.6765 17.0941C31.5517 16.7415 39.1398 17.1891 46.4837 21.7934C46.5509 22.2043 46.5509 22.6234 46.4837 23.0343L47.1007 23.3463C48.0973 24.9993 48.3857 26.9842 47.9009 28.8525C47.2635 31.4022 46.1717 32.5279 45.6835 32.7584C44.7002 32.7584 43.0253 33.328 42.4828 35.8506C41.9403 38.3731 40.8961 38.9224 40.4485 38.8817L29.5988 39.0106L22.438 34.7927L21.4072 26.0655L23.4416 23.3531L27.0762 20.3829L29.6666 19.3251L30.5752 19.0132ZM43.3984 22.5869C43.0921 22.9116 42.7348 23.1842 42.3406 23.3938C39.5536 22.7971 38.5432 21.3595 38.5432 21.3595C40.9132 21.2887 43.2576 21.8655 45.3243 23.0277C44.695 22.8302 44.051 22.6828 43.3984 22.5869Z" fill="url(#paint1_linear_323_3537)"/>
<path fill-rule="evenodd" clip-rule="evenodd" d="M42.3875 35.8507C40.3233 36.8434 38.0596 37.3514 35.7692 37.3358C28.9271 37.3358 23.3869 33.0366 23.3869 27.7405C23.3869 23.8211 26.4113 20.4577 30.7444 18.9658C22.4986 19.4405 15.8667 26.0656 15.8667 34.2436C15.8667 43.6829 24.282 51.4811 34.6435 51.4811C41.9755 51.4204 48.7027 47.4033 52.2336 40.9772C47.5886 42.0215 42.1027 40.0346 42.3875 35.8507Z" fill="url(#paint2_linear_323_3537)"/>
<defs>
<linearGradient id="paint0_linear_323_3537" x1="45.243" y1="27.0494" x2="48.7673" y2="37.7102" gradientUnits="userSpaceOnUse">
<stop stop-color="#01E8F7"/>
<stop offset="1" stop-color="#00C2FF"/>
</linearGradient>
<linearGradient id="paint1_linear_323_3537" x1="18.4162" y1="24.5104" x2="26.5522" y2="43.5485" gradientUnits="userSpaceOnUse">
<stop stop-color="#01E8F7"/>
<stop offset="1" stop-color="#00B3EC"/>
</linearGradient>
<linearGradient id="paint2_linear_323_3537" x1="49.7251" y1="36.432" x2="50.5221" y2="7.79667" gradientUnits="userSpaceOnUse">
<stop stop-color="#01E8F7"/>
<stop offset="1" stop-color="#00C2FF"/>
</linearGradient>
</defs>
</svg>
