<svg width="68" height="68" viewBox="0 0 68 68" fill="none" xmlns="http://www.w3.org/2000/svg">
<circle cx="34" cy="34" r="34" fill="#EDF0F4"/>
<path fill-rule="evenodd" clip-rule="evenodd" d="M53.3328 33.4559L52.1296 32.2491L34.2045 14.1665L16.273 32.2491L14.7334 33.8016L15.2897 34.2843C15.9172 34.8127 16.5641 35.315 17.2304 35.7847C24.3202 40.8207 33.1113 42.3406 41.2296 40.338C44.5417 39.5291 47.6855 38.1396 50.5253 36.2348C51.2304 35.7651 51.9161 35.2563 52.5889 34.7214C52.9576 34.4213 53.3198 34.1147 53.6756 33.8016L53.3328 33.4559ZM44.0243 43.6257L34.2046 53.5281L29.3336 48.616C34.5863 48.3029 39.6578 46.5808 44.0243 43.6257ZM21.1505 32.9732C27.4252 32.9471 33.5835 34.6889 38.9332 38.0027C42.3552 37.3895 45.6284 36.1044 48.5588 34.2257C39.3602 28.8896 29.327 29.3789 21.1505 32.9732Z" fill="#2B71FF"/>
</svg>
