<svg width="68" height="68" viewBox="0 0 68 68" fill="none" xmlns="http://www.w3.org/2000/svg">
<path d="M34 68C52.7782 68 68 52.7782 68 34C68 15.2218 52.7782 0 34 0C15.2218 0 0 15.2218 0 34C0 52.7782 15.2218 68 34 68Z" fill="#EDF0F4"/>
<path fill-rule="evenodd" clip-rule="evenodd" d="M30.4931 17.4699C30.8583 16.8429 31.7703 16.8435 32.1346 17.471L37.1608 26.1275L41.6006 33.7737L51.0668 50.0767C51.4311 50.7042 50.9748 51.4881 50.245 51.4875L40.7588 51.4813L31.2912 51.4752L23.6986 51.47C22.969 51.4695 22.5135 50.6852 22.8787 50.0583L26.5449 43.7636C26.7144 43.4724 27.0274 43.2934 27.366 43.2935L35.9816 43.2993C36.6275 43.2996 37.0589 42.6855 36.8967 42.1091C36.8757 42.0344 36.8452 41.9604 36.8034 41.8884L36.0733 40.6308L32.1237 33.8289C31.7823 33.2409 30.9599 33.2034 30.5573 33.7171C30.5303 33.7516 30.5051 33.7884 30.4821 33.8279L29.9001 34.8273L26.0936 41.3631C25.9241 41.6541 25.611 41.8333 25.2725 41.833L17.9486 41.8281C17.2189 41.8276 16.7635 41.0433 17.1287 40.4164L21.0053 33.7603L30.4931 17.4699Z" fill="#7E1BCC"/>
</svg>
