<svg width="69" height="69" viewBox="0 0 69 69" fill="none" xmlns="http://www.w3.org/2000/svg">
<path fill-rule="evenodd" clip-rule="evenodd" d="M34.5 0C53.5509 0 69 15.4491 69 34.5C69 53.5509 53.5509 69 34.5 69C15.4491 69 0 53.5509 0 34.5C0 15.4491 15.4491 0 34.5 0Z" fill="#1E1E1E"/>
<path d="M35.0175 48.921C23.9844 48.921 15.042 45.7332 15.042 41.4621C15.042 39.2334 17.4777 37.2255 21.3762 35.811C24.4191 37.7637 29.5251 38.7642 35.3142 38.7642C40.9653 38.7642 45.9609 37.5429 49.0314 35.673C52.7091 37.0737 54.993 39.0264 54.993 41.1792C54.993 45.4572 46.0506 48.921 35.0175 48.921Z" fill="white"/>
<path d="M35.1348 37.8051C26.772 37.8051 19.9893 35.1831 19.9893 31.947C19.9893 30.153 22.08 28.5453 25.3575 27.4758C27.6966 28.6971 31.2018 29.4768 35.1348 29.4768C39.0678 29.4768 42.573 28.6971 44.9121 27.4758C48.1965 28.5522 50.2803 30.153 50.2803 31.947C50.2872 35.1831 43.5045 37.8051 35.1348 37.8051Z" fill="white"/>
<path d="M35.0794 28.5039C28.6141 28.5039 23.3701 26.3373 23.3701 23.6739C23.3701 21.0105 28.6141 18.8439 35.0794 18.8439C41.5447 18.8439 46.7887 21.0105 46.7887 23.6739C46.7887 26.3373 41.5447 28.5039 35.0794 28.5039Z" fill="white"/>
</svg>
