<svg width="69" height="69" viewBox="0 0 69 69" fill="none" xmlns="http://www.w3.org/2000/svg">
<g clip-path="url(#clip0_312_10103)">
<path d="M40.9399 36.1123C40.9399 35.6523 40.9399 35.4223 40.4799 35.1923C38.8699 34.0423 37.0299 32.8923 35.4199 31.7423C35.2497 31.6286 35.0496 31.5679 34.8449 31.5679C34.6402 31.5679 34.4401 31.6286 34.2699 31.7423L29.2099 35.4223C28.9987 35.53 28.822 35.695 28.7 35.8983C28.578 36.1017 28.5156 36.3352 28.5199 36.5723C28.5091 37.0681 28.3488 37.5491 28.0599 37.9523C27.9462 38.1225 27.8855 38.3226 27.8855 38.5273C27.8855 38.732 27.9462 38.9321 28.0599 39.1023C29.8999 42.7823 31.5099 46.4623 33.3499 50.1423C34.0399 51.2923 34.4999 52.6723 35.1899 54.0523C35.4199 53.8223 35.4199 53.5923 35.6499 53.3623C37.7199 48.7623 39.5599 44.1623 41.6299 39.5623C41.8599 39.1023 41.8599 38.8723 41.3999 38.6423C41.1413 38.2806 40.966 37.8662 40.8865 37.4288C40.8069 36.9914 40.8252 36.5418 40.9399 36.1123Z" fill="#CD0124"/>
<path d="M33.1198 30.1326C28.5198 26.9126 23.9198 23.6926 19.5498 20.7026L19.3198 20.9326C19.5498 21.3926 19.5498 21.6226 19.7798 22.0826L24.6098 32.4326C25.0698 33.3526 25.2998 34.2726 26.6798 34.5026C27.0773 34.5384 27.4767 34.4586 27.8298 34.2726C29.2098 33.1226 30.8198 32.2026 32.1998 31.0526L33.1198 30.1326Z" fill="#CD0124"/>
<path d="M34.5 0C27.6766 0 21.0063 2.02339 15.3328 5.8143C9.65935 9.60521 5.23739 14.9934 2.62617 21.2974C0.0149484 27.6015 -0.668267 34.5383 0.662923 41.2306C1.99411 47.923 5.27992 54.0703 10.1048 58.8952C14.9297 63.7201 21.0771 67.0059 27.7694 68.3371C34.4617 69.6683 41.3985 68.9851 47.7026 66.3738C54.0066 63.7626 59.3948 59.3407 63.1857 53.6672C66.9766 47.9937 69 41.3235 69 34.5C69 25.35 65.3652 16.5748 58.8952 10.1048C52.4252 3.63481 43.65 0 34.5 0V0ZM53.13 20.01C52.67 20.01 52.44 20.24 52.21 20.7C50.37 25.3 48.3 29.9 46.46 34.5V35.42C46.6437 35.8088 46.7414 36.2327 46.7464 36.6627C46.7514 37.0927 46.6636 37.5188 46.4889 37.9117C46.3143 38.3047 46.0569 38.6554 45.7344 38.9398C45.4118 39.2243 45.0317 39.4358 44.62 39.56C44.39 39.56 44.16 39.79 43.93 40.25C41.86 44.85 39.79 49.68 37.95 54.28C37.8363 54.4502 37.7756 54.6503 37.7756 54.855C37.7756 55.0597 37.8363 55.2598 37.95 55.43C38.3798 56.0199 38.5712 56.7502 38.4859 57.4751C38.4006 58.2 38.045 58.8659 37.49 59.34C37.0078 59.8163 36.3695 60.102 35.6931 60.1443C35.0166 60.1866 34.3478 59.9826 33.81 59.57C33.5228 59.3739 33.2771 59.1231 33.087 58.8319C32.8968 58.5407 32.7659 58.2149 32.7018 57.8731C32.6378 57.5313 32.6417 57.1802 32.7135 56.8399C32.7852 56.4996 32.9234 56.1768 33.12 55.89C33.2328 55.6775 33.2918 55.4406 33.2918 55.2C33.2918 54.9594 33.2328 54.7225 33.12 54.51C30.82 49.91 28.75 45.31 26.45 40.71C26.3453 40.4762 26.1864 40.2708 25.9864 40.1108C25.7864 39.9508 25.5511 39.8408 25.3 39.79C24.8314 39.712 24.3885 39.5218 24.0093 39.2356C23.6302 38.9493 23.3259 38.5756 23.1225 38.1462C22.9191 37.7168 22.8227 37.2446 22.8414 36.7699C22.8601 36.2952 22.9935 35.832 23.23 35.42C23.3437 35.2498 23.4044 35.0497 23.4044 34.845C23.4044 34.6403 23.3437 34.4402 23.23 34.27C21.16 29.67 19.09 25.3 16.79 20.7C16.79 20.47 16.56 20.24 15.87 20.24C15.1936 20.1449 14.5713 19.8175 14.1097 19.314C13.6482 18.8105 13.3761 18.1621 13.34 17.48C13.3825 16.841 13.5975 16.2256 13.962 15.6991C14.3265 15.1726 14.8269 14.7547 15.41 14.49C16.029 14.2502 16.7123 14.2339 17.3421 14.4438C17.9719 14.6537 18.5087 15.0768 18.86 15.64C19.09 16.1 19.32 16.1 20.01 16.1H49.22C49.68 16.1 50.14 16.1 50.37 15.41C50.6838 14.8682 51.1796 14.4553 51.7692 14.2448C52.3588 14.0342 53.004 14.0396 53.59 14.26C54.1613 14.4763 54.6593 14.8507 55.0258 15.3394C55.3924 15.8281 55.6123 16.411 55.66 17.02C55.6686 17.7394 55.4175 18.4377 54.9528 18.9869C54.488 19.5361 53.8409 19.8994 53.13 20.01Z" fill="#CD0124"/>
<path d="M34.5 28.5228C34.6702 28.6366 34.8703 28.6973 35.075 28.6973C35.2797 28.6973 35.4798 28.6366 35.65 28.5228C40.02 25.3028 44.39 22.3128 48.53 19.0928C48.76 18.8628 48.99 18.8628 48.99 18.6328V18.4028H20.01C20.2732 18.4994 20.5097 18.6571 20.7 18.8628L34.5 28.5228Z" fill="#CD0124"/>
<path d="M36.8 30.1287C38.64 31.5087 40.48 32.6587 42.32 33.8087C42.78 34.0387 43.4701 33.8087 44.1601 33.8087C44.3901 33.8087 44.6201 33.3487 44.6201 33.1187C46.2301 29.4387 47.8401 25.5287 49.4501 21.8487C49.4501 21.6187 49.6801 21.3887 49.6801 21.1587H49.4501C45.5401 23.9187 41.1701 26.9087 36.8 30.1287Z" fill="#CD0124"/>
</g>
<defs>
<clipPath id="clip0_312_10103">
<rect width="69" height="69" fill="white"/>
</clipPath>
</defs>
</svg>
