<svg width="69" height="69" viewBox="0 0 69 69" fill="none" xmlns="http://www.w3.org/2000/svg">
<path d="M34.5 0C53.5539 0 69 15.4461 69 34.5C69 53.5539 53.5539 69 34.5 69C15.4461 69 0 53.5539 0 34.5C0 15.4461 15.4461 0 34.5 0Z" fill="#00467A"/>
<path d="M15.0342 29.9973C14.3422 29.9973 14.0347 30.3048 14.0347 30.9199C14.0347 30.9199 14.0347 44.7652 14.0347 46.7643C14.0347 47.4562 14.3422 47.6869 15.0342 47.6869C22.6498 47.7638 31.955 40.9959 39.6475 35.6888V17.3821C32.0338 22.6123 22.496 30.0741 15.0342 29.9973Z" fill="url(#paint0_linear_323_4673)"/>
<path d="M55.1074 37.1496C55.7994 37.1496 56.1069 36.8421 56.1069 36.227C56.1069 36.227 56.1069 22.3817 56.1069 20.3826C56.1069 19.6907 55.7994 19.46 55.1074 19.46C47.4149 19.3831 38.1867 26.151 30.4941 31.4581V49.6879C38.1098 44.4577 47.6475 36.9959 55.1074 37.1496Z" fill="url(#paint1_linear_323_4673)"/>
<path d="M39.6472 35.6888V25.2284C36.4929 27.2274 33.3406 29.3822 30.417 31.3812V41.8416C33.6482 39.8426 36.7256 37.6878 39.6472 35.6888Z" fill="#194AAD"/>
<defs>
<linearGradient id="paint0_linear_323_4673" x1="39.9228" y1="42.7795" x2="33.7482" y2="17.7844" gradientUnits="userSpaceOnUse">
<stop offset="0.1" stop-color="#194AAD"/>
<stop offset="0.5" stop-color="#248FCB"/>
<stop offset="0.8" stop-color="#2BBFDF"/>
</linearGradient>
<linearGradient id="paint1_linear_323_4673" x1="31.899" y1="14.2866" x2="23.7722" y2="47.3716" gradientUnits="userSpaceOnUse">
<stop offset="0.1" stop-color="#194AAD"/>
<stop offset="0.5" stop-color="#248FCB"/>
<stop offset="0.8" stop-color="#2BBFDF"/>
</linearGradient>
</defs>
</svg>
