<svg width="66" height="65" viewBox="0 0 66 65" fill="none" xmlns="http://www.w3.org/2000/svg">
<g clip-path="url(#clip0_312_5409)">
<path d="M33 65C51.2254 65 66 50.4493 66 32.5C66 14.5507 51.2254 0 33 0C14.7746 0 0 14.5507 0 32.5C0 50.4493 14.7746 65 33 65Z" fill="#666666"/>
<path fill-rule="evenodd" clip-rule="evenodd" d="M51.7313 42.9609C51.3068 43.6585 50.6221 44.1649 49.8235 44.3717C49.0249 44.5786 48.1758 44.4696 47.4578 44.068L37.6011 38.5633V35.0695L40.732 33.3227L50.5866 38.8253C52.084 39.6602 52.5955 41.5127 51.7313 42.9589V42.9609ZM36.1285 50.3933C36.1285 52.065 34.728 53.4198 32.9996 53.4198C31.2713 53.4198 29.8708 52.065 29.8708 50.3933V39.3859L32.9996 37.6391L36.1285 39.3859V50.3933ZM18.5415 44.068C17.8232 44.4694 16.974 44.5781 16.1754 44.3709C15.3767 44.1636 14.6922 43.6568 14.268 42.9589C14.0633 42.6145 13.9304 42.2334 13.8772 41.8378C13.824 41.4422 13.8515 41.0401 13.9581 40.6551C14.0647 40.2701 14.2483 39.91 14.4981 39.5958C14.7478 39.2816 15.0588 39.0196 15.4127 38.8253L25.2673 33.3206L28.3982 35.0695V38.5633L18.5415 44.068ZM15.4127 26.1747C15.0588 25.9804 14.7478 25.7184 14.4981 25.4042C14.2483 25.09 14.0647 24.7299 13.9581 24.3449C13.8515 23.9599 13.824 23.5578 13.8772 23.1622C13.9304 22.7666 14.0633 22.3855 14.268 22.0411C14.6922 21.3432 15.3767 20.8364 16.1754 20.6291C16.974 20.4219 17.8232 20.5306 18.5415 20.932L28.3982 26.4367V29.9305L25.2673 31.6773L15.4127 26.1747ZM29.8708 14.6067C29.8708 12.935 31.2733 11.5802 32.9996 11.5802C34.728 11.5802 36.1285 12.935 36.1285 14.6067V25.612L32.9996 27.3609L29.8708 25.6141V14.6067ZM37.6011 31.5758L39.2593 32.5L37.6011 33.4242V31.5758ZM34.4723 28.1836L36.1285 27.2573V29.1078L34.4723 28.1836ZM29.8708 29.1078V27.2594L31.527 28.1836L29.8708 29.1078ZM28.3982 33.4242L26.74 32.5L28.3982 31.5758V33.4242ZM31.527 36.8164L29.8708 37.7427V35.8922L31.527 36.8164ZM36.1285 35.8922V37.7406L34.4723 36.8164L36.1285 35.8922ZM32.9996 35.9937L29.8708 34.2469V30.7531L32.9996 29.0063L36.1285 30.7531V34.2469L32.9996 35.9937ZM47.4578 20.932C48.1761 20.5306 49.0253 20.4219 49.8239 20.6291C50.6226 20.8364 51.3071 21.3432 51.7313 22.0411C52.5975 23.4873 52.0819 25.3398 50.5866 26.1747L40.732 31.6794L37.6011 29.9305V26.4367L47.4578 20.932ZM51.3229 37.5923L42.2046 32.5L51.3229 27.4077C51.8437 27.1222 52.3014 26.7371 52.669 26.275C53.0367 25.813 53.3069 25.2833 53.4639 24.717C53.6209 24.1507 53.6614 23.5592 53.5831 22.9772C53.5048 22.3953 53.3093 21.8346 53.008 21.3281C51.7375 19.1994 48.9221 18.4702 46.7215 19.6991L37.6011 24.7914V14.6047C37.6011 12.1489 35.5406 10.1562 32.9996 10.1562C30.4586 10.1562 28.3982 12.1489 28.3982 14.6067V24.7914L19.2778 19.6991C17.0771 18.4702 14.2618 19.1994 12.9934 21.3281C12.6921 21.8346 12.4966 22.3953 12.4183 22.9772C12.34 23.5592 12.3805 24.1507 12.5375 24.717C12.6944 25.2833 12.9647 25.813 13.3323 26.275C13.7 26.7371 14.1576 27.1222 14.6785 27.4077L23.7947 32.5L14.6785 37.5923C14.1575 37.8777 13.6996 38.2626 13.3317 38.7246C12.9639 39.1866 12.6934 39.7162 12.5363 40.2826C12.3791 40.8489 12.3384 41.4404 12.4166 42.0224C12.4947 42.6045 12.6901 43.1652 12.9913 43.6719C14.2618 45.8006 17.0771 46.5298 19.2778 45.3009L28.3982 40.2086V50.3933C28.3982 52.8511 30.4586 54.8438 32.9996 54.8438C35.5406 54.8438 37.6011 52.8511 37.6011 50.3933V40.2086L46.7215 45.3009C48.9221 46.5298 51.7375 45.8006 53.008 43.6719C53.3093 43.1654 53.5048 42.6047 53.5831 42.0228C53.6614 41.4408 53.6209 40.8493 53.4639 40.283C53.3069 39.7167 53.0367 39.187 52.669 38.725C52.3014 38.2629 51.8437 37.8778 51.3229 37.5923Z" fill="white"/>
</g>
<defs>
<clipPath id="clip0_312_5409">
<rect width="66" height="65" fill="white"/>
</clipPath>
</defs>
</svg>
