<svg width="68" height="68" viewBox="0 0 68 68" fill="none" xmlns="http://www.w3.org/2000/svg">
<circle cx="34" cy="34" r="34" fill="#EDF0F4"/>
<path fill-rule="evenodd" clip-rule="evenodd" d="M33.9859 18.2742C33.9686 26.604 33.9327 30.3934 33.8703 30.4558C33.862 30.4641 33.2042 29.8186 32.4084 29.0214L30.9616 27.5719L30.7751 23.9797L30.5887 20.3876L32.0955 15.9002L33.6024 11.4128L33.4294 11.4054C33.2189 11.3964 32.4321 11.4372 31.9534 11.482C30.7191 11.5975 29.4802 11.8086 28.2767 12.1086L28.0789 12.1579L27.3616 14.3123C26.9672 15.4973 26.6381 16.4737 26.6303 16.4822C26.6225 16.4906 25.7039 16.0342 24.5889 15.468C23.474 14.9017 22.5522 14.4384 22.5404 14.4384C22.4906 14.4384 21.0517 15.3864 20.5827 15.7283C19.7996 16.2992 18.9879 16.9688 18.2574 17.6467L18.0803 17.811L18.5861 18.0708C18.8642 18.2137 19.9485 18.7615 20.9956 19.2882C24.6047 21.1038 25.679 21.6506 25.6872 21.6763C25.7003 21.7175 25.9431 25.9844 25.9329 25.9955C25.9279 26.0009 25.6002 25.9873 25.2047 25.965C23.0311 25.8429 21.5975 25.7564 21.5882 25.7469C21.5824 25.741 20.7189 24.033 19.6692 21.9513C18.6195 19.8697 17.7556 18.1614 17.7494 18.1552C17.7432 18.149 17.616 18.2714 17.4669 18.4272C16.5674 19.3667 15.6883 20.4905 14.9369 21.6615C14.6767 22.0671 14.3989 22.5227 14.377 22.5799C14.3691 22.6005 14.7849 23.4433 15.3976 24.6488C15.9663 25.7676 16.4233 26.6905 16.4132 26.6997C16.4031 26.7088 15.4246 27.0394 14.2386 27.4341C12.324 28.0715 12.0811 28.1576 12.0711 28.2019C12.0649 28.2293 12.0239 28.3895 11.9799 28.5577C11.7484 29.4428 11.5088 30.9187 11.4096 32.0706C11.3721 32.5067 11.3194 33.6998 11.337 33.7173C11.343 33.7234 11.3821 33.7186 11.4238 33.7068C11.4879 33.6885 14.2787 32.7848 17.2108 31.8327C17.647 31.6911 18.5561 31.396 19.2308 31.177L20.4577 30.7789L24.0431 30.9677L27.6284 31.1566L29.0826 32.6108L30.5368 34.065L29.0864 35.5145L27.636 36.9643L24.0551 37.1531L20.4743 37.3419L15.9324 35.8287L11.3904 34.3156L11.4048 34.7852C11.4499 36.2631 11.676 37.8718 12.0687 39.5085L12.1486 39.8414L14.3057 40.5594C15.4922 40.9545 16.4701 41.2842 16.479 41.2921C16.4878 41.2998 16.117 42.0509 15.655 42.9606C15.1929 43.8703 14.7275 44.7893 14.6208 45.0028L14.4267 45.3908L14.6176 45.6895C15.4721 47.0276 15.9609 47.707 16.7524 48.6573C17.0845 49.056 17.7851 49.8392 17.8087 49.8381C17.8164 49.8379 18.6781 48.1372 19.7237 46.0589C20.7693 43.9809 21.6372 42.2703 21.6524 42.2578C21.6856 42.2304 25.9619 41.9813 25.9859 42.0054C26.0013 42.0208 25.7758 46.1854 25.7535 46.2958C25.7432 46.347 25.5362 46.4531 20.2023 49.1369C19.0805 49.7014 18.1575 50.1678 18.1513 50.1733C18.1341 50.1882 18.6643 50.6961 19.0441 51.0286C19.7875 51.6793 20.6113 52.3023 21.4942 52.8816C21.9986 53.2125 22.5601 53.5556 22.5974 53.5556C22.6118 53.5556 23.0731 53.3274 23.6226 53.0486C24.1721 52.7698 25.0875 52.3052 25.6567 52.0165C26.2259 51.7278 26.6962 51.4993 26.7018 51.5093C26.7074 51.519 27.0351 52.4974 27.43 53.6834L28.148 55.8396L28.4019 55.9092C29.5966 56.2369 30.8805 56.4694 32.1091 56.5807C32.5249 56.6183 33.6965 56.67 33.715 56.6514C33.7216 56.6448 33.0485 54.6174 32.2194 52.1457L30.7117 47.6517L30.9014 44.06L31.0911 40.4685L32.5421 39.0174L33.9931 37.5665V47.1167V56.6668L34.5087 56.6512C37.299 56.5671 39.7748 56.0744 42.2426 55.1128C45.1004 53.9989 47.7788 52.2511 49.9593 50.0767C52.2621 47.7805 54.0108 45.0937 55.1685 42.0727C55.8878 40.1955 56.3699 38.1095 56.553 36.082C56.6756 34.7245 56.6758 33.2896 56.5532 31.9119C56.3454 29.5751 55.7518 27.2316 54.8106 25.0336C54.5951 24.5306 54.0523 23.428 53.7951 22.9712C51.2448 18.4418 47.3625 14.9953 42.5939 13.0273C40.5118 12.1681 38.2411 11.6214 35.9394 11.4251C35.5045 11.388 34.4196 11.3347 34.0817 11.3337L34.0003 11.3335L33.9859 18.2742ZM39.7838 17.3508C41.5792 17.9876 43.2575 18.903 44.7469 20.0576C48.48 22.9514 50.9021 27.1705 51.4877 31.7986C51.5922 32.6245 51.6128 32.9932 51.6124 34.0083C51.6117 35.0216 51.5933 35.3414 51.4877 36.1953C51.1602 38.844 50.2118 41.4136 48.7327 43.6587C46.6704 46.7894 43.6924 49.1931 40.2246 50.5259C39.8484 50.6705 39.1008 50.9266 39.055 50.9266C39.0294 50.9266 39.0244 48.1984 39.0244 34.0212V17.1159L39.2229 17.1691C39.3322 17.1983 39.5846 17.2801 39.7838 17.3508Z" fill="#FF00AF"/>
</svg>
