<svg width="69" height="69" viewBox="0 0 69 69" fill="none" xmlns="http://www.w3.org/2000/svg">
<circle cx="34.5" cy="34.5" r="34.5" fill="#FFF706"/>
<path fill-rule="evenodd" clip-rule="evenodd" d="M34.5035 14.4758C34.09 14.6236 33.679 15.0922 33.4184 15.7127C33.277 16.0493 33.0561 17.0776 33.0521 17.4166C33.0501 17.5976 33.0353 17.6128 32.9562 17.5146C32.9048 17.4506 32.7155 17.2832 32.5355 17.1427C32.2776 16.9414 32.1145 16.8787 31.7658 16.8471C31.3669 16.8108 31.2993 16.8273 31.0779 17.0135C30.7597 17.2812 30.6473 17.702 30.698 18.4364C30.7387 19.0269 30.9479 19.6752 31.222 20.06C31.3069 20.1793 31.3577 20.3069 31.335 20.3437C31.3122 20.3805 31.077 20.4523 30.8122 20.5033C27.3488 21.1699 24.353 23.2324 22.42 26.2809C21.9213 27.0675 21.2666 28.3385 21.0462 28.9478C20.6362 30.0819 20.4446 30.6453 20.3419 31.0194C19.847 32.8218 19.4846 35.0465 19.4545 36.467L19.4358 37.3493L21.4896 37.3697L23.5434 37.3902L23.6188 37.1921C23.6601 37.0831 23.694 36.7847 23.694 36.529C23.694 35.0691 24.411 32.0947 25.1318 30.5637C25.5959 29.5781 26.3585 28.4374 27.0243 27.7331C27.9246 26.7808 29.4081 25.8719 30.7528 25.4489C31.8871 25.0921 32.5981 25.0014 34.2438 25.0039C35.5875 25.0059 35.9977 25.0344 36.714 25.1755C37.6342 25.3568 38.5125 25.6257 39.1927 25.9344C39.4248 26.0398 39.6837 26.1572 39.7681 26.1953C39.8525 26.2335 40.0251 26.3329 40.1517 26.4162C40.2783 26.4995 40.4337 26.5914 40.497 26.6206C41.1024 26.8989 42.6556 28.3793 43.2376 29.2326C43.6193 29.7921 44.2053 30.874 44.3717 31.3263C45.0313 33.1189 45.2587 34.2624 45.3788 36.3902C45.4074 36.8972 45.4649 37.2969 45.5139 37.3297C45.5609 37.361 46.4969 37.3783 47.5941 37.368L49.589 37.3493L49.6142 36.467C49.6518 35.147 49.4134 32.9257 49.1234 31.895C49.063 31.6803 49.0135 31.4558 49.0135 31.396C49.0135 31.2157 48.4391 29.4934 48.133 28.756C47.1058 26.2815 45.3745 24.1115 43.2591 22.6469C42.7969 22.3268 42.5278 22.1626 41.7857 21.7477C41.1163 21.3734 39.2487 20.6678 38.6178 20.5509C38.4493 20.5196 38.2872 20.4791 38.2575 20.4608C38.2278 20.4424 38.2922 20.2508 38.4006 20.035C38.9761 18.8891 38.9336 17.3416 38.3155 16.9366C38.0074 16.7347 37.4416 16.8174 37.0594 17.1202C36.8913 17.2533 36.7355 17.3623 36.7133 17.3623C36.6911 17.3623 36.649 17.1292 36.6199 16.8444C36.5567 16.2278 36.219 15.3646 35.8799 14.9532C35.6461 14.6696 35.1388 14.3715 34.896 14.375C34.8327 14.376 34.6561 14.4213 34.5035 14.4758ZM31.1387 30.4232C31.0345 30.4781 30.8705 30.6398 30.7743 30.7825C30.611 31.0249 30.5993 31.1208 30.5993 32.2251C30.5993 33.431 30.6294 33.5865 30.9255 33.9118C31.278 34.2991 31.9245 34.1975 32.1973 33.7119C32.3481 33.4438 32.364 33.304 32.364 32.2519C32.364 31.0373 32.3192 30.8273 31.9977 30.5364C31.797 30.3547 31.3747 30.2991 31.1387 30.4232ZM37.4626 30.4367C37.0116 30.6331 36.9676 30.7947 36.9676 32.2516C36.9676 33.4467 36.9816 33.5857 37.1223 33.7833C37.3323 34.0782 37.728 34.2046 38.0788 34.0889C38.5987 33.9172 38.6555 33.7361 38.6555 32.2516C38.6555 30.8116 38.6169 30.662 38.1876 30.44C37.9257 30.3046 37.7677 30.3038 37.4626 30.4367ZM17.3002 39.2803C17.2363 39.3442 17.2319 47.4581 17.2956 47.6243C17.3363 47.7302 17.5742 47.7456 19.1717 47.7456C21.5301 47.7456 22.032 47.6474 23.0259 46.991C24.1888 46.2229 24.8449 44.9591 24.8449 43.4874C24.8449 41.5068 23.6467 39.9294 21.7044 39.3528C21.3684 39.253 20.9065 39.2291 19.3195 39.2291C18.2371 39.2291 17.3283 39.2521 17.3002 39.2803ZM28.6045 39.3698C28.0694 39.5323 27.4383 39.8565 27.1668 40.1082C27.0511 40.2155 26.9323 40.3032 26.9027 40.3032C26.789 40.3032 26.1288 41.2481 25.9236 41.7045C25.5449 42.5465 25.4541 43.4356 25.6511 44.3724C25.8267 45.207 26.1807 45.8552 26.8015 46.4789C28.3495 48.0342 30.7293 48.1626 32.5165 46.7873C32.7703 46.5921 32.9779 46.4081 32.9779 46.3784C32.9779 46.3488 33.0664 46.2292 33.1745 46.1126C33.4193 45.8487 33.7664 45.1549 33.9289 44.6051C34.0048 44.3482 34.0517 43.9068 34.0511 43.4542C34.0494 42.2256 33.6508 41.2667 32.7889 40.4183C32.2702 39.9077 31.7741 39.6107 31.0568 39.3816C30.447 39.1868 29.2262 39.1809 28.6045 39.3698ZM35.1447 43.4682L35.1645 47.7073L36.9292 47.7316C38.0622 47.7472 38.8861 47.7229 39.2309 47.6639C41.2383 47.3203 42.7333 45.4973 42.7192 43.4106C42.7091 41.9314 41.8708 40.5007 40.5698 39.7428C39.7741 39.2792 39.4443 39.2291 37.187 39.2291H35.1248L35.1447 43.4682ZM46.2745 39.3821C45.2933 39.731 44.6955 40.1417 44.1715 40.827C43.3803 41.8617 43.1046 43.0884 43.3747 44.3724C44.0211 47.4453 47.6571 48.7605 50.1777 46.8332C50.874 46.3007 51.284 45.6976 51.6266 44.7024C51.835 44.0964 51.8314 42.9044 51.6191 42.2271C51.181 40.8294 50.0808 39.7479 48.6948 39.3527C48.0844 39.1787 46.8028 39.1942 46.2745 39.3821ZM21.3865 41.2977C22.6181 41.926 23.0151 43.8239 22.1614 45.0012C21.6856 45.6574 21.2391 45.8415 20.1974 45.8112L19.4359 45.7891L19.4155 43.4682L19.3953 41.1472H20.2434C20.9346 41.1472 21.1461 41.1751 21.3865 41.2977ZM30.6421 41.3294C31.385 41.6753 31.8568 42.5093 31.855 43.4738C31.8536 44.208 31.6464 44.7162 31.1434 45.2186C30.7638 45.5978 30.6604 45.6576 30.2434 45.7395C29.277 45.9291 28.4728 45.5332 28.0069 44.6382C27.8304 44.2993 27.8072 44.1652 27.8077 43.4873C27.8082 42.8527 27.8381 42.6568 27.9806 42.3538C28.4739 41.3056 29.6329 40.8594 30.6421 41.3294ZM39.2585 41.2951C39.638 41.4887 40.0588 41.9612 40.2648 42.425C40.4859 42.923 40.5007 43.8799 40.296 44.4564C40.1127 44.9725 39.5062 45.6017 39.0644 45.7341C38.893 45.7854 38.4203 45.8275 38.0137 45.8275H37.2745V43.4873V41.1472H38.1216C38.8066 41.1472 39.024 41.1755 39.2585 41.2951ZM48.3614 41.3301C48.8523 41.5622 49.1082 41.8389 49.3628 42.4132C49.5166 42.76 49.5685 43.006 49.5736 43.4106C49.5835 44.2136 49.3925 44.6972 48.8591 45.22C48.484 45.5877 48.3581 45.6618 47.9698 45.7434C47.0274 45.9416 46.1996 45.5334 45.7282 44.6382C45.5482 44.2963 45.5266 44.1714 45.5294 43.4874C45.5321 42.8572 45.5634 42.6547 45.7047 42.3538C46.1996 41.2994 47.3549 40.8543 48.3614 41.3301Z" fill="black"/>
</svg>
