<svg width="69" height="69" viewBox="0 0 69 69" fill="none" xmlns="http://www.w3.org/2000/svg">
<g clip-path="url(#clip0_312_10582)">
<path d="M34.5243 69.0487C53.5916 69.0487 69.0487 53.5916 69.0487 34.5243C69.0487 15.4571 53.5916 0 34.5243 0C15.4571 0 0 15.4571 0 34.5243C0 53.5916 15.4571 69.0487 34.5243 69.0487Z" fill="#7866D5"/>
<path d="M48.4998 17.7275C49.6685 17.8736 50.8858 17.971 52.0545 18.1658C54.3432 18.604 55.1223 19.7727 54.7327 22.11C54.6353 22.9865 53.9536 23.6682 53.0771 23.8143C52.5415 23.9117 51.9571 23.9604 51.4215 23.9117C43.8252 23.9117 36.2775 23.9604 28.6812 23.9604C27.5612 23.9604 26.3926 24.0578 25.2726 24.2526C21.5231 24.8369 20.0623 26.3951 19.7701 30.1933C19.624 31.9463 19.624 31.9463 21.4257 31.9463H51.6163C51.9084 31.9463 52.2006 31.9463 52.4928 31.9463C52.9797 31.9463 53.418 32.0924 53.8562 32.3359C55.2197 33.2124 54.8788 34.6245 54.8301 35.8905C54.7814 36.9131 54.1484 37.4975 53.0771 37.6922C52.6388 37.7896 52.2006 37.7896 51.7137 37.7896C41.3904 37.7896 31.0672 37.7896 20.744 37.7896C19.624 37.7896 19.624 37.7896 19.7214 38.9096C19.7701 39.9322 19.8675 40.9548 20.111 41.9773C20.5979 43.8277 21.7179 44.9964 23.617 45.532C25.6621 46.1164 27.8047 46.2138 29.8986 46.2625C37.2514 46.2625 44.653 46.2625 52.0545 46.2625C52.9797 46.2625 53.8562 46.3598 54.4405 47.2363C55.3657 48.6972 54.8788 50.5963 53.418 51.5215C53.2232 51.6675 53.0284 51.7649 52.7849 51.8136C51.178 52.3493 49.5224 52.4467 47.8181 52.4953C40.8548 52.6414 33.9402 52.6414 27.0256 52.4953C24.883 52.4467 22.7405 52.2032 20.6466 51.7649C15.7285 50.7423 13.2451 48.2102 12.4173 43.2434C12.2225 42.1234 12.1251 40.9548 11.979 39.7861V30.7289C12.0764 29.8524 12.1738 28.9272 12.2712 28.0507C12.9042 22.4509 15.4363 19.6753 20.9388 18.4092C22.8866 17.971 24.9317 17.8736 26.8795 17.6788L48.4998 17.7275Z" fill="white"/>
<path d="M37.3975 53.4695C33.8915 53.4695 30.4342 53.4208 26.9769 53.3721C24.7857 53.3234 22.5944 53.08 20.4519 52.593C15.1442 51.473 12.4173 48.6488 11.5408 43.3898C11.3947 42.562 11.2973 41.7342 11.2486 40.955C11.1999 40.6142 11.1512 40.2733 11.1025 39.8838V39.7864V30.6318L11.1999 29.7553C11.2486 29.1223 11.346 28.538 11.3947 27.9536C12.0764 21.9642 14.9007 18.8965 20.7927 17.5817C22.351 17.2409 23.8605 17.0948 25.37 16.9487C25.8569 16.9 26.3439 16.8513 26.8308 16.8026H26.9282H48.5972H48.6459C48.9868 16.8513 49.3764 16.9 49.7172 16.9C50.545 16.9974 51.3728 17.0461 52.2493 17.2409C55.0249 17.7765 56.0962 19.3347 55.6092 22.159C55.4632 23.3764 54.4893 24.3989 53.1745 24.5937C52.5902 24.6911 52.0059 24.7398 51.3728 24.7398C43.8252 24.7885 36.2289 24.8372 28.6812 24.8372C27.6099 24.8372 26.49 24.9346 25.4187 25.1294C22.0588 25.665 20.9388 26.8824 20.6466 30.291C20.6466 30.5831 20.598 30.8753 20.598 31.1188C20.7927 31.1188 21.1336 31.1188 21.4258 31.1188H52.4928C53.1258 31.1188 53.7589 31.3135 54.2945 31.6057C55.9501 32.677 55.804 34.2839 55.7066 35.4526C55.7066 35.5987 55.6579 35.7934 55.6579 35.9395C55.5605 37.303 54.7327 38.2282 53.2232 38.5203C52.6876 38.6177 52.2006 38.6177 51.7137 38.6177H20.7927C20.744 38.6177 20.6466 38.6177 20.598 38.6177C20.598 38.6664 20.598 38.7151 20.598 38.7638V38.8125C20.6466 39.8351 20.744 40.809 20.9875 41.7829C21.3771 43.2924 22.3023 44.2176 23.8605 44.6558C25.9543 45.2402 28.0969 45.3375 29.9473 45.3375C35.6932 45.3862 41.5366 45.3862 47.2338 45.3862H52.1032C52.8337 45.3862 54.3432 45.3862 55.2197 46.7984C55.804 47.7236 55.9501 48.7948 55.7066 49.8174C55.4632 50.84 54.8301 51.7165 53.9049 52.3008C53.6615 52.4469 53.3693 52.593 53.0771 52.6904C51.2754 53.2747 49.425 53.3721 47.8668 53.4208C44.4095 53.4208 40.9035 53.4695 37.3975 53.4695ZM12.8555 39.7377C12.9042 40.0785 12.9529 40.4194 12.9529 40.7603C13.0503 41.5394 13.1477 42.3185 13.2451 43.0976C14.0242 47.6749 16.2155 49.9148 20.7927 50.8887C22.8379 51.327 24.9318 51.5704 27.0256 51.6191C33.8915 51.7652 40.9035 51.7652 47.8181 51.6191C49.2303 51.5704 50.9346 51.473 52.4928 50.9861C52.6389 50.9374 52.785 50.84 52.931 50.7913C53.418 50.4505 53.8075 49.9635 53.9536 49.3792C54.0997 48.7948 54.0023 48.2105 53.6615 47.6749C53.3693 47.2366 52.9797 47.0905 52.0546 47.0905H47.1851C41.5366 47.0905 35.6445 47.0905 29.8986 47.0418C27.9508 47.0418 25.6622 46.9445 23.3735 46.2627C21.1823 45.6784 19.8188 44.2663 19.2832 42.075C19.0397 41.0037 18.8936 39.8838 18.8936 38.8125V38.7638C18.845 38.0821 18.7963 37.5951 19.1858 37.1569C19.5754 36.7186 20.111 36.7186 20.7927 36.7186H51.7624C52.1519 36.7186 52.5902 36.7186 52.9797 36.6212C53.7589 36.4752 53.9536 36.1343 54.0023 35.6474C54.0023 35.4526 54.051 35.3065 54.051 35.1117C54.1484 33.8944 54.1484 33.31 53.4667 32.8718C53.2232 32.7257 52.8824 32.6283 52.5902 32.6283H21.4258C20.3545 32.6283 19.7215 32.6283 19.2345 32.1414C18.7476 31.6544 18.845 30.9727 18.8936 29.9501C19.2345 25.7624 20.9875 23.8633 25.1265 23.2303C26.2952 23.0355 27.4639 22.9381 28.6812 22.8894C36.2776 22.8894 43.8252 22.8407 51.4215 22.8407C51.9572 22.8407 52.4441 22.8407 52.931 22.7433C53.418 22.6946 53.8075 22.3051 53.8562 21.8181C54.1971 19.8704 53.7102 19.2373 51.8598 18.8478C51.0807 18.7017 50.3015 18.6043 49.5224 18.5556C49.1816 18.5069 48.792 18.4582 48.4512 18.4582H26.9282C26.4413 18.5069 25.9543 18.5556 25.4674 18.6043C23.9579 18.7504 22.5457 18.8478 21.0849 19.1886C15.972 20.4547 13.732 22.9381 13.1477 28.1971C13.099 28.7814 13.0016 29.3658 12.9529 29.9988L12.8555 30.8266V39.7377Z" fill="white"/>
</g>
<defs>
<clipPath id="clip0_312_10582">
<rect width="69" height="69" fill="white"/>
</clipPath>
</defs>
</svg>
