<svg width="68" height="68" viewBox="0 0 68 68" fill="none" xmlns="http://www.w3.org/2000/svg">
<circle cx="34" cy="34" r="34" fill="#EDF0F4"/>
<path fill-rule="evenodd" clip-rule="evenodd" d="M18.7 18.1333V49.5764H49.6399V18.1333H18.7ZM29.5163 21.7807H32.4091V24.7993H29.5163V21.7807ZM25.24 21.7807H22.2215V24.7993H25.24V21.7807ZM25.1141 29.0756V32.0941H22.0956V29.0756H25.1141ZM23.1019 45.6773H24.2338V44.5454H23.1019V45.6773ZM25.24 39.6404H22.2215V36.7477H25.24V39.6404ZM30.5228 45.6773H31.6547V44.5454H30.5228V45.6773ZM31.6547 38.6343H30.5228V37.5023H31.6547V38.6343ZM29.5163 32.2198H32.5349V29.2013H29.5163V32.2198ZM38.9491 45.6773H37.8172V44.5454H38.9491V45.6773ZM37.8172 38.6343H38.9491V37.5023H37.8172V38.6343ZM38.9491 31.2135H37.8172V30.0816H38.9491V31.2135ZM36.9371 24.7993H39.9556V21.7807H36.9371V24.7993ZM46.3699 45.6773H45.2379V44.5454H46.3699V45.6773ZM45.2379 38.6343H46.3699V37.5023H45.2379V38.6343ZM46.3699 31.2135H45.2379V30.0816H46.3699V31.2135ZM45.2379 23.9189H46.3699V22.7869H45.2379V23.9189Z" fill="#202944"/>
</svg>
