<svg width="68" height="68" viewBox="0 0 68 68" fill="none" xmlns="http://www.w3.org/2000/svg">
<path d="M34 68C52.7782 68 68 52.7782 68 34C68 15.2218 52.7782 0 34 0C15.2218 0 0 15.2218 0 34C0 52.7782 15.2218 68 34 68Z" fill="#EDF0F4"/>
<path d="M17.589 51C17.5654 50.5277 17.5575 50.0553 17.5812 49.583C17.7386 49.5358 17.896 49.5043 18.0614 49.4807C18.5337 49.4019 19.006 49.2839 19.4626 49.15C19.5886 49.1107 19.7145 49.0634 19.8405 49.0162C20.4466 48.78 20.9819 48.3864 21.3913 47.8826C21.6747 47.5284 21.9187 47.1426 22.1313 46.7411C22.4304 46.1901 22.6902 45.6154 22.9264 45.0329C23.3987 43.852 23.871 42.6791 24.3355 41.4983C25.9414 37.4362 27.5474 33.3742 29.1533 29.3121C30.6726 25.4469 32.1683 21.5816 33.6326 17.6928C33.664 17.614 33.6955 17.5353 33.727 17.4566C34.2702 17.307 34.7976 17.1496 35.3487 17C35.3802 17.0787 35.4117 17.1496 35.4353 17.2204C36.0572 18.9523 36.6791 20.6842 37.2931 22.4239C39.4107 28.336 41.5284 34.2401 43.7011 40.1285C44.2994 41.7344 44.8977 43.3482 45.5038 44.9542C45.74 45.6075 46.0234 46.2531 46.3462 46.8671C46.4879 47.1348 46.6374 47.3867 46.8027 47.6386C47.3066 48.4258 48.0859 48.9847 48.9912 49.2209C49.4793 49.3468 49.9674 49.4492 50.4712 49.5122L50.8254 49.5673C50.8727 49.7247 50.849 49.8743 50.849 50.0238C50.849 50.1734 50.849 50.3466 50.849 50.5041C50.8569 50.6615 50.849 50.8111 50.8412 50.9685C50.7939 50.9764 50.7546 50.9843 50.7073 50.9921C50.6522 50.9921 50.5971 50.9921 50.542 50.9921H38.2535C38.2378 50.9685 38.2299 50.937 38.222 50.9055C38.222 50.4804 38.222 50.0553 38.222 49.6302C38.222 49.6145 38.2299 49.5909 38.2378 49.5751C38.3401 49.5436 38.4425 49.5279 38.5527 49.5122C39.0644 49.4413 39.5682 49.3468 40.072 49.213C40.2688 49.1579 40.4735 49.0871 40.6624 49.0083C40.7569 48.969 40.8514 48.9217 40.9458 48.8666C41.4418 48.5911 41.6386 48.1581 41.5913 47.6071C41.5677 47.3552 41.5284 47.1111 41.4575 46.8671C41.3552 46.4892 41.2214 46.1192 41.0954 45.7571C38.5133 38.5541 35.9627 31.3431 33.4358 24.1165C33.4121 24.0377 33.3964 23.9511 33.3177 23.8803C33.2941 23.896 33.2547 23.9118 33.2389 23.9275C33.2153 23.9669 33.1996 24.0063 33.1917 24.0456C31.9558 27.596 30.6411 31.1227 29.3343 34.6416C28.3661 37.2473 27.3978 39.8608 26.5003 42.4902C26.1382 43.545 25.7919 44.6078 25.4533 45.6705C25.3195 46.0799 25.2251 46.4971 25.1621 46.9143C25.1148 47.1977 25.107 47.4811 25.1385 47.7724C25.1778 48.1424 25.3746 48.4809 25.6816 48.7013C25.8784 48.843 26.0989 48.9532 26.335 49.032C26.705 49.1658 27.0829 49.2602 27.4686 49.3232C27.8937 49.4019 28.3188 49.4649 28.7518 49.5279C28.7833 49.5358 28.8069 49.5358 28.8463 49.5436C28.8541 49.5751 28.862 49.6066 28.8699 49.6381C28.8699 50.0475 28.8699 50.4647 28.8699 50.874C28.8699 50.8977 28.862 50.9213 28.8541 50.9449C28.8148 50.9528 28.7754 50.9606 28.7361 50.9606C28.6809 50.9606 28.6258 50.9606 28.5707 50.9606L17.589 51Z" fill="black"/>
</svg>
