<svg width="69" height="69" viewBox="0 0 69 69" fill="none" xmlns="http://www.w3.org/2000/svg">
<circle cx="34.5" cy="34.5" r="34.5" fill="#13B5EC"/>
<path fill-rule="evenodd" clip-rule="evenodd" d="M37.3751 27.6029L45.1376 23.052V32.1538L37.3751 27.6029ZM45.1376 47.1067L34.7876 53.1745L24.4376 47.1067V36.488L34.7876 42.5558L45.1376 36.488V47.1067ZM24.4376 23.052L32.2001 27.6029L24.4376 32.1538V23.052ZM36.0813 29.77L43.8438 34.3209L36.0813 38.8717V29.77ZM33.4938 38.8717L25.7313 34.3209L33.4938 29.77V38.8717ZM43.8438 20.8849L34.7876 26.0859L25.7313 20.8849L34.7876 15.4672L43.8438 20.8849ZM21.8501 20.0181V48.4069L34.7876 55.775L47.7251 48.4069V20.0181L34.7876 12.65L21.8501 20.0181Z" fill="white"/>
</svg>
