<svg width="68" height="68" viewBox="0 0 68 68" fill="none" xmlns="http://www.w3.org/2000/svg">
<rect width="68" height="68" rx="34" fill="white"/>
<path d="M25.3078 17.2522C34.8705 17.2493 44.4338 17.2493 53.9976 17.2522C54.0006 20.266 54.0006 23.2792 53.9976 26.2919C44.4347 26.2948 34.8714 26.2948 25.3078 26.2919C25.3047 23.2782 25.3047 20.2649 25.3078 17.2522Z" fill="#02A6C2"/>
<path d="M14.012 29.6929C17.0972 29.6773 20.1828 29.6773 23.2691 29.6929C23.285 32.7009 23.285 35.7094 23.2691 38.7185C20.183 38.734 17.0973 38.7342 14.012 38.7193C13.996 35.7107 13.996 32.7019 14.012 29.6929Z" fill="#5FCADE"/>
<path d="M25.3153 29.6926C32.2175 29.6783 39.1191 29.6783 46.0204 29.6926C46.0351 32.7007 46.0351 35.7092 46.0204 38.7183C39.1184 38.7324 32.2167 38.7324 25.3153 38.7183C25.3008 35.7101 25.3008 32.7016 25.3153 29.6926Z" fill="#5FCADE"/>
<path d="M25.324 42.1363C28.4039 42.1036 31.4833 42.1036 34.5622 42.1363C34.5942 45.1373 34.5947 48.1398 34.5636 51.1437C31.4837 51.1734 28.4044 51.1728 25.3256 51.1422C25.2936 48.1414 25.2931 45.1394 25.324 42.1363Z" fill="#ABEBF4"/>
</svg>
