<svg width="69" height="69" viewBox="0 0 69 69" fill="none" xmlns="http://www.w3.org/2000/svg">
<g clip-path="url(#clip0_312_10706)">
<path d="M34.5 69C53.5538 69 69 53.5538 69 34.5C69 15.4462 53.5538 0 34.5 0C15.4462 0 0 15.4462 0 34.5C0 53.5538 15.4462 69 34.5 69Z" fill="#ED1968"/>
<path d="M27.3846 58.0044C24.6297 57.2411 22.061 55.9201 19.8377 54.1232C17.647 52.4356 15.7524 50.3952 14.2315 48.0857C12.6097 45.6562 11.4409 42.9533 10.7815 40.1076C10.0266 36.6989 10.0266 33.1663 10.7815 29.7576C11.4248 26.8741 12.5162 24.1093 14.0159 21.5638C16.2114 18.0414 19.3483 15.2033 23.0721 13.3701C24.3798 12.6662 25.7517 12.0886 27.169 11.6451C29.3252 14.2326 31.4815 17.0357 33.6377 19.8388C33.8534 20.2701 34.2846 20.4857 34.5002 20.9169C32.3374 21.0076 30.2132 21.5204 28.2471 22.4263C26.509 23.335 24.9696 24.5812 23.719 26.0919C22.4884 27.7186 21.5408 29.541 20.9159 31.4826C20.34 33.83 20.4146 36.2899 21.1315 38.5982L30.4034 31.2669C32.5596 34.0701 34.7159 36.6576 36.8721 39.4607C33.8534 41.8326 30.619 44.2044 27.6002 46.7919C30.619 50.6732 33.8534 54.7701 36.8721 58.8669C33.6841 59.2439 30.4524 58.9501 27.3846 58.0044ZM47.9337 31.8836C47.8545 31.5307 47.761 31.181 47.6534 30.8357C47.3623 31.0643 40.9474 35.9676 38.3815 38.1669C36.2252 35.3638 34.069 32.7763 31.9127 29.9732C34.9315 27.6013 38.1659 25.2294 41.1846 22.6419C38.1659 18.7607 35.1471 14.8794 31.9127 10.7826C31.9127 10.5669 31.6971 10.5669 31.6971 10.3513H34.7159C40.2469 10.4029 45.586 12.386 49.8096 15.9576C51.868 17.6585 53.6185 19.7008 54.9846 21.9951C56.5935 24.4649 57.6253 27.2655 58.0034 30.1888C58.581 33.5496 58.5078 36.99 57.7877 40.3232C57.1705 43.1161 55.9972 45.756 54.3377 48.0857C52.8895 50.3222 51.0658 52.2918 48.9471 53.9076C46.8836 55.7004 44.456 57.0246 41.8315 57.7888C39.8909 55.4169 38.1659 53.2607 36.4409 50.8888C35.7964 50.1511 35.2191 49.3573 34.7159 48.5169C36.7561 48.5238 38.7706 48.0605 40.6029 47.163C42.4352 46.2656 44.0361 44.9581 45.2815 43.3419C46.5235 41.7532 47.4062 39.9141 47.869 37.9513C48.2701 36.3147 48.2916 34.2922 47.9337 31.8836ZM37.7497 49.9379C39.2388 51.9719 40.7847 53.9636 42.3856 55.9107C44.4336 55.1702 46.3259 54.0551 47.966 52.6224C49.9544 51.1024 51.6644 49.2494 53.0203 47.1456C54.5523 44.9958 55.6361 42.5598 56.2072 39.9825C56.8843 36.8516 56.9511 33.6194 56.4013 30.3958C56.0486 27.6925 55.0896 25.1038 53.596 22.8231C52.3211 20.6831 50.6872 18.7786 48.766 17.1931C44.885 13.9098 39.9904 12.0653 34.9078 11.9707C36.9066 14.515 38.9313 17.109 42.4611 21.6501L43.4099 22.8662L42.2369 23.8688C40.7031 25.1733 39.1372 26.4394 37.5405 27.666C37.3896 27.7846 35.5568 29.1926 34.1811 30.2578C34.7482 30.9802 35.4059 31.8038 36.4107 33.0609C37.4025 34.3008 38.0602 35.1266 38.6273 35.849C39.6278 35.0231 40.7189 34.1563 42.0255 33.1429C42.2369 32.979 45.6825 30.3268 46.655 29.5635L48.5008 28.1123L49.1972 30.3548C50.0008 32.9391 50.0858 35.6933 49.4431 38.3222C48.9279 40.5092 47.9451 42.5586 46.5623 44.3295C44.3634 47.1831 41.2051 49.1433 37.6721 49.8474L37.7497 49.9379Z" fill="white"/>
</g>
<defs>
<clipPath id="clip0_312_10706">
<rect width="69" height="69" fill="white"/>
</clipPath>
</defs>
</svg>
