<svg width="70" height="70" viewBox="0 0 70 70" fill="none" xmlns="http://www.w3.org/2000/svg">
<circle cx="35" cy="35" r="34" fill="black" stroke="black" stroke-width="0.436504"/>
<path d="M19.9311 15.6242L17.6516 17.9037L20.5356 20.7877L23.426 23.6717L23.1867 24.377C22.8781 25.3027 22.7522 26.0772 22.7522 27.1036C22.7522 30.4473 24.5027 33.2935 27.6009 34.9874C28.8477 35.6675 30.9886 36.4357 33.3626 37.0465C37.9972 38.2367 38.7087 38.4445 39.6218 38.8727C40.8686 39.4646 41.4857 40.1069 41.7439 41.0766C41.8572 41.4985 41.8509 42.4431 41.7376 42.8964C41.4479 43.9984 40.5097 45.1067 39.3447 45.7112C37.7705 46.5361 35.0313 46.7628 32.9659 46.2338C32.1977 46.0449 31.1083 45.5097 30.5604 45.0626C29.4459 44.1432 28.5769 42.5564 28.1928 40.724C28.1298 40.4343 28.0794 40.1887 28.0731 40.1761C28.0542 40.1509 21.6061 40.7807 21.5746 40.8184C21.5494 40.8373 21.5683 41.1018 21.6124 41.4041C21.8139 42.8587 22.324 44.5903 22.9096 45.7931L23.2496 46.492L20.4475 49.2942L17.6516 52.0963L19.9374 54.3821L22.2169 56.6617L25.1072 53.7713L27.9913 50.8873L28.4887 51.0951C31.1209 52.2034 35.0691 52.5497 38.8977 51.9956C39.817 51.8634 41.1457 51.5485 41.8446 51.2903L42.2602 51.1392L45.0246 53.9036L47.7827 56.6617L50.0622 54.3821L52.348 52.0963L49.7851 49.5335L47.2286 46.9769L47.5497 46.322C48.2172 44.9807 48.4943 43.841 48.5509 42.273C48.6517 39.282 47.8772 37.0277 46.114 35.17C44.2753 33.2369 42.2036 32.3175 36.3537 30.844C32.2291 29.8113 30.4534 29.0997 29.7481 28.2056C29.0492 27.324 28.9862 26.0898 29.597 25.1893C29.9496 24.6667 30.8186 24.1062 31.7632 23.7914C32.8274 23.4325 34.6157 23.2687 35.9444 23.4073C38.7465 23.7032 40.157 24.8996 40.7742 27.5192C40.8497 27.8403 40.919 28.1111 40.9253 28.1237C40.9379 28.1426 45.4969 27.9789 46.8633 27.9096L47.6442 27.8718L47.6001 27.324C47.5119 26.2094 47.2915 25.2145 46.8885 24.1755L46.6681 23.5899L49.5081 20.7436L52.348 17.9037L50.0685 15.6179L47.7827 13.3384L44.9113 16.2098L42.0336 19.0875L41.3346 18.8231C39.6155 18.1808 37.9531 17.8974 35.5036 17.8281C32.8274 17.7589 30.4786 18.1052 28.6776 18.8356L28.0102 19.1064L25.1135 16.2224L22.2169 13.3384L19.9311 15.6242Z" fill="white"/>
</svg>
