<svg width="68" height="68" viewBox="0 0 68 68" fill="none" xmlns="http://www.w3.org/2000/svg">
<circle cx="34" cy="34" r="34" fill="#EDF0F4"/>
<path d="M38.0446 26.5972C36.6602 27.4557 33.8872 29.1772 33.8701 29.1942L21.1345 21.6952L33.8755 14.6369L49.6119 23.3735L52.7188 21.6049L33.8967 11.3335L14.9844 21.5942L33.7958 32.4605L41.0984 28.4082L38.0446 26.5972Z" fill="black"/>
<path d="M25.71 33.4756V30.207L32.9219 34.2141V56.6528L13.6001 44.6855V23.0425L16.646 24.959V43.0884L29.8777 51.2593V35.9254L25.71 33.4756Z" fill="black"/>
<path d="M34.7815 56.6668V53.0849L50.9547 43.1233V28.3736L37.8404 36.0227V40.889L34.7793 42.8519V34.2364L54.1433 22.9341V44.7066L34.7815 56.6668Z" fill="black"/>
</svg>
