<svg width="68" height="68" viewBox="0 0 68 68" fill="none" xmlns="http://www.w3.org/2000/svg">
<circle cx="34" cy="34" r="34" fill="#EEF4F4"/>
<path fill-rule="evenodd" clip-rule="evenodd" d="M43.4231 9.6333L38.2963 14.7121C36.5682 13.5137 34.4368 12.7719 32.1327 12.7719C26.257 12.7719 21.5334 17.5082 21.5334 23.2718C21.5334 28.4647 25.3353 32.8016 30.3469 33.6576V37.4809C25.3353 38.3369 21.5334 42.6168 21.5334 47.8667C21.5334 53.6873 26.3146 58.3666 32.1327 58.3666C37.9507 58.3666 42.7319 53.6303 42.7319 47.8667C42.7319 42.6738 38.93 38.3369 33.9184 37.4809V33.6576C38.93 32.8016 42.7319 28.5217 42.7319 23.2718C42.7319 20.9892 41.983 18.8778 40.7733 17.1659L45.9001 12.0871L43.4231 9.6333ZM39.2179 47.7526C39.2179 51.633 36.0497 54.7716 32.1326 54.7716C28.2731 54.7716 25.1049 51.633 25.1049 47.7526C25.1049 43.8722 28.2731 40.7337 32.1902 40.7337C36.0497 40.7337 39.2179 43.8722 39.2179 47.7526ZM25.1049 23.2148C25.1049 27.0952 28.2731 30.2337 32.1902 30.2337C36.0497 30.2337 39.2179 27.0952 39.2755 23.2718C39.2755 19.3914 36.1073 16.2529 32.1902 16.2529C28.2731 16.2529 25.1049 19.3914 25.1049 23.2148Z" fill="#181EA9"/>
</svg>
