<svg width="68" height="68" viewBox="0 0 68 68" fill="none" xmlns="http://www.w3.org/2000/svg">
<circle cx="34" cy="34" r="34" fill="#00A6C4"/>
<path d="M39.9827 29.9128L39.4168 30.4787C39.8884 31.2042 39.9931 32.1087 39.6998 32.9227C39.1781 34.3692 37.5857 35.1223 36.1367 34.6078C35.9372 34.537 35.7471 34.4419 35.5707 34.3248L33.757 36.1385L32.1749 34.5435C31.4195 35.0468 30.4715 35.1659 29.6151 34.865C28.9009 34.6108 28.3176 34.0823 27.9941 33.3967C27.6706 32.7111 27.6336 31.9248 27.8915 31.2119C27.97 30.9884 28.0781 30.7764 28.2131 30.5816L27.5313 29.8999L27.4027 30.1186C25.9986 32.4153 25.9432 35.291 27.2577 37.6402C28.5723 39.9893 31.0522 41.4463 33.7442 41.4509H33.757C36.4464 41.4524 38.9275 40.003 40.2472 37.6597C41.5668 35.3163 41.5198 32.4433 40.1242 30.1443L39.9827 29.9128Z" fill="white"/>
<path d="M29.0492 31.418C28.8488 31.6852 28.7405 32.0101 28.7405 32.3441C28.7419 33.1818 29.4206 33.8605 30.2583 33.8619C30.5947 33.8637 30.9215 33.7502 31.1845 33.5404L29.0492 31.418Z" fill="white"/>
<path d="M36.4968 33.4118C36.7466 33.5828 37.0431 33.6727 37.3458 33.669C38.1835 33.6676 38.8622 32.9889 38.8636 32.1512C38.8654 31.8488 38.7757 31.5529 38.6064 31.3022L36.4968 33.4118Z" fill="white"/>
<path fill-rule="evenodd" clip-rule="evenodd" d="M27.6343 28.8325L33.7828 35.0067L39.8542 28.9611L39.6226 28.7039C38.1116 27.0281 35.962 26.0702 33.7056 26.0669H33.6928C31.4907 26.0604 29.3849 26.9689 27.8787 28.5752L27.6343 28.8325ZM33.7828 33.9906L28.6376 28.8325C29.9927 27.5115 31.8132 26.7768 33.7057 26.7873H33.7185C35.6503 26.7939 37.5007 27.5664 38.8637 28.9354L33.7828 33.9906Z" fill="white"/>
<path d="M27.0041 38.981L26.2837 38.9296C23.2223 38.7366 19.0033 37.9777 16.2763 35.5209C14.5912 34.0159 14.2697 32.5881 14.2568 32.5238L14.1667 32.0864H25.3061L25.2418 32.498C25.1905 32.8732 25.1647 33.2514 25.1646 33.63C25.1587 35.3188 25.6557 36.9712 26.5924 38.3765L27.0041 38.981Z" fill="white"/>
<path d="M40.4844 38.981L40.8831 38.3765C41.8179 36.9798 42.315 35.3363 42.3109 33.6557C42.3113 33.2685 42.2855 32.8818 42.2337 32.498L42.1823 32.0864H53.3217L53.2316 32.5238C53.2188 32.5881 52.8972 34.0159 51.225 35.5209C48.498 37.9777 44.2661 38.7366 41.2047 38.9296L40.4844 38.981Z" fill="white"/>
</svg>
