<svg width="68" height="68" viewBox="0 0 68 68" fill="none" xmlns="http://www.w3.org/2000/svg">
<circle cx="34" cy="34" r="34" fill="#EDF0F4"/>
<path fill-rule="evenodd" clip-rule="evenodd" d="M38.5492 25.281C38.5492 18.783 35.4168 13.1846 33.0175 11.3519C33.0175 11.3519 32.8509 11.2519 32.8509 11.5185C32.651 24.0814 26.2862 27.5137 22.754 32.079C14.6564 42.6758 22.1875 54.2723 29.8518 56.405C34.1505 57.6046 28.8521 54.2723 28.1857 47.2744C27.3859 38.777 38.5492 32.3122 38.5492 25.281Z" fill="#282E5B"/>
<path fill-rule="evenodd" clip-rule="evenodd" d="M42.7478 29.5797C42.7145 29.5464 42.6478 29.5464 42.5812 29.5797L42.5479 29.613C42.4146 31.1792 40.6818 34.5782 38.5158 37.6772C31.1513 48.2074 35.35 53.2726 37.716 56.0051C39.0823 57.6046 37.716 56.0051 41.1483 54.3722C41.4149 54.2389 47.813 50.84 48.5128 43.1423C49.2125 35.6445 44.4473 30.9459 42.7478 29.5797Z" fill="#059BDC"/>
</svg>
