<svg width="65" height="65" viewBox="0 0 65 65" fill="none" xmlns="http://www.w3.org/2000/svg">
<g clip-path="url(#clip0_312_4844)">
<path d="M15.2781 58.4837L10.877 50.8606C10.8089 50.7216 10.7735 50.5689 10.7735 50.4142C10.7735 50.2594 10.8089 50.1067 10.877 49.9677L15.7639 41.5055C15.8499 41.3749 15.9651 41.2661 16.1004 41.1877C16.2357 41.1094 16.3874 41.0637 16.5435 41.0542H26.3153C26.4716 41.0637 26.6236 41.1094 26.7592 41.1877C26.8949 41.266 27.0104 41.3748 27.0968 41.5055L31.9837 49.9677C32.0528 50.1081 32.0887 50.2625 32.0887 50.419C32.0887 50.5754 32.0528 50.7298 31.9837 50.8702L27.0968 59.3324C27.0109 59.4603 26.8971 59.5671 26.7642 59.6449C26.6312 59.7227 26.4823 59.7695 26.3287 59.7817H17.5439C17.0922 59.7528 16.6531 59.6208 16.2603 59.3958C15.8675 59.1708 15.5315 58.8588 15.2781 58.4837ZM47.0129 41.0696L37.2776 24.2143C37.1593 24.036 37.0014 23.8876 36.8162 23.7807C36.6309 23.6737 36.4234 23.6112 36.21 23.5979H16.7394C16.5259 23.6112 16.3184 23.6737 16.1332 23.7807C15.9479 23.8876 15.79 24.036 15.6717 24.2143L5.93643 41.0773C5.84077 41.2687 5.79097 41.4797 5.79097 41.6937C5.79097 41.9076 5.84077 42.1186 5.93643 42.31L8.78981 47.2564L13.7823 38.6156C13.9176 38.408 14.0998 38.2351 14.3143 38.111C14.5288 37.9869 14.7695 37.9151 15.017 37.9013H27.8437C28.0912 37.9151 28.3319 37.9869 28.5464 38.111C28.7609 38.2351 28.9431 38.408 29.0784 38.6156L35.4937 49.7258C35.6055 49.947 35.6637 50.1913 35.6637 50.4391C35.6637 50.6869 35.6055 50.9313 35.4937 51.1525L30.5013 59.7933H36.2042C36.4179 59.7801 36.6256 59.7173 36.8109 59.61C36.9962 59.5027 37.154 59.3538 37.2718 59.175L47.0071 42.3139C47.1056 42.1214 47.1574 41.9086 47.1584 41.6924C47.1594 41.4763 47.1095 41.2629 47.0129 41.0696ZM64.6785 29.9153L49.7453 4.03894C49.4922 3.65221 49.1519 3.33031 48.7517 3.09918C48.3515 2.86805 47.9025 2.73415 47.4411 2.70825L17.5612 2.70825C17.0997 2.73415 16.6508 2.86805 16.2506 3.09918C15.8504 3.33031 15.51 3.65221 15.257 4.03894L0.317981 29.9153C0.109721 30.3276 0.0012207 30.7831 0.0012207 31.245C0.0012207 31.7069 0.109721 32.1624 0.317981 32.5747L3.74166 38.5042L13.669 21.3071C13.8362 21.0511 14.0614 20.8381 14.3263 20.6853C14.5911 20.5325 14.8883 20.4442 15.1936 20.4277H37.7384C38.0438 20.4442 38.3409 20.5325 38.6058 20.6853C38.8707 20.8381 39.0958 21.0511 39.2631 21.3071L50.5364 40.8334C50.6746 41.106 50.7466 41.4073 50.7466 41.7129C50.7466 42.0184 50.6746 42.3197 50.5364 42.5923L40.611 59.7817H47.4411C47.9025 59.7559 48.3515 59.6219 48.7517 59.3908C49.1519 59.1597 49.4922 58.8378 49.7453 58.4511L64.6843 32.5747C64.8926 32.1624 65.0011 31.7069 65.0011 31.245C65.0011 30.7831 64.8926 30.3276 64.6843 29.9153H64.6785Z" fill="url(#paint0_linear_312_4844)"/>
</g>
<defs>
<linearGradient id="paint0_linear_312_4844" x1="16.2516" y1="59.39" x2="48.7526" y2="3.09998" gradientUnits="userSpaceOnUse">
<stop stop-color="#FFDC00"/>
<stop offset="0.33" stop-color="#E58E2F"/>
<stop offset="0.67" stop-color="#DB2D72"/>
<stop offset="1" stop-color="#FF00FF"/>
</linearGradient>
<clipPath id="clip0_312_4844">
<rect width="65" height="65" fill="white"/>
</clipPath>
</defs>
</svg>
