<svg width="68" height="68" viewBox="0 0 68 68" fill="none" xmlns="http://www.w3.org/2000/svg">
<circle cx="34" cy="34" r="34" fill="#EDF0F4"/>
<ellipse cx="33.9603" cy="33.928" rx="22.2706" ry="22.2425" fill="white"/>
<path fill-rule="evenodd" clip-rule="evenodd" d="M32.2344 8.60746C21.3777 9.34413 12.0513 17.0525 9.33266 27.5362C7.51524 34.5445 8.70224 41.9299 12.6066 47.9069C14.6737 51.0714 17.6416 53.9387 20.8429 55.8642C29.2227 60.904 39.8276 60.6892 48.012 55.3139C57.1697 49.2993 61.4309 38.1911 58.6679 27.5362C56.8481 20.5187 51.9442 14.4989 45.3911 11.2382C43.0919 10.0942 40.7111 9.3158 38.2067 8.88916C37.29 8.73306 34.1652 8.4649 33.7155 8.50381C33.6215 8.51189 32.955 8.55854 32.2344 8.60746ZM37.2385 16.6756C40.0582 17.2494 42.9044 18.6715 44.8446 20.4757C46.1395 21.6799 46.0974 21.5365 46.0241 24.4947L45.9615 27.0217L45.4842 26.6564C45.1021 26.364 44.983 26.1834 44.8876 25.7521C44.561 24.2751 43.6611 22.7646 42.3546 21.5001C41.1844 20.3676 39.7766 19.7049 37.3039 19.1226C34.8407 18.5426 30.8333 18.1884 28.0197 18.3019L26.4818 18.3639L27.0138 18.0919C28.4938 17.3351 30.6785 16.6801 32.4727 16.4552C33.6818 16.3036 35.9195 16.4071 37.2385 16.6756ZM30.8111 20.5739C31.4241 21.6533 32.6664 23.842 33.5716 25.4376C34.4767 27.0333 35.3489 28.5666 35.5097 28.845L35.8021 29.351L35.4708 29.0973C34.6772 28.4896 33.3668 27.6286 32.59 27.2047L31.7496 26.746L29.5997 22.7162C28.4174 20.4998 27.45 18.6696 27.45 18.6489C27.45 18.6282 27.9555 18.6112 28.5732 18.6112H29.6965L30.8111 20.5739ZM34.4752 24.7975C36.4435 28.1687 38.039 30.9403 38.0206 30.9567C38.0023 30.973 37.636 30.7236 37.2068 30.4023L36.4265 29.818L33.2502 24.3C31.5031 21.2651 30.0729 18.7405 30.0719 18.6899C30.0709 18.6391 30.256 18.6135 30.4832 18.633L30.8965 18.6682L34.4752 24.7975ZM26.2826 22.4132C27.3635 24.3115 28.2477 25.8966 28.2477 25.9356C28.2477 25.9746 28.0036 26.0066 27.7051 26.0066C27.2517 26.0066 27.1441 25.9645 27.0501 25.7506C26.8154 25.2164 26.1827 25.0467 24.258 25.0015C22.5818 24.962 22.4834 24.947 22.3709 24.7152C22.3056 24.5807 21.7765 23.5859 21.195 22.5047C20.5884 21.3766 20.1661 20.4653 20.2042 20.3662C20.2988 20.1199 21.525 19.5759 22.7228 19.2491C24.3973 18.7921 24.0404 18.4748 26.2826 22.4132ZM38.0018 21.5032C38.7615 22.6972 40.3902 25.2561 41.6211 27.1894C43.7129 30.4752 43.8471 30.7181 43.6753 30.9075C43.4899 31.1122 42.7267 31.5195 42.6609 31.4488C42.6413 31.4279 41.2569 29.2604 39.5845 26.6323C37.9121 24.0041 36.1637 21.2591 35.6992 20.5322C35.2348 19.8051 34.8548 19.1634 34.8548 19.1062C34.8548 19.0485 35.2483 19.0757 35.7376 19.1672L36.6205 19.3323L38.0018 21.5032ZM48.02 23.3299C50.1372 25.5071 52.7002 29.3418 53.7072 31.8392C54.5274 33.8731 54.5034 36.0006 53.6292 38.7491C52.766 41.4629 51.269 43.5697 49.6838 44.3014C48.1023 45.0315 46.2888 44.3757 45.8964 42.9317C45.6904 42.1737 45.8354 39.8635 46.2305 37.6114C46.8998 33.7959 46.9299 33.3695 46.9299 27.7074C46.9299 23.8288 46.9639 22.4797 47.0616 22.4797C47.1339 22.4797 47.5652 22.8623 48.02 23.3299ZM25.4567 25.5449C25.8432 25.6247 25.7649 25.641 24.9411 25.6521C23.0149 25.6781 21.3493 25.9778 21.0024 26.3608C20.7852 26.6004 20.7663 27.3069 20.9613 27.8968C21.0341 28.1171 21.0664 28.3245 21.0331 28.3578C20.9564 28.4343 20.655 27.4299 20.5553 26.7658C20.4886 26.3213 20.511 26.2402 20.7468 26.0747C21.452 25.5799 24.1541 25.2758 25.4567 25.5449ZM30.1272 27.1918C31.4017 27.5237 33.2092 28.5341 35.1439 29.9963C38.1997 32.306 38.8515 32.6064 40.8032 32.6041C42.2905 32.6024 43.4477 32.2993 44.0842 31.7446C44.2311 31.6166 44.3914 31.6713 45.1429 32.1063L46.0283 32.6189L45.957 33.3231C45.9178 33.7105 45.6747 35.282 45.4167 36.815C45.0074 39.2478 44.9469 39.834 44.942 41.4228C44.9368 43.0989 44.9566 43.2811 45.1926 43.722C45.3337 43.9855 45.449 44.3073 45.449 44.437C45.449 45.0697 44.2324 46.9077 43.1532 47.9055C41.935 49.032 40.5989 49.4767 39.1882 49.225C36.8613 48.8096 35.5645 47.478 32.9606 42.8304C30.2051 37.9126 28.5777 35.9673 26.2284 34.7829C25.4678 34.3994 24.053 33.9707 23.548 33.9707C23.1198 33.9707 22.98 33.5987 22.9635 32.4144C22.946 31.1618 22.7445 31.5222 22.732 32.8286L22.7227 33.8001L21.8057 33.9257C19.4839 34.2438 18.0921 35.5767 17.5809 37.9723C17.4434 38.6163 17.4168 39.2203 17.4642 40.6264C17.5291 42.5489 17.7045 43.597 18.3379 45.8464C18.5296 46.5274 18.672 47.0983 18.6541 47.1149C18.6363 47.1317 18.3441 47.0413 18.0048 46.9142C17.0595 46.5603 16.0211 45.4609 15.3435 44.0965C14.4104 42.2178 14.0081 40.1719 14.0081 37.3049C14.0081 33.3253 14.8331 30.4351 16.4343 28.8051C17.3527 27.8703 18.3417 27.3587 19.3753 27.2842L20.1289 27.2298L20.2018 27.6184C20.3293 28.2966 21.0373 29.6151 21.5311 30.0937C22.0681 30.6141 22.7193 30.8425 23.3389 30.7278C24.4722 30.5181 25.7269 29.3725 26.5466 27.7989L27.0222 26.8859L28.2329 26.95C28.8989 26.9851 29.7513 27.094 30.1272 27.1918ZM28.5301 27.7169C28.4859 27.7883 28.5033 27.9004 28.5688 27.9658C28.7219 28.1187 29.0788 27.9853 29.0165 27.7984C28.9532 27.6082 28.6308 27.5542 28.5301 27.7169ZM18.9633 27.8269C18.868 27.9809 18.9966 28.1682 19.1979 28.1682C19.2882 28.1682 19.362 28.0658 19.362 27.9406C19.362 27.7051 19.0872 27.6266 18.9633 27.8269ZM17.5393 28.5597C17.5393 28.6499 17.5802 28.749 17.6302 28.7799C17.7759 28.8698 18.0318 28.6612 17.9459 28.5224C17.8329 28.3397 17.5393 28.3666 17.5393 28.5597ZM27.5841 28.813C27.6395 29.0985 27.9057 29.1375 27.9057 28.8602C27.9057 28.7205 27.8321 28.6234 27.7265 28.6234C27.6204 28.6234 27.5623 28.7007 27.5841 28.813ZM30.4119 29.306C30.4119 29.4773 30.4714 29.5388 30.6113 29.5119C30.721 29.4908 30.8106 29.3981 30.8106 29.306C30.8106 29.2138 30.721 29.1212 30.6113 29.1001C30.4714 29.0732 30.4119 29.1347 30.4119 29.306ZM19.4192 29.306C19.3238 29.46 19.4524 29.6473 19.6537 29.6473C19.7441 29.6473 19.8179 29.5449 19.8179 29.4198C19.8179 29.1842 19.543 29.1057 19.4192 29.306ZM17.6731 29.7222C17.7211 29.9713 18.0521 30.0064 18.0521 29.7626C18.0521 29.6695 17.9578 29.5753 17.8424 29.5532C17.6902 29.5239 17.6439 29.5702 17.6731 29.7222ZM18.5861 30.3014C18.6073 30.4109 18.7 30.5005 18.7923 30.5005C18.8846 30.5005 18.9773 30.4109 18.9985 30.3014C19.0254 30.1617 18.9639 30.1023 18.7923 30.1023C18.6208 30.1023 18.5592 30.1617 18.5861 30.3014ZM27.792 30.453C27.792 30.7302 28.0582 30.6912 28.1136 30.4057C28.1355 30.2935 28.0774 30.2161 27.9712 30.2161C27.8656 30.2161 27.792 30.3133 27.792 30.453ZM29.2194 30.4376C29.1191 30.5995 29.2469 30.7849 29.4585 30.7849C29.5583 30.7849 29.6154 30.7048 29.5941 30.5951C29.5498 30.3666 29.3223 30.2711 29.2194 30.4376ZM24.4126 35.0606C25.5251 35.3474 26.7911 36.0705 27.76 36.9723C29.1976 38.3101 30.0799 39.5983 32.4842 43.8688C34.1698 46.863 35.5446 48.5976 36.7989 49.3132C37.4881 49.7062 37.5215 49.6698 35.8983 50.296C32.0786 51.7693 27.8435 51.4743 23.6341 49.4417C21.6857 48.5008 20.2304 47.5011 19.7584 46.779C18.7952 45.3058 18.0325 40.3719 18.4446 38.2803C18.7238 36.8628 19.4044 35.7836 20.3197 35.3071C21.3779 34.7562 22.8811 34.6657 24.4126 35.0606Z" fill="black"/>
</svg>
