<svg width="68" height="68" viewBox="0 0 68 68" fill="none" xmlns="http://www.w3.org/2000/svg">
<circle cx="34" cy="34" r="34" fill="#007F88"/>
<path d="M12.5196 17.6029C11.8331 17.6569 11.3047 17.7649 11.3344 17.8459C11.6083 18.4976 13.3013 22.3349 13.3244 22.3581C13.3476 22.3812 13.741 22.4082 14.2038 22.4275C16.2555 22.5046 17.8791 22.9057 19.6338 23.7735C20.895 24.3944 21.8282 25.0616 22.8001 26.0296C24.2309 27.4565 25.1642 29.0416 25.7118 30.9814C25.7735 31.2051 25.8237 31.4057 25.8237 31.4365C25.8237 31.4789 25.5113 31.4867 24.1306 31.4867C23.1973 31.4867 22.3952 31.5021 22.345 31.5214C22.2718 31.5484 22.0789 31.9649 21.2768 33.8045C20.7368 35.0424 20.2895 36.0837 20.2818 36.1184C20.2548 36.2187 20.5787 36.3074 21.3886 36.427C21.5544 36.454 22.5494 36.4809 23.7257 36.4964L25.7735 36.5195L25.6501 36.9437C24.2695 41.6257 19.9848 44.8999 14.736 45.2933C14.439 45.3126 14.0495 45.3318 13.8682 45.3318H13.5404L12.53 47.6574C11.6623 49.6435 11.5273 49.9829 11.5851 50.0022C11.8474 50.0986 12.4336 50.1333 13.7911 50.1333C15.5266 50.1333 16.3712 50.0562 17.802 49.7631C23.6447 48.5637 28.5002 44.8459 30.6984 39.8786C31.1226 38.9222 31.6201 37.3487 31.7089 36.6892L31.7358 36.5002H36.1208L36.1362 36.5851C36.4525 38.1354 36.7957 39.1806 37.3896 40.4147C39.1752 44.1324 42.5228 47.1676 46.6686 48.8336C49.1861 49.8419 51.8829 50.3261 54.5939 50.2567C55.7277 50.222 56.6302 50.0947 56.5839 49.9752C56.5453 49.8749 54.6248 45.4668 54.6132 45.4553C54.6016 45.4437 54.2044 45.4283 53.7223 45.409C52.3686 45.355 51.3505 45.1969 50.2012 44.8691C48.4311 44.36 46.6802 43.4383 45.3381 42.3121C43.6489 40.889 42.4263 39.1189 41.7784 37.1559C41.7052 36.9322 41.6319 36.6969 41.6203 36.6275L41.5933 36.5041L43.2439 36.4925C44.1502 36.4848 44.9216 36.4655 44.9524 36.4501C45.0025 36.4231 46.9771 31.9456 46.9771 31.8569C46.9771 31.799 46.4796 31.6525 46.0284 31.5792C45.6967 31.5252 45.2764 31.5098 43.5987 31.4982L41.5663 31.4789L41.6434 31.2051C42.7696 27.2174 46.2251 24.0511 50.6795 22.9289C51.6629 22.682 52.6193 22.5548 53.8611 22.5046C54.6016 22.4738 54.6942 22.4622 54.7405 22.4005C54.7713 22.3581 55.2264 21.3361 55.7509 20.129C56.3949 18.6519 56.6919 17.923 56.6649 17.9037C56.58 17.8574 56.0401 17.761 55.6159 17.7186C54.9988 17.653 53.1978 17.6646 52.4034 17.734C47.8603 18.139 43.7646 19.9709 40.6947 22.9636C38.8204 24.7916 37.5053 26.8433 36.6954 29.2113C36.4872 29.809 36.2365 30.75 36.1594 31.2051L36.1131 31.4867H31.8026L31.7871 31.398C31.7756 31.3517 31.7331 31.1318 31.6869 30.9082C31.0505 27.7458 29.2534 24.672 26.7157 22.4082C23.8271 19.8282 20.2251 18.2122 16.2605 17.7213C15.0688 17.5759 13.5327 17.5258 12.5196 17.6029Z" fill="white"/>
</svg>
