<svg width="69" height="69" viewBox="0 0 69 69" fill="none" xmlns="http://www.w3.org/2000/svg">
<circle cx="34.5" cy="34.5" r="34.5" fill="#55DDFF"/>
<path fill-rule="evenodd" clip-rule="evenodd" d="M29.7647 10.7803C27.0103 13.7942 25.4763 17.7288 25.4625 21.8153C25.4523 24.4985 26.1658 27.1346 27.5276 29.445C28.3235 30.9537 28.5171 31.6003 28.1944 31.6003C27.6166 31.8857 27.0627 32.2173 26.538 32.5917C22.3265 35.224 19.6122 39.7031 19.2242 44.6613C18.6993 48.6441 19.9503 52.6564 22.6445 55.6317C22.9259 55.8816 23.1592 56.1811 23.3328 56.5153C23.3328 57.2912 20.3643 55.567 17.7184 53.4117C12.7625 49.3202 9.56 43.4813 8.76965 37.0963C8.48785 34.2188 8.61824 31.3157 9.15685 28.4751C9.80651 25.3911 11.0485 22.463 12.8138 19.854C16.47 14.352 22.0751 10.4464 28.4956 8.92674C29.0401 8.78779 29.5935 8.68696 30.152 8.625C30.6037 8.625 30.6037 8.66811 30.6037 9.27158C30.6037 9.87506 30.5176 10.0259 29.7647 10.7803ZM45.7477 10.9527C52.4952 14.5811 57.2865 21.0239 58.8266 28.5398C59.1675 30.2414 59.2904 31.9797 59.1923 33.7125C59.3392 36.4375 58.9368 39.1643 58.0092 41.7301C55.4696 49.1923 49.6969 55.1029 42.3059 57.8085C39.4449 58.8215 34.7339 59.5974 34.7339 59.037C34.7339 58.8646 35.0566 58.7137 35.8095 58.5198C39.6741 57.3303 42.9522 54.7305 44.9948 51.2349C45.3175 50.6961 45.3605 50.5668 45.1884 50.3513C45.0163 50.1357 44.8442 50.2435 43.9623 51.1918C42.0182 53.2793 39.3609 54.5566 36.5193 54.7696C34.3705 55.1838 32.1507 54.588 30.4961 53.1531C29.0372 51.6896 28.257 49.6806 28.345 47.6141C28.2383 45.4455 28.5902 43.2788 29.3775 41.256C30.5856 37.7354 33.1607 34.8523 36.5193 33.2599C36.7793 33.1897 37.0213 33.0648 37.2292 32.8935C37.0507 32.678 36.842 32.4883 36.6054 32.3331C35.4226 31.3476 34.3994 30.1843 33.5723 28.8847C32.3867 26.6236 31.7597 24.1107 31.7438 21.5567C31.8218 19.8888 32.111 18.2376 32.6043 16.6427C33.0656 14.4016 34.616 12.5407 36.7344 11.6855C38.2212 11.242 39.8308 11.6659 40.9076 12.7847C42.0836 13.9546 42.6687 15.5944 42.4995 17.2461C42.5917 19.2746 42.0257 21.2785 40.8861 22.9576C40.3484 23.7551 40.3483 24.1861 41.2088 24.8112C42.1464 25.6606 43.5897 25.6031 44.457 24.6819C46.0994 22.8509 46.8822 20.4038 46.6082 17.9574C46.5383 15.6376 45.7904 13.3894 44.457 11.4915C44.2294 11.2091 44.0545 10.8879 43.9408 10.5432C43.9408 10.1337 44.5431 10.2846 45.7477 10.9527Z" fill="white"/>
</svg>
