<svg width="68" height="68" viewBox="0 0 68 68" fill="none" xmlns="http://www.w3.org/2000/svg">
<circle cx="34" cy="34" r="34" fill="#EDF0F4"/>
<path d="M31.7336 33.7288L45.9003 41.8434C46.1321 41.9828 46.4211 41.9861 46.6561 41.8522C46.891 41.7182 47.0354 41.4679 47.0336 41.1974V26.2488C47.0371 25.9778 46.8925 25.7264 46.6565 25.5931C46.4206 25.4598 46.1307 25.4656 45.9003 25.6084L31.7336 33.7288Z" fill="#31CB9E"/>
<path d="M45.6 22.0158L35.9157 14.8928C35.712 14.7364 35.4439 14.6918 35.2006 14.7736C34.9573 14.8555 34.7707 15.0531 34.703 15.3008L31.167 31.1674L45.515 23.2341C45.737 23.1199 45.8833 22.898 45.9007 22.6489C45.918 22.3998 45.804 22.1597 45.6 22.0158Z" fill="#31CB9E"/>
<path d="M35.9043 52.5592L45.6 45.4362C45.8067 45.2909 45.923 45.0485 45.9068 44.7963C45.8906 44.5442 45.7443 44.3186 45.5207 44.2009L31.167 36.2676L34.703 52.1342C34.7626 52.3847 34.9441 52.5883 35.1861 52.6762C35.428 52.7641 35.6979 52.7244 35.9043 52.5706" fill="#31CB9E"/>
<path d="M28.0501 33.434L31.7335 16.2073C31.791 15.9153 31.6658 15.6175 31.4168 15.4545C31.1678 15.2914 30.8448 15.2955 30.6001 15.465L21.1651 22.7013C20.6808 23.0728 20.3979 23.6492 20.4001 24.2596V42.6196C20.3907 43.238 20.6744 43.8243 21.1651 44.2006L30.5548 51.4143C30.7995 51.5837 31.1225 51.5879 31.3715 51.4248C31.6204 51.2617 31.7457 50.964 31.6881 50.672L28.0501 33.434Z" fill="#31CB9E"/>
</svg>
