<svg width="68" height="68" viewBox="0 0 68 68" fill="none" xmlns="http://www.w3.org/2000/svg">
<circle cx="34" cy="34" r="34" fill="#EDF0F4"/>
<path fill-rule="evenodd" clip-rule="evenodd" d="M34.0103 16.4331L42.8251 30.2333L34.0103 35.3701L25.1973 30.2333L34.0103 16.4331ZM27.8958 29.5795L34.0104 20.0042L40.1267 29.5795L34.0104 33.1453L27.8958 29.5777V29.5795Z" fill="#273852"/>
<path d="M33.9975 38.4032L23.7739 32.4453L23.4942 32.8817C22.2905 34.7658 21.6156 36.9389 21.5403 39.1734C21.465 41.4078 21.9919 43.6216 23.066 45.5824C24.1402 47.5432 25.7218 49.179 27.6454 50.3186C29.5689 51.4582 31.7636 52.0595 33.9993 52.0595C36.2351 52.0595 38.4297 51.4582 40.3533 50.3186C42.2768 49.179 43.8586 47.5432 44.9326 45.5824C46.0066 43.6216 46.5336 41.4078 46.4583 39.1734C46.383 36.9389 45.7081 34.7658 44.5044 32.8817L44.2248 32.4453L33.9975 38.405V38.4032Z" fill="#273852"/>
</svg>
