<svg width="65" height="66" viewBox="0 0 65 66" fill="none" xmlns="http://www.w3.org/2000/svg">
<path d="M18.9021 28.2773H18.9314L19.4287 28.4556L19.8967 28.6338L20.394 28.7823L20.862 28.9902L21.3593 29.1684L21.8274 29.3466L22.3247 29.5249L22.7927 29.7031L23.2608 29.8813L23.7288 30.0595L24.2261 30.2377L24.6942 30.4457L25.1915 30.5942L25.6595 30.7724L26.1568 30.9506L26.6249 31.1585L27.1222 31.3367L27.5902 31.4853L28.0583 31.6635L28.5556 31.8714L29.0529 32.0496V31.2773V31.1585V30.5348V30.0892V29.7625V28.9902V28.2476V27.4754V26.7328V25.9308V25.1882V25.0991H28.4678H27.912H27.8535H27.2392H26.7711H26.5956H25.9813H25.6595H25.3377H24.6942H24.5187H24.0799H23.4656H23.4363H23.4071H22.822H22.2954H22.2077H21.5641H21.1546H20.043H18.9314H18.9021H18.2585L17.7905 25.3367L16.6789 25.9308L15.538 26.5546L14.3972 27.1189L13.3148 27.713L12.1739 28.3367L11.0331 28.9011L9.92145 29.5249L8.78059 30.1189L7.66898 30.6833L6.55737 31.307L5.53352 31.8417L5.4165 48.8615L6.55737 49.6635L7.66898 50.4655L8.78059 51.2377L9.92145 52.0694L11.0331 52.8714L12.1739 53.6734L12.6712 54.0595L13.3148 53.2278L14.3972 51.7427L14.5142 51.5942L14.3972 51.5051L13.3148 50.7031L12.1739 49.9011L11.0331 49.0991L9.92145 48.2971L8.78059 47.4655L8.48806 47.2872L8.57582 33.5051L8.78059 33.3863L9.92145 32.8219L11.0331 32.2575L12.1739 31.6932L13.3148 31.1288L14.3972 30.5348L15.538 29.9704L16.6789 29.4358L17.7905 28.8417L18.9021 28.2773Z" fill="url(#paint0_linear_312_4495)"/>
<path d="M38.268 60.7424L37.3319 61.1285L36.2788 61.5741L35.2257 61.9899L34.1726 62.4354L33.7046 62.6137L33.1488 62.3463L32.0956 61.782L31.0425 61.277L30.0187 60.7127L28.9656 60.178L27.9125 59.6731L26.8594 59.1087L25.8063 58.5741L24.7532 58.0394L23.7001 57.5048L22.647 56.9404L21.6524 56.4355L20.5993 55.9008L20.4822 55.8414V41.9404H19.5462H18.493H17.4399V57.7424L18.493 58.2473L19.5462 58.782L20.5993 59.3463L21.6524 59.8513L22.647 60.4156L23.7001 60.9503L24.7532 61.485L25.8063 62.0196L26.8594 62.5543L27.9125 63.0889L28.9656 63.6236L30.0187 64.1879L31.0425 64.6929L32.0956 65.2572L33.1488 65.7622L33.5583 65.9998L34.1726 65.7028L35.2257 65.3166L36.2788 64.8711L37.3319 64.4255L38.3558 64.0097L39.4089 63.5939L38.3558 60.9206L38.268 60.7424Z" fill="url(#paint1_linear_312_4495)"/>
<path d="M56.9602 41.4359L57.0187 47.9705L56.7554 48.2081L54.971 49.4557L53.1865 50.7626L51.4021 52.0695L49.6177 53.3468L47.8332 54.624L46.0781 55.9309L44.2936 57.2082L43.2405 57.9804L42.5092 57.4161L40.754 56.02L38.9696 54.6537L37.1852 53.2577L35.43 51.8913L35.1082 51.6537V44.6141L35.43 44.3171L37.1852 42.4161L38.9696 40.5448L40.754 38.6438L42.5092 36.7725L44.2351 34.9309H42.5092H40.754H38.9696H37.1852H35.43H33.6163H31.8319H30.0767H28.2923H26.5079H24.7527H22.9683L24.7527 36.8319L26.5079 38.7032L28.2923 40.5745L30.0767 42.4755L31.8319 44.3468L32.0952 44.6141V53.1388L33.6163 54.3567L35.43 55.7527L37.1852 57.119L38.9696 58.5151L40.754 59.8814L42.5092 61.2775L43.1528 61.7824L44.2936 60.9507L46.0781 59.7032L47.8332 58.3963L49.6177 57.0893L51.4021 55.8418L53.1865 54.5349L54.971 53.228L56.7554 51.9804L58.5398 50.6735L60.0025 49.5745L60.295 41.5547L58.5398 41.4953L56.9602 41.4359Z" fill="url(#paint2_linear_312_4495)"/>
<path d="M8.31263 26.2275H8.5174L8.54666 17.4949L9.68752 16.7523L11.1209 15.8909L12.5251 15.0295L13.9292 14.1384L15.3333 13.277L16.7667 12.386L18.1416 11.5246L19.575 10.6632L20.9792 9.7721L22.4126 8.88101H22.4418L23.7874 9.68299L25.2208 10.485L26.625 11.3166L28.0291 12.1186L29.4333 12.9206L30.8374 13.7226L32.2415 14.5543L33.6164 15.3563L33.6749 15.2374L35.0791 12.6533L33.6749 11.8216L32.2415 11.0196L30.8374 10.2176L29.4333 9.41566L28.0291 8.58398L26.625 7.782L25.2208 6.98002L23.7874 6.14833L22.4126 5.34635L22.354 5.31665L20.9792 6.14833L19.575 7.03942L18.1416 7.93051L16.7667 8.8216L15.3333 9.68299L13.9292 10.5444L12.5251 11.4355L11.1209 12.2968L9.68752 13.1879L8.31263 14.0493L6.87924 14.9107L5.5336 15.7721L5.4751 26.1978H6.87924L8.31263 26.2275Z" fill="url(#paint3_linear_312_4495)"/>
<path d="M63.3082 18.2376L62.5769 17.6435L61.8456 17.0494L61.1143 16.4257L60.383 15.8316L59.6516 15.2376L58.8911 14.6435L58.1597 14.0494L57.4284 13.4554L56.6678 12.8316L56.112 12.4158L55.9073 12.6534L55.1759 13.5742L54.4446 14.5247L54.2398 14.7623L54.4446 14.9702L55.1759 15.594L55.9073 16.2178L56.6678 16.8415L57.4284 17.4653L58.1597 18.1187L58.8911 18.7425L59.6516 19.3663L60.0027 19.6633L60.0319 33.7128L59.6516 33.9801L58.8911 34.4554L58.1597 34.9306L57.4284 35.4059L56.6678 35.8811L55.9073 36.3564L55.1759 36.8316L54.4446 37.3069L53.7133 37.7821L52.982 38.2574L52.2506 38.7326L51.4901 39.2079L50.7587 39.6831L50.0274 40.1583L49.2961 40.6336L48.5355 41.1088L47.8042 41.5841L48.5355 42.7722L49.2961 43.9603L49.4131 44.1682L50.0274 43.7821L50.7587 43.3366L51.4901 42.8613L52.2506 42.4158L52.982 41.9108L53.7133 41.4653L54.4446 40.99L55.1759 40.5445L55.9073 40.0692L56.6678 39.6237L57.4284 39.1187L58.1597 38.6732L58.8911 38.198L59.6516 37.7524L60.383 37.2772L61.1143 36.8316L61.8456 36.3267L62.5769 35.8811L63.3082 35.4059V18.2376Z" fill="url(#paint4_linear_312_4495)"/>
<path d="M39.1743 26.6139V27.3861V28.1584V28.9307V29.7327V30.5347V31.3069V32.0792V32.6733L39.4084 32.5842L40.403 32.198L41.3976 31.7822L42.3629 31.396L43.3575 30.9802L44.3521 30.5644L45.3175 30.1782L46.3121 29.7624L47.3067 29.3762L48.272 28.9604L49.2666 28.5743L50.232 28.1584V27.3861V27.0891V25.0396V9.77228L49.1203 9.05941L47.9795 8.40594L46.8386 7.75248L45.727 7.0396L44.5861 6.38614L43.4453 5.73267L42.3337 5.0495L41.1928 4.36634L40.0812 3.68317L38.9403 3.0297L37.7995 2.34653L36.6878 1.66337L35.5762 1.0099L34.4354 0.356436L33.8211 0L33.2945 0.29703L32.1536 0.920792L31.0128 1.51485L29.9304 2.16832L28.7895 2.79208L27.6487 3.38614L26.5078 4.0396L27.6487 4.69307L28.7895 5.34653L29.4916 5.79208L29.9304 5.55446L31.0128 4.9604L32.1536 4.33663L33.2945 3.74257L33.7333 3.50495L34.4354 3.92079L35.5762 4.57426L36.6878 5.22772L37.7995 5.91089L38.9403 6.59406L40.0812 7.24752L41.1928 7.93069L42.3337 8.61386L43.4453 9.26733L44.5861 9.92079L45.727 10.6337L46.8386 11.2871L47.2189 11.495V25.0396H46.9556H46.8386H46.3121H45.727H45.6685H44.9957H44.5861H44.3521H43.7085H43.4453H43.065H42.4214H42.3337H41.7779H41.1928H41.1343H40.4615H40.0812H39.8179H39.3206H39.2328" fill="url(#paint5_linear_312_4495)"/>
<path d="M39.1743 32.6732L50.2319 28.1584L39.1743 25.0396" fill="url(#paint6_linear_312_4495)"/>
<path d="M29.0531 32.6731V25.1582L18.9316 28.2176L29.0531 32.6434" fill="url(#paint7_linear_312_4495)"/>
<defs>
<linearGradient id="paint0_linear_312_4495" x1="17.2274" y1="25.108" x2="17.2274" y2="54.0476" gradientUnits="userSpaceOnUse">
<stop stop-color="#F6E93D"/>
<stop offset="0.13" stop-color="#F8E330"/>
<stop offset="0.35" stop-color="#F7C730"/>
<stop offset="0.64" stop-color="#F59C2E"/>
<stop offset="0.98" stop-color="#EB5E2C"/>
<stop offset="1" stop-color="#EB5C2C"/>
</linearGradient>
<linearGradient id="paint1_linear_312_4495" x1="28.4288" y1="41.9523" x2="28.4288" y2="65.9968" gradientUnits="userSpaceOnUse">
<stop stop-color="#F6E93D"/>
<stop offset="0.13" stop-color="#F8E330"/>
<stop offset="0.35" stop-color="#F7C730"/>
<stop offset="0.64" stop-color="#F59C2E"/>
<stop offset="0.98" stop-color="#EB5E2C"/>
<stop offset="1" stop-color="#EB5C2C"/>
</linearGradient>
<linearGradient id="paint2_linear_312_4495" x1="41.6302" y1="34.9279" x2="41.6302" y2="61.7913" gradientUnits="userSpaceOnUse">
<stop stop-color="#F6E93D"/>
<stop offset="0.13" stop-color="#F8E330"/>
<stop offset="0.35" stop-color="#F7C730"/>
<stop offset="0.64" stop-color="#F59C2E"/>
<stop offset="0.98" stop-color="#EB5E2C"/>
<stop offset="1" stop-color="#EB5C2C"/>
</linearGradient>
<linearGradient id="paint3_linear_312_4495" x1="20.2756" y1="5.32556" x2="20.2756" y2="26.2305" gradientUnits="userSpaceOnUse">
<stop stop-color="#F6E93D"/>
<stop offset="0.13" stop-color="#F8E330"/>
<stop offset="0.35" stop-color="#F7C730"/>
<stop offset="0.64" stop-color="#F59C2E"/>
<stop offset="0.98" stop-color="#EB5E2C"/>
<stop offset="1" stop-color="#EB5C2C"/>
</linearGradient>
<linearGradient id="paint4_linear_312_4495" x1="55.5679" y1="12.4098" x2="55.5679" y2="44.1712" gradientUnits="userSpaceOnUse">
<stop stop-color="#F6E93D"/>
<stop offset="0.13" stop-color="#F8E330"/>
<stop offset="0.35" stop-color="#F7C730"/>
<stop offset="0.64" stop-color="#F59C2E"/>
<stop offset="0.98" stop-color="#EB5E2C"/>
<stop offset="1" stop-color="#EB5C2C"/>
</linearGradient>
<linearGradient id="paint5_linear_312_4495" x1="38.367" y1="0" x2="38.367" y2="32.6822" gradientUnits="userSpaceOnUse">
<stop stop-color="#F6E93D"/>
<stop offset="0.13" stop-color="#F8E330"/>
<stop offset="0.35" stop-color="#F7C730"/>
<stop offset="0.64" stop-color="#F59C2E"/>
<stop offset="0.98" stop-color="#EB5E2C"/>
<stop offset="1" stop-color="#EB5C2C"/>
</linearGradient>
<linearGradient id="paint6_linear_312_4495" x1="44.6914" y1="25.0603" x2="44.6914" y2="32.691" gradientUnits="userSpaceOnUse">
<stop stop-color="#F6E93D"/>
<stop offset="0.13" stop-color="#F8E330"/>
<stop offset="0.35" stop-color="#F7C730"/>
<stop offset="0.64" stop-color="#F59C2E"/>
<stop offset="0.98" stop-color="#EB5E2C"/>
<stop offset="1" stop-color="#EB5C2C"/>
</linearGradient>
<linearGradient id="paint7_linear_312_4495" x1="23.8703" y1="30.7861" x2="26.3225" y2="24.1508" gradientUnits="userSpaceOnUse">
<stop stop-color="#F6E93D"/>
<stop offset="0.13" stop-color="#F8E330"/>
<stop offset="0.35" stop-color="#F7C730"/>
<stop offset="0.64" stop-color="#F59C2E"/>
<stop offset="0.98" stop-color="#EB5E2C"/>
<stop offset="1" stop-color="#EB5C2C"/>
</linearGradient>
</defs>
</svg>
