<svg width="68" height="68" viewBox="0 0 68 68" fill="none" xmlns="http://www.w3.org/2000/svg">
<path d="M34 68C52.7782 68 68 52.7782 68 34C68 15.2218 52.7782 0 34 0C15.2218 0 0 15.2218 0 34C0 52.7782 15.2218 68 34 68Z" fill="#EDF0F4"/>
<path fill-rule="evenodd" clip-rule="evenodd" d="M17.5688 36.1875C17.5688 37.4708 18.3161 38.6862 19.8333 39.8864L36.9385 22.7812C37.8971 21.7471 38.267 20.5921 38.0405 19.3089C37.7697 17.9459 37.0199 16.7249 35.927 15.8667L18.7765 33.0171C18.3768 33.4403 18.0644 33.9381 17.8571 34.4821C17.6499 35.0261 17.5519 35.6057 17.5688 36.1875ZM25.9326 45.9856C24.4304 44.8005 23.668 43.57 23.6831 42.3019C23.6663 41.72 23.7643 41.1405 23.9715 40.5965C24.1787 40.0525 24.4912 39.5547 24.8909 39.1315L42.0413 21.9811C43.13 22.8386 43.8768 24.0565 44.1473 25.4157C44.3739 26.6989 44.004 27.8539 43.0453 28.888L25.9326 45.9856ZM32.0469 52.1C30.5296 50.8998 29.7824 49.6844 29.7899 48.4087C29.7731 47.8268 29.8711 47.2473 30.0783 46.7033C30.2855 46.1593 30.598 45.6615 30.9976 45.2383L48.1481 28.0879C49.2368 28.9453 49.9836 30.1633 50.2541 31.5224C50.4807 32.8057 50.1108 33.9607 49.1521 34.9948L32.0469 52.1Z" fill="url(#paint0_linear_323_4234)"/>
<defs>
<linearGradient id="paint0_linear_323_4234" x1="21.4884" y1="35.748" x2="36.9311" y2="48.3656" gradientUnits="userSpaceOnUse">
<stop stop-color="#7EB5FF"/>
<stop offset="0.9997" stop-color="#1A38F8"/>
</linearGradient>
</defs>
</svg>
