<svg width="68" height="68" viewBox="0 0 68 68" fill="none" xmlns="http://www.w3.org/2000/svg">
<circle cx="34" cy="34" r="34" fill="#EDF0F4"/>
<path d="M54.6758 40.0366C52.4003 47.8819 45.8765 53.7606 37.8376 55.2098V49.0815C39.2909 48.5279 40.5988 47.65 41.6616 46.5146C42.2521 45.8812 42.7567 45.173 43.1627 44.4081C43.9356 42.951 44.3356 41.3252 44.327 39.6759C44.327 34.2582 40.4159 32.0921 36.749 30.4857L34.8922 29.665C32.9068 28.7746 31.3882 27.9825 31.3882 26.6267C31.3882 24.7527 33.0236 23.7456 34.5661 23.7456C36.2076 23.7456 37.1387 24.3513 38.1223 26.0563L38.8848 27.3774L43.7913 24.2288L43.152 23.0416C42.0267 20.8961 40.1266 19.2597 37.8379 18.4652V12.8442C38.3151 12.9257 38.7865 13.0303 39.264 13.1528C39.3105 13.1646 39.3629 13.176 39.4154 13.1865C39.4687 13.1966 39.5212 13.2102 39.5726 13.2272C39.5885 13.229 39.6041 13.233 39.619 13.239C39.7472 13.2726 39.8808 13.3029 40.0147 13.3436C45.4988 14.9389 50.1244 18.6475 52.8739 23.6535C55.6235 28.6595 56.2716 34.5527 54.6758 40.0366Z" fill="#745DDF"/>
<path d="M38.3031 39.9734C38.3031 42.4413 36.0738 43.966 34.0134 43.966C31.5397 43.966 30.1254 41.9231 29.8518 40.0256L29.619 38.3784L23.6824 40.0501L23.9516 41.3773C24.8013 45.562 27.6592 48.5714 31.5414 49.4792V55.4101C30.4882 55.2868 29.4455 55.0864 28.4217 54.8104C28.2763 54.7768 28.1363 54.7347 27.991 54.694C18.7996 52.0176 12.4758 43.5982 12.4668 34.0251V13.3336C12.4674 12.8645 12.8474 12.4844 13.3165 12.4839H31.5401V18.409C29.4076 19.0265 27.5906 20.4334 26.4589 22.3434C25.7331 23.6137 25.3556 25.0531 25.3646 26.516V26.6324C25.4221 31.4639 28.9732 33.4836 32.3258 35.0026L34.0029 35.7301L34.1426 35.7941C36.8016 37.0108 38.3031 37.808 38.3031 39.9734Z" fill="#2EB6EA"/>
<path d="M44.3272 39.676C44.3358 41.3252 43.9359 42.9508 43.1633 44.4079C42.7571 45.1729 42.2522 45.8812 41.6615 46.5147C40.5986 47.6498 39.2907 48.5275 37.8375 49.0809L37.8401 55.2389L36.1189 55.391C36.1189 55.391 32.4278 55.5017 31.5489 55.391L31.5398 49.4776C27.6579 48.5694 24.8 45.5604 23.9504 41.375L23.6812 40.0478L29.6177 38.3774L29.8506 40.0246C30.1255 41.9228 31.5398 43.966 34.0134 43.966C36.0738 43.966 38.3032 42.441 38.3032 39.9734C38.3032 37.8084 36.8014 37.0122 34.1417 35.7944L34.002 35.7305L32.3259 35.003C28.9733 33.4833 25.4229 31.4637 25.3647 26.6328V26.5164C25.3557 25.0534 25.7332 23.614 26.459 22.3438C27.5904 20.4336 29.4073 19.0264 31.5398 18.4087V12.4775C35.4217 12.4446 35.7188 12.4674 37.8375 12.8396V18.4669C40.1261 19.2615 42.0263 20.8979 43.1515 23.0434L43.7908 24.2305L38.8853 27.3765L38.1228 26.0554C37.1392 24.35 36.2078 23.7446 34.5667 23.7446C33.0241 23.7446 31.3887 24.7514 31.3887 26.6258C31.3887 27.9819 32.9077 28.7733 34.8927 29.664L36.7489 30.4858C40.4167 32.0922 44.3272 34.2573 44.3272 39.676Z" fill="white"/>
</svg>
