<svg width="73" height="69" viewBox="0 0 73 69" fill="none" xmlns="http://www.w3.org/2000/svg">
<path d="M35.9882 69C54.9608 69 70.3411 53.5538 70.3411 34.5C70.3411 15.4462 54.9608 0 35.9882 0C17.0156 0 1.63525 15.4462 1.63525 34.5C1.63525 53.5538 17.0156 69 35.9882 69Z" fill="url(#paint0_linear_312_11164)"/>
<path d="M19.0794 44.8487V28.6107L31.3411 37.8785V44.8487H34.4707V37.2242C34.4701 36.9409 34.4042 36.6615 34.278 36.4081C34.1518 36.1547 33.9689 35.9341 33.7436 35.7637L18.8733 24.5201C18.6013 24.3172 18.2787 24.194 17.9411 24.1643C17.6036 24.1345 17.2645 24.1993 16.9615 24.3515C16.6585 24.5036 16.4034 24.7372 16.2246 25.0262C16.0458 25.3153 15.9503 25.6484 15.9487 25.9886V44.8487H19.0794ZM52.9904 44.8487V28.6107L40.7287 37.8785V44.8487H37.5991V37.2242C37.5997 36.9409 37.6656 36.6615 37.7918 36.4081C37.918 36.1547 38.1009 35.9341 38.3262 35.7637L53.1965 24.5247C53.4682 24.322 53.7904 24.1989 54.1275 24.169C54.4646 24.139 54.8034 24.2034 55.1063 24.355C55.4091 24.5066 55.6643 24.7395 55.8434 25.0279C56.0225 25.3162 56.1186 25.6488 56.1211 25.9886V44.8487H52.9904Z" fill="white"/>
<defs>
<linearGradient id="paint0_linear_312_11164" x1="35.9882" y1="0" x2="35.9882" y2="69" gradientUnits="userSpaceOnUse">
<stop stop-color="#4FA89B"/>
<stop offset="1" stop-color="#6ACEBB"/>
</linearGradient>
</defs>
</svg>
