<svg width="68" height="68" viewBox="0 0 68 68" fill="none" xmlns="http://www.w3.org/2000/svg">
<rect width="68" height="68" rx="34" fill="white"/>
<path d="M29.2943 31.586L34.0001 41.8469L40.9897 37.8739H41.0031V29.9235L29.2943 31.586Z" fill="#2BBDF7"/>
<path d="M50.0302 23.9617L45.6684 22.3484L41.0028 21.973V29.9234V46.7449L48.0013 50.7223L53.5831 39.5229L50.0437 28.7481L50.0302 23.9617Z" fill="#2891F9"/>
<path d="M49.6239 21.973L48.0016 25.9504V50.6597L55.0001 46.6823V21.973H49.6239Z" fill="#2BBDF7"/>
<path d="M48.0013 18L41.0028 21.9729L48.0013 25.9504L54.9998 21.9729L48.0013 18Z" fill="#2B6DEF"/>
<path d="M34 33.8964L27.0015 26.1739L13 21.973V46.6823L19.9985 50.6597L22.0051 36.9845L27.0015 37.8738L34 41.8468V33.8964Z" fill="#2891F9"/>
<path d="M19.9985 18L13 21.9729L34 33.8964L37.173 32.0998L41.003 29.9234L19.9985 18Z" fill="#2B6DEF"/>
<path d="M19.9984 33.8964V50.6597L27.0014 46.6823V37.8738L19.9984 33.8964Z" fill="#2BBDF7"/>
</svg>
