<svg width="68" height="68" viewBox="0 0 68 68" fill="none" xmlns="http://www.w3.org/2000/svg">
<circle cx="34" cy="34" r="34" fill="#EDF0F4"/>
<path d="M19.1434 20.9668C17.9558 20.9668 17 21.9282 17 23.1102V33.8214V38.4305V44.6005C17 45.7825 17.9558 46.7439 19.1434 46.7439C20.331 46.7439 21.2868 45.7825 21.2868 44.6005V23.1102C21.2811 21.9282 20.3254 20.9668 19.1434 20.9668Z" fill="url(#paint0_linear_323_4434)"/>
<path d="M48.8563 20.9668C47.6743 20.9668 46.7129 21.9282 46.7129 23.1102V44.6005C46.7129 45.7825 47.6743 46.7439 48.8563 46.7439C50.0382 46.7439 50.9997 45.7825 50.9997 44.6005V23.1102C50.9997 21.9282 50.0382 20.9668 48.8563 20.9668Z" fill="url(#paint1_linear_323_4434)"/>
<path d="M29.0462 25.4346C27.8642 25.4346 26.9028 26.3903 26.9028 27.578V40.1328C26.9028 41.3148 27.8642 42.2762 29.0462 42.2762C30.2282 42.2762 31.1896 41.3148 31.1896 40.1328V27.578C31.1896 26.396 30.2282 25.4346 29.0462 25.4346Z" fill="url(#paint2_linear_323_4434)"/>
<path d="M38.9539 29.0425C37.772 29.0425 36.8105 30.0039 36.8105 31.1859V36.4849C36.8105 37.6669 37.772 38.6283 38.9539 38.6283C40.1359 38.6283 41.0973 37.6669 41.0973 36.4849V31.1859C41.0917 29.9982 40.1359 29.0425 38.9539 29.0425Z" fill="url(#paint3_linear_323_4434)"/>
<defs>
<linearGradient id="paint0_linear_323_4434" x1="17.3423" y1="171.122" x2="62.935" y2="170.991" gradientUnits="userSpaceOnUse">
<stop stop-color="#4400E2"/>
<stop offset="0.0411" stop-color="#7013C5"/>
<stop offset="0.0866" stop-color="#9A25AA"/>
<stop offset="0.1333" stop-color="#BC3494"/>
<stop offset="0.1804" stop-color="#D73F82"/>
<stop offset="0.2284" stop-color="#EA4876"/>
<stop offset="0.2776" stop-color="#F54C6E"/>
<stop offset="0.33" stop-color="#F94E6C"/>
<stop offset="1" stop-color="#FFD402"/>
</linearGradient>
<linearGradient id="paint1_linear_323_4434" x1="17.6592" y1="174.175" x2="63.2519" y2="174.045" gradientUnits="userSpaceOnUse">
<stop stop-color="#4400E2"/>
<stop offset="0.0411" stop-color="#7013C5"/>
<stop offset="0.0866" stop-color="#9A25AA"/>
<stop offset="0.1333" stop-color="#BC3494"/>
<stop offset="0.1804" stop-color="#D73F82"/>
<stop offset="0.2284" stop-color="#EA4876"/>
<stop offset="0.2776" stop-color="#F54C6E"/>
<stop offset="0.33" stop-color="#F94E6C"/>
<stop offset="1" stop-color="#FFD402"/>
</linearGradient>
<linearGradient id="paint2_linear_323_4434" x1="17.6573" y1="124.636" x2="63.2665" y2="124.329" gradientUnits="userSpaceOnUse">
<stop stop-color="#4400E2"/>
<stop offset="0.0411" stop-color="#7013C5"/>
<stop offset="0.0866" stop-color="#9A25AA"/>
<stop offset="0.1333" stop-color="#BC3494"/>
<stop offset="0.1804" stop-color="#D73F82"/>
<stop offset="0.2284" stop-color="#EA4876"/>
<stop offset="0.2776" stop-color="#F54C6E"/>
<stop offset="0.33" stop-color="#F94E6C"/>
<stop offset="1" stop-color="#FFD402"/>
</linearGradient>
<linearGradient id="paint3_linear_323_4434" x1="18.2163" y1="87.0569" x2="63.8744" y2="86.1084" gradientUnits="userSpaceOnUse">
<stop stop-color="#4400E2"/>
<stop offset="0.0411" stop-color="#7013C5"/>
<stop offset="0.0866" stop-color="#9A25AA"/>
<stop offset="0.1333" stop-color="#BC3494"/>
<stop offset="0.1804" stop-color="#D73F82"/>
<stop offset="0.2284" stop-color="#EA4876"/>
<stop offset="0.2776" stop-color="#F54C6E"/>
<stop offset="0.33" stop-color="#F94E6C"/>
<stop offset="1" stop-color="#FFD402"/>
</linearGradient>
</defs>
</svg>
