<svg width="68" height="68" viewBox="0 0 68 68" fill="none" xmlns="http://www.w3.org/2000/svg">
<circle cx="34" cy="34" r="34" fill="#EDF0F4"/>
<path d="M55.1653 42.1548C55.1666 36.6841 55.1666 31.2134 55.1653 25.7429C55.1874 25.1836 54.9065 24.6269 54.4576 24.2971C47.9386 19.5339 41.4195 14.77 34.9003 10.0053C34.5014 9.69338 33.9871 9.56923 33.4898 9.66483C33.1861 9.72441 32.9122 9.8764 32.6683 10.0593C26.1957 14.7902 19.7227 19.5209 13.2494 24.2514C12.7582 24.5928 12.4665 25.1542 12.4695 25.7524C12.4656 31.2216 12.4656 36.6907 12.4695 42.1594C12.461 42.7519 12.7683 43.3267 13.2555 43.6604C19.7281 48.3889 26.1995 53.1185 32.6695 57.8491C33.2887 58.3788 34.26 58.4206 34.8991 57.9043C41.3973 53.1594 47.8932 48.4123 54.3866 43.6628C54.8756 43.3333 55.192 42.7482 55.1648 42.1551" fill="#050708"/>
<path d="M31.5628 13.5802C31.7344 13.3857 31.9086 13.0824 32.2104 13.1228C33.2369 13.1289 34.2658 13.1067 35.292 13.1337C35.4698 13.2441 35.606 13.4098 35.758 13.552C35.7541 14.6113 35.7541 15.6709 35.758 16.7307C35.4525 16.7344 35.1461 16.748 34.8407 16.7271C34.8222 16.6522 34.7855 16.505 34.7677 16.4304C34.7677 15.6393 34.8363 14.8472 34.7701 14.0574C34.0158 14.0585 33.2619 14.0585 32.5085 14.0574C32.5049 14.3234 32.5036 14.5909 32.5012 14.857C32.1836 14.857 31.8648 14.857 31.546 14.8545C31.5482 14.4311 31.5015 14.0007 31.5628 13.5802Z" fill="white"/>
<path d="M29.0032 14.873C29.3502 14.8597 29.6972 14.8597 30.0455 14.8682C30.0503 16.3336 30.0564 17.7979 30.0418 19.2621C29.7106 19.2694 29.3796 19.2694 29.0496 19.2669C28.9395 17.8078 29.0275 16.3373 29.0032 14.873Z" fill="white"/>
<path d="M37.8309 16.4475C38.755 16.4354 39.6777 16.439 40.6013 16.4451C40.6062 16.7836 40.6062 17.1209 40.6013 17.4592C39.6772 17.4689 38.7531 17.4725 37.829 17.4567C37.8256 17.1207 37.8256 16.7824 37.829 16.4475" fill="white"/>
<path d="M32.2275 16.9468C32.6003 16.9383 32.9732 16.9395 33.3462 16.9395C33.703 17.6336 34.1507 18.2812 34.4405 19.0083C34.0984 19.0244 33.755 19.0244 33.4128 19.0256C33.0062 18.3391 32.6137 17.6445 32.2275 16.9468Z" fill="white"/>
<path d="M36.0338 18.1668C36.3563 18.1595 36.6787 18.1607 37.0026 18.1656C37.8805 19.5274 38.7339 20.9053 39.6184 22.264C39.6184 22.6774 39.6184 23.0908 39.6111 23.5043C39.5152 23.487 39.3265 23.4539 39.2322 23.4381C38.4817 22.3194 37.7913 21.1609 37.0493 20.0374C37.0372 21.302 37.053 22.5665 37.0408 23.8311C36.7047 23.8373 36.3679 23.8373 36.0304 23.8311C36.0262 21.9437 36.0202 20.0551 36.0338 18.1668Z" fill="white"/>
<path d="M40.0416 18.9329C40.385 18.9256 40.7296 18.9256 41.073 18.9354C41.0754 19.259 41.0754 19.5842 41.073 19.9081C40.7296 19.9166 40.385 19.9166 40.0428 19.9105C40.0404 19.5853 40.0404 19.2595 40.0428 18.9329" fill="white"/>
<path d="M23.0655 19.2531C23.3365 19.2482 23.6076 19.2494 23.8785 19.2519C24.602 19.2032 25.3243 19.2176 26.048 19.2592C26.0504 19.5731 26.048 19.8883 26.0456 20.2022C24.9755 20.8447 23.9473 21.5573 22.862 22.172C22.542 22.0504 22.2978 21.7944 22.0366 21.5809C22.7467 21.148 23.442 20.6918 24.1594 20.2711C23.7963 20.2526 23.4323 20.255 23.0692 20.2514C23.0629 19.9177 23.0617 19.5849 23.0655 19.2531Z" fill="white"/>
<path d="M31.6255 19.626C31.9579 19.6163 32.2913 19.6175 32.6225 19.626C32.631 19.9596 32.631 20.2918 32.6225 20.6255C32.2902 20.6352 31.9578 20.6356 31.6255 20.6267C31.6177 20.293 31.6177 19.9595 31.6255 19.626Z" fill="white"/>
<path d="M26.7465 20.602C27.2789 21.4089 27.7952 22.227 28.3345 23.029C28.873 22.2172 29.3929 21.3931 29.9362 20.585C29.9362 21.12 29.9717 21.6606 29.9252 22.1951C29.4323 23.0399 28.862 23.8383 28.3309 24.66C27.8085 23.8519 27.2553 23.0608 26.7599 22.2369C26.7037 21.6946 26.7441 21.1465 26.7465 20.602Z" fill="white"/>
<path d="M41.4834 20.7386C43.0812 20.7313 44.6791 20.7317 46.2771 20.7398C46.2771 21.0635 46.2771 21.3886 46.2757 21.7125C44.6789 21.7163 43.0815 21.7167 41.4834 21.7138C41.482 21.3886 41.481 21.0627 41.4834 20.7386Z" fill="white"/>
<path d="M33.0256 22.0039C33.3469 21.9979 33.6693 21.9979 33.992 22.0015C34.0081 23.419 33.992 24.838 34.0005 26.2573C33.851 26.3995 33.7026 26.5442 33.5567 26.6889C32.4493 26.7011 31.342 26.6889 30.2358 26.695C30.0899 26.5552 29.9403 26.4214 29.809 26.2707C29.7526 25.8366 29.7941 25.3937 29.7929 24.9574C30.101 24.955 30.41 24.955 30.72 24.9574C30.7285 25.2077 30.7272 25.4577 30.7236 25.7079C31.4853 25.7938 32.2528 25.7322 33.0181 25.7507C33.022 24.502 33.0098 23.2512 33.0256 22.0039Z" fill="white"/>
<path d="M48.4736 26.1943C48.4636 25.1242 48.4636 24.0537 48.4736 22.9825C48.8085 22.9752 49.1431 22.974 49.4792 22.9825C49.49 24.0525 49.49 25.1235 49.4792 26.1955C49.1441 26.2011 48.8094 26.1999 48.4746 26.1955" fill="white"/>
<path d="M43.7022 23.7906C44.3345 23.7846 44.9702 23.6863 45.5991 23.7882C46.011 25.1311 46.3644 26.4946 46.7739 27.8399C46.4502 27.8424 46.1251 27.8424 45.8012 27.8424C45.4921 26.7989 45.2285 25.7429 44.9097 24.7016C44.7319 24.704 44.5541 24.7065 44.3761 24.7077C44.1113 25.7587 43.7925 26.7937 43.5189 27.8409C43.1925 27.842 42.8663 27.8416 42.5403 27.8397C42.9418 26.4946 43.3185 25.1403 43.7022 23.7906Z" fill="white"/>
<path d="M16.6703 24.3037C18.1272 24.2952 19.5854 24.2916 21.0421 24.3037C21.0506 24.6386 21.0506 24.972 21.0433 25.3069C19.5842 25.3202 18.127 25.3166 16.6688 25.3081C16.6642 24.9732 16.6642 24.6364 16.6703 24.3025" fill="white"/>
<path d="M21.729 24.3045C22.0602 24.3021 22.3912 24.3009 22.7236 24.3045C22.7309 24.6406 22.7309 24.9777 22.7236 25.3138C22.3912 25.3174 22.0602 25.3162 21.729 25.3138C21.7251 24.9777 21.7251 24.6428 21.729 24.307" fill="white"/>
<path d="M25.3905 24.346C25.7154 24.3436 26.0417 24.3448 26.3666 24.3484C26.3764 25.1266 26.3715 25.907 26.3715 26.6859C26.0415 26.6884 25.7117 26.6896 25.3832 26.6859C25.3798 25.9077 25.3696 25.1254 25.3905 24.3448" fill="white"/>
<path d="M50.8577 25.0454C51.2317 25.0381 51.6069 25.0393 51.9809 25.0381C52.3513 25.7248 52.8015 26.3756 53.0772 27.1093C52.7368 27.1215 52.3941 27.1227 52.0532 27.1241C51.65 26.4337 51.266 25.7319 50.8574 25.0454" fill="white"/>
<path d="M36.1122 25.8783C36.4364 25.8759 36.7607 25.8759 37.0849 25.8783C37.0922 26.9451 37.0871 28.012 37.0871 29.0791C36.761 29.0815 36.4359 29.0828 36.11 29.0828C36.11 28.0149 36.1083 26.9456 36.1122 25.8771" fill="white"/>
<path d="M39.5332 27.1754C39.5293 26.8417 39.5293 26.5073 39.5332 26.1722C39.8605 26.1674 40.1898 26.1674 40.5179 26.1759C40.5179 26.5095 40.5203 26.8429 40.5154 27.1766C40.1886 27.1778 39.8588 27.1766 39.532 27.1766" fill="white"/>
<path d="M21.0249 28.6546C21.8109 28.0806 22.6499 27.5816 23.4568 27.0396C23.9903 27.0456 24.5224 27.0396 25.056 27.0468C24.2637 27.6135 23.4213 28.1028 22.6241 28.6619C23.4434 29.1769 24.2466 29.7166 25.0608 30.2365C24.5127 30.2462 23.9645 30.2401 23.4164 30.2413C22.6253 29.7044 21.8036 29.2095 21.0249 28.6546" fill="white"/>
<path d="M48.4747 27.7237C48.8106 27.7164 49.1466 27.7152 49.4839 27.7237C49.4922 28.0598 49.4912 28.3944 49.4815 28.7305C49.1466 28.7378 48.8108 28.7366 48.4759 28.7305C48.4686 28.3956 48.4686 28.0608 48.4759 27.7261" fill="white"/>
<path d="M13.9758 27.8609C15.6538 27.8512 17.3347 27.8475 19.0149 27.8633C19.0185 28.1809 19.0185 28.4998 19.0197 28.8186C18.2693 29.3103 17.5188 29.8045 16.7474 30.2607C16.4213 30.1418 16.1747 29.8716 15.8963 29.6734C16.3119 29.411 16.7338 29.1571 17.1365 28.8762C16.083 28.8713 15.0298 28.8823 13.9751 28.8701C13.9702 28.534 13.9702 28.1976 13.9751 27.8609" fill="white"/>
<path d="M28.3436 28.8346C29.7968 28.8407 31.2499 28.8273 32.7019 28.8407C32.7373 29.1712 32.7328 29.5047 32.6886 29.8341C31.2401 29.8402 29.7932 29.8353 28.3462 29.8365C28.3436 29.5014 28.3427 29.1674 28.3436 28.8346Z" fill="white"/>
<path d="M33.6512 28.8409C34.0007 28.8336 34.3489 28.8336 34.6986 28.8458C34.6998 29.172 34.6993 29.4974 34.6972 29.8219C34.3489 29.8317 33.9995 29.8317 33.6515 29.8256C33.6481 29.497 33.6481 29.169 33.6515 28.8409" fill="white"/>
<path d="M38.2218 30.2464C38.1763 29.9018 38.5296 29.7252 38.7111 29.4886C39.1379 29.4886 39.5644 29.4862 39.9914 29.4947C40.0012 29.8159 40.0012 30.1372 39.9961 30.4599C39.7266 30.4648 39.4552 30.4648 39.1858 30.4684V32.7568C40.4401 32.7653 41.6947 32.7519 42.9493 32.7641C42.953 33.089 42.953 33.4141 42.9445 33.7368C41.5318 33.7466 40.1177 33.7381 38.705 33.7417C38.5248 33.5063 38.179 33.3283 38.223 32.9864C38.2167 32.0734 38.2167 31.1601 38.223 30.2464" fill="white"/>
<path d="M42.9786 29.9422C43.3244 29.9301 43.6726 29.9301 44.0196 29.9422C44.0234 30.2733 44.0234 30.6044 44.0196 30.9356C43.6726 30.9478 43.3268 30.9478 42.9798 30.9356C42.9761 30.6032 42.9761 30.2722 42.9798 29.9398" fill="white"/>
<path d="M46.2834 29.9419C47.7452 29.9222 49.2058 29.9358 50.6676 29.9346C50.67 30.2719 50.67 30.6104 50.6661 30.9475C49.2056 30.9475 47.7452 30.9596 46.2844 30.9414C46.2795 30.6078 46.2795 30.2746 46.2844 29.9419" fill="white"/>
<path d="M26.0342 31.1081C26.8535 31.1069 27.6714 31.1081 28.4904 31.1069C28.4977 31.4474 28.4977 31.7879 28.4904 32.1283C27.6723 32.1296 26.8548 32.1296 26.0376 32.1283C26.0234 31.7879 26.0226 31.4478 26.0355 31.1081" fill="white"/>
<path d="M31.4364 31.1084C32.7216 31.1072 34.0069 31.1084 35.2919 31.106C35.7588 31.033 36.2264 31.5179 36.1673 31.979C36.1646 32.9231 36.1641 33.8682 36.1659 34.8143C36.0015 34.9921 35.8361 35.1674 35.6705 35.344C35.2449 35.344 34.8208 35.344 34.3952 35.3391C34.3917 35.0149 34.3913 34.6911 34.394 34.3678C34.6601 34.3642 34.9266 34.3617 35.1924 34.3581C35.1924 33.6149 35.1924 32.8705 35.1948 32.1273C33.9463 32.0157 32.6883 32.1089 31.4361 32.0758C31.4331 31.7515 31.4331 31.4291 31.4361 31.1084" fill="white"/>
<path d="M22.3787 31.4076C23.0066 31.404 23.6333 31.4003 24.2612 31.4101C24.6413 32.7675 25.0496 34.1177 25.4091 35.4815C25.0929 35.4815 24.7768 35.4815 24.4623 35.4839C24.1399 34.4365 23.8909 33.3697 23.5584 32.3274C23.3794 32.3383 23.2004 32.3517 23.0212 32.3653C22.7834 33.4151 22.4437 34.4377 22.1837 35.4827C21.8588 35.4827 21.5336 35.4827 21.2109 35.4791C21.5976 34.1218 21.9826 32.7627 22.3782 31.4076" fill="white"/>
<path d="M49.7714 32.6337C50.8657 32.6227 51.9615 32.6115 53.0544 32.6373C53.3304 32.8075 53.6417 33.0838 53.5816 33.4466C53.5816 34.2248 53.5768 35.0052 53.5816 35.7842C53.5719 36.1582 53.5889 36.5322 53.578 36.9062C53.5953 37.2117 53.5118 37.512 53.5293 37.8187C53.2178 37.8187 52.9063 37.8187 52.5948 37.815C52.5984 36.4096 52.5948 35.003 52.5972 33.5977C51.8329 33.5767 51.0693 33.5928 50.3052 33.5867C50.3037 33.8479 50.3037 34.1091 50.2991 34.3715C49.9776 34.3763 49.6562 34.378 49.3349 34.3763C49.3288 33.9459 49.3302 33.5142 49.3312 33.0838C49.4793 32.9355 49.6252 32.7857 49.7711 32.6337" fill="white"/>
<path d="M18.6299 32.6729H19.6464C19.6488 33.7409 19.6464 34.8078 19.6464 35.8749H18.625C18.6299 34.808 18.6262 33.74 18.6286 32.6729" fill="white"/>
<path d="M15.4403 33.5662C15.7739 33.5613 16.1074 33.571 16.4398 33.5932C16.4435 33.9095 16.4435 34.2263 16.4398 34.5435C16.1037 34.5472 15.7679 34.5484 15.4318 34.5435C15.4281 34.2172 15.4293 33.8923 15.4403 33.5674" fill="white"/>
<path d="M27.3848 39.4191C27.3761 37.5306 27.3757 35.6418 27.3836 33.7529C27.7148 33.748 28.0458 33.748 28.377 33.7553C29.1552 35.0099 29.9577 36.2509 30.7525 37.4968C31.0958 37.9394 30.8899 38.533 30.9451 39.048C30.8298 39.048 30.7145 39.0505 30.6005 39.0529C29.8855 37.9172 29.1387 36.8012 28.4544 35.6483C28.3306 36.9017 28.4322 38.166 28.3919 39.4243C28.055 39.4277 27.7194 39.4277 27.3848 39.4191Z" fill="white"/>
<path d="M31.7997 34.4793C32.1367 34.472 32.4739 34.4712 32.8113 34.4769C32.8162 35.3022 32.815 36.1276 32.8113 36.9527C32.4728 36.9588 32.1355 36.9588 31.7972 36.9503C31.7916 36.1264 31.7902 35.3022 31.7972 34.4793" fill="white"/>
<path d="M37.9136 35.5834C38.2436 35.5809 38.5745 35.5797 38.9058 35.5834C38.9119 35.9194 38.9119 36.2554 38.9058 36.5914C38.5745 36.5927 38.2438 36.5927 37.9136 36.5914C37.9097 36.2566 37.9097 35.921 37.9136 35.5846" fill="white"/>
<path d="M41.1305 35.627C42.1582 35.6136 43.1859 35.6209 44.2149 35.6233C44.2565 35.9237 44.2822 36.2291 44.2528 36.5333C44.1555 36.7308 43.9228 36.6522 43.7487 36.6707C42.8732 36.6449 41.9951 36.7211 41.1257 36.6221C41.1196 36.2892 41.1196 35.9582 41.1305 35.627Z" fill="white"/>
<path d="M45.2769 35.7697C45.6082 35.7648 45.9428 35.7427 46.274 35.794C46.3059 36.954 46.2874 38.1179 46.2813 39.2793C45.9465 39.2855 45.6121 39.2855 45.2782 39.2793C45.267 38.1099 45.267 36.9404 45.2782 35.7709" fill="white"/>
<path d="M36.1124 36.4568C36.4361 36.4568 36.7612 36.4544 37.0852 36.4568C37.0888 36.7904 37.0898 37.1251 37.0852 37.4611C36.7609 37.466 36.4367 37.466 36.1124 37.4611C36.11 37.1265 36.11 36.7904 36.1124 36.4556" fill="white"/>
<path d="M20.5208 37.17C21.676 37.045 22.8423 37.1442 24.0023 37.1075C24.3012 37.1037 24.6001 37.1172 24.8975 37.1479C24.9023 37.4852 24.9011 37.8237 24.8975 38.1608C23.4384 38.1583 21.9824 38.1681 20.5257 38.1559C20.517 37.8274 20.517 37.4993 20.5196 37.17" fill="white"/>
<path d="M13.977 37.9157C14.1354 37.7613 14.2947 37.6054 14.4542 37.451C14.8761 37.4486 15.2978 37.4474 15.7188 37.4559C15.7236 37.7747 15.7236 38.0947 15.7212 38.4135C15.4588 38.4196 15.1976 38.4208 14.9352 38.4233C14.9413 39.1837 14.9316 39.9439 14.9413 40.7044C16.1835 40.708 17.4259 40.6959 18.6681 40.7104C18.6742 41.0244 18.6742 41.3371 18.6718 41.6511C18.3639 41.6523 18.0548 41.6535 17.7477 41.6535C16.6453 41.6426 15.5415 41.672 14.4403 41.6401C14.2565 41.5358 14.0712 41.3641 13.9877 41.1693C13.9588 40.0855 13.9843 39.0001 13.9783 37.9157" fill="white"/>
<path d="M39.7485 38.548C39.9141 38.3923 40.0809 38.2365 40.2514 38.0845C41.3255 38.093 42.3999 38.0845 43.4741 38.0881C43.636 38.2425 43.7977 38.3984 43.9604 38.5516C43.9617 39.6148 43.9617 40.6776 43.9604 41.7401C43.6331 41.7425 43.3055 41.7401 42.9794 41.7315C42.9794 40.8376 42.9721 39.9448 42.9831 39.0509C42.2292 39.0497 41.4785 39.0509 40.7265 39.0497C40.7278 39.3218 40.7265 39.5942 40.7205 39.8663C40.398 39.8712 40.0755 39.8712 39.754 39.8699C39.7436 39.4293 39.746 38.9891 39.7472 38.548" fill="white"/>
<path d="M46.6454 40.4246C47.837 39.6484 49.0405 38.8925 50.2421 38.1338C50.5291 38.3252 50.8112 38.5263 51.0909 38.7274C50.2261 39.2786 49.362 39.8285 48.4985 40.3769C49.7677 40.3903 51.0371 40.3769 52.3075 40.3842C52.3099 40.7215 52.3099 41.0601 52.3075 41.3971C50.421 41.4033 48.5349 41.4033 46.649 41.3971C46.6442 41.072 46.6442 40.7471 46.6466 40.4244" fill="white"/>
<path d="M33.1594 40.6171C34.3552 39.8211 35.5889 39.0828 36.7844 38.2871C37.0687 38.4834 37.3498 38.6833 37.6392 38.8708C36.8123 39.452 35.9347 39.9585 35.092 40.5188C36.3539 40.541 37.6158 40.5164 38.8777 40.5322C38.8862 40.8792 38.8862 41.2275 38.8777 41.5745C36.9891 41.5854 35.1003 41.5781 33.2115 41.5781C33.1628 41.2598 33.1628 40.9374 33.1606 40.6159" fill="white"/>
<path d="M20.7465 39.7587C21.2713 40.5612 21.7976 41.3637 22.3163 42.1685C22.873 41.3737 23.371 40.5391 23.9228 39.7402C23.9337 40.2811 23.9252 40.8231 23.9301 41.364C23.3807 42.1685 22.8778 43.0048 22.3139 43.7983C21.7915 43.0011 21.285 42.1933 20.7405 41.4107C20.7351 40.8601 20.7295 40.3083 20.7465 39.7587Z" fill="white"/>
<path d="M26.4986 41.818C26.4865 41.4746 26.4853 41.1313 26.5047 40.7891C26.8347 40.7855 27.1669 40.7867 27.4969 40.8134C27.5042 41.148 27.5042 41.4828 27.4969 41.8178C27.1652 41.8205 26.8328 41.8217 26.4998 41.8178" fill="white"/>
<path d="M31.1738 42.3133C31.5087 42.3096 31.8445 42.3084 32.1794 42.3133C32.1879 43.5603 32.1794 44.8076 32.1842 46.0547C31.9464 46.0644 31.7083 46.0756 31.4705 46.0975C31.3944 46.0827 31.2424 46.0559 31.1663 46.0423C31.1738 44.8001 31.1602 43.5567 31.1738 42.3145" fill="white"/>
<path d="M38.1014 43.0957C38.7337 43.0835 39.3643 43.092 39.9961 43.0884C40.3836 44.4458 40.7715 45.8034 41.16 47.161C40.8339 47.161 40.5075 47.161 40.1826 47.1537C39.9054 46.1163 39.605 45.0849 39.3229 44.0487C39.1464 44.0378 38.9698 44.0302 38.7933 44.0217C38.5015 45.0689 38.2104 46.1158 37.9202 47.1625C37.5941 47.1625 37.269 47.1625 36.9441 47.1576C37.3412 45.8062 37.7362 44.4548 38.1014 43.0964" fill="white"/>
<path d="M23.7842 45.3448C24.9872 44.5721 26.1879 43.7947 27.4077 43.0479C27.6886 43.2453 27.9719 43.437 28.2501 43.639C27.377 44.1823 26.521 44.7538 25.6392 45.2823C26.9172 45.3066 28.1961 45.2786 29.4753 45.2971C29.4813 45.6332 29.4825 45.969 29.4728 46.3051C27.5782 46.3112 25.6835 46.3199 23.7888 46.3015C23.7793 45.9824 23.7805 45.6636 23.7842 45.3448Z" fill="white"/>
<path d="M33.7212 43.2942C34.0734 43.298 34.4255 43.2767 34.7747 43.2305C35.1881 43.9114 35.6759 44.5867 35.8882 45.3618C35.5582 45.3642 35.2285 45.3642 34.8999 45.3666C34.5118 44.6726 34.1189 43.9818 33.7212 43.2942Z" fill="white"/>
<path d="M47.6484 43.7099C47.993 43.699 48.3388 43.699 48.6843 43.7063C48.6858 44.036 48.6858 44.3663 48.6843 44.6972C48.3388 44.7058 47.9939 44.7058 47.6493 44.6912C47.6433 44.3636 47.6433 44.0375 47.6493 43.7099" fill="white"/>
<path d="M45.1088 46.3489C45.5258 45.6782 45.9721 45.027 46.3916 44.3575C46.4037 44.8541 46.4113 45.3521 46.3989 45.8499C46.411 46.0364 46.2751 46.1811 46.188 46.3319C45.726 47.015 45.2829 47.7115 44.8293 48.399C44.2836 47.5848 43.7552 46.7619 43.2155 45.9428C43.2131 45.3983 43.2082 44.8538 43.2216 44.3105C43.7513 45.1041 44.2518 45.9183 44.7938 46.7042C44.9468 46.6395 45.0156 46.4754 45.11 46.3489" fill="white"/>
<path d="M19.4438 45.384C20.3281 45.3545 21.2135 45.3691 22.0989 45.3755C22.1038 45.7028 22.1247 46.0321 22.0829 46.3589C21.2047 46.4017 20.3232 46.381 19.445 46.365C19.4414 46.0377 19.4414 45.7113 19.4438 45.384Z" fill="white"/>
<path d="M30.2236 47.5217C31.6411 47.5008 33.0577 47.5217 34.4752 47.5107C34.6374 47.6729 34.7995 47.836 34.9616 48C34.9555 49.0829 34.958 50.1671 34.9592 51.2522C34.817 51.4005 34.6764 51.5506 34.5373 51.7023C34.0835 51.712 33.6297 51.7133 33.1754 51.6999C33.1815 51.3932 33.1423 51.0805 33.2158 50.7801C33.4721 50.7532 33.7296 50.7629 33.9884 50.7604C33.9908 50.0015 33.9884 49.2434 33.9884 48.4857C32.7326 48.4784 31.4755 48.5017 30.2212 48.4735C30.2173 48.1559 30.2173 47.8386 30.2212 47.5217" fill="white"/>
<path d="M23.4136 47.882C23.7446 47.8772 24.0762 47.878 24.4082 47.8845C24.4131 48.2154 24.4135 48.5473 24.4094 48.8803C24.0758 48.8852 23.7434 48.8856 23.4123 48.8815C23.4078 48.5479 23.4078 48.2147 23.4123 47.882" fill="white"/>
<path d="M40.9528 48.4181C41.3281 48.1019 41.669 48.6289 41.9903 48.7828C41.9903 48.8123 41.9903 48.8723 41.9903 48.9017C41.1515 49.4426 40.2931 49.954 39.4726 50.5231L39.9485 50.5194C40.2009 50.5194 40.4544 50.5223 40.7089 50.5279C40.7114 50.8592 40.7114 51.1914 40.7065 51.5226C39.6739 51.5374 38.6414 51.5335 37.6088 51.525C37.5879 51.2123 37.5845 50.8983 37.5818 50.5868C38.6842 49.8329 39.8344 49.152 40.9516 48.4181" fill="white"/>
<path d="M25.2763 49.3375C26.6168 49.3327 27.9584 49.3254 29.2986 49.3412C29.3011 49.6709 29.3011 50.0013 29.2986 50.3322C27.957 50.3519 26.6165 50.3431 25.2751 50.337C25.269 50.0036 25.2702 49.67 25.2751 49.3375" fill="white"/>
<path d="M28.8486 51.8833C29.2263 51.8796 29.604 51.8784 29.9819 51.8857C30.3313 52.581 30.7961 53.2213 31.0648 53.9557C30.7263 53.9742 30.389 53.9742 30.0507 53.9766C29.6373 53.2862 29.2509 52.5793 28.8486 51.8833Z" fill="white"/>
<path d="M35.5434 52.9405C35.8734 52.9381 36.2031 52.9429 36.5317 52.9648C36.5378 53.2948 36.5353 53.6258 36.4937 53.9546C36.1786 53.9559 35.8642 53.9559 35.5507 53.9546C35.5385 53.6141 35.5385 53.2778 35.5431 52.9405" fill="white"/>
<path d="M33.2438 56.2224C33.2438 55.4522 33.2265 54.6808 33.256 53.9106C33.5884 53.9106 33.9218 53.9291 34.253 53.9593C34.2568 54.7135 34.2568 55.4681 34.253 56.2231C33.9165 56.2283 33.5801 56.2283 33.2438 56.2231" fill="white"/>
</svg>
