<svg width="69" height="69" viewBox="0 0 69 69" fill="none" xmlns="http://www.w3.org/2000/svg">
<circle cx="34.5" cy="34.5" r="34.5" fill="#E7EFF3"/>
<path fill-rule="evenodd" clip-rule="evenodd" d="M11.9113 30.0815C13.7369 20.4367 21.7221 12.9679 31.6435 11.6217C33.3585 11.382 36.9915 11.5111 38.8909 11.8799C43.4275 12.7466 48.001 15.2731 51.1544 18.5925C56.5209 24.2909 58.6416 32.0547 56.9081 39.6894C55.9123 44.0969 53.6625 48.0065 50.2693 51.2337C47.0605 54.2581 43.4275 56.1391 38.9278 57.0981C36.7517 57.5591 32.2521 57.5591 30.076 57.0981C26.9225 56.4157 24.1932 55.2724 21.5192 53.5205C19.7673 52.3586 16.7244 49.2974 15.5073 47.4901C12.0219 42.2712 10.7679 36.1671 11.9113 30.0815ZM50.8408 21.0452C47.4661 16.8775 42.2841 14.0744 36.807 13.4474C32.2704 12.9495 27.9551 13.8716 23.8058 16.2505C20.0069 18.4081 16.5768 22.373 14.9355 26.4854C11.7083 34.4705 13.4971 43.3224 19.5643 49.408C30.3156 60.2331 48.6648 56.3789 54.2156 42.1237C55.2668 39.4682 55.5987 37.4949 55.5987 34.2861C55.5803 32.0363 55.5065 31.2986 55.1008 29.6758C54.2709 26.2641 53.0169 23.7561 50.8408 21.0452Z" fill="black"/>
<path fill-rule="evenodd" clip-rule="evenodd" d="M16.245 35.6507C15.6918 32.8845 17.2224 29.9155 19.6198 29.0487C20.5234 28.7352 22.3307 28.6799 23.2712 28.9381C25.687 29.6204 27.3283 32.276 27.0701 35.1159C26.8672 37.1814 25.9636 38.6382 24.3223 39.5603C23.4371 40.0398 23.1974 40.0951 21.593 40.0951C19.5829 40.0951 18.8453 39.8185 17.7019 38.5829C16.8351 37.6793 16.5216 37.0338 16.245 35.6507ZM24.9124 35.5769C25.2996 33.9725 24.7464 32.1469 23.6584 31.3539C22.5519 30.5793 20.6524 30.5609 19.5828 31.3354C18.2919 32.2391 17.8493 34.8393 18.6976 36.499C20.0992 39.2837 24.1747 38.6751 24.9124 35.5769Z" fill="black"/>
<path d="M44.5707 29.1226C41.1037 30.5057 40.1263 35.614 42.745 38.7121C44.165 40.4087 47.5213 40.7222 49.0151 39.2838L49.4208 38.8965L49.4761 39.4129C49.5314 39.8739 49.5868 39.9108 50.4535 39.9108H51.3756L51.4309 36.9971L51.4862 34.1018H48.886H46.3042V35.0238V35.9459H47.8717C49.5683 35.9459 49.6236 35.9828 49.1442 36.9786C48.8122 37.661 47.632 38.3433 46.7468 38.3433C44.626 38.3433 43.3536 36.8495 43.3536 34.4337C43.372 31.7597 45.0871 30.2291 47.4291 30.7823C48.3328 31.0036 49.2548 31.7966 49.2548 32.3683C49.2548 32.5527 49.5314 32.6265 50.3613 32.6265H51.4493L51.1912 31.7966C50.6195 29.8603 49.1995 28.8829 46.8574 28.8091C45.8247 28.7722 45.253 28.846 44.5707 29.1226Z" fill="black"/>
<path d="M28.6006 34.4705V40.0029H29.5227H30.4447L30.4816 36.2778L30.5369 32.5342L31.9016 36.2778L33.2662 40.0214L34.1883 39.966L35.1104 39.9107L36.4566 36.2224L37.8028 32.5342L37.8581 36.2224L37.9135 39.9107L38.8909 39.966L39.8498 40.0214L39.8129 34.5258L39.7576 29.0303H38.4851H37.1943L35.7189 33.1243C34.9075 35.3926 34.1883 37.1814 34.133 37.0892C34.0592 37.0154 33.3953 35.2635 32.6577 33.1796C31.92 31.0957 31.2193 29.2885 31.127 29.1594C31.0164 29.0303 30.5 28.9381 29.7808 28.9381H28.6006V34.4705Z" fill="black"/>
</svg>
