<svg width="68" height="68" viewBox="0 0 68 68" fill="none" xmlns="http://www.w3.org/2000/svg">
<rect width="68" height="68" rx="34" fill="white"/>
<g clip-path="url(#clip0_1_63)">
<path d="M24.6699 19.1263C25.4693 18.2216 26.2045 17.4562 26.9047 16.8067C15.0831 16.4298 18.5257 24.9253 14.6513 33.5483C10.2167 43.4878 15.1764 47.2745 22.5635 48.4575C21.5319 47.2358 20.6901 45.8675 20.0661 44.3982C15.299 38.4079 17.2303 27.4884 24.6699 19.1263Z" fill="#EFE812"/>
<path d="M53.1153 29.7152C51.7193 33.3449 49.6995 36.7061 47.1461 39.6488C45.0991 42.1212 42.6471 44.2327 39.8933 45.8943C36.6951 47.9084 32.978 48.9579 29.192 48.9156C26.9816 48.9353 24.773 48.7822 22.5868 48.4575C23.8006 49.8985 25.3055 51.07 27.0039 51.8963C37.6935 57.0341 38.3645 47.4948 49.6727 42.6527C56.0211 39.933 56.0444 34.6211 53.1095 29.7152" fill="#EDE70A"/>
<path d="M39.8933 19.799C41.4408 20.0682 42.9319 20.5935 44.3045 21.3531C47.9003 23.3624 50.9301 26.2379 53.1153 29.7152C55.0408 24.3222 54.1423 20.0889 49.9352 19.3235C45.3023 18.4826 41.6846 18.2101 38.207 15.7977C33.9241 12.8402 30.1664 13.8028 26.9105 16.8125L27.6166 16.8415C32.1328 17.1082 36.4507 18.0013 39.87 19.7874" fill="#EDE70A"/>
<path d="M24.6699 19.1263C17.2303 27.4884 15.299 38.4079 20.0895 44.3982C18.9813 41.7979 18.4977 38.9768 18.6769 36.1585C18.8562 33.3401 19.6934 30.602 21.1223 28.1611C25.1542 21.4807 33.2473 18.5812 39.8933 19.799C36.4507 17.9897 32.1328 17.1198 27.6399 16.8531L26.9339 16.8183C26.2103 17.4794 25.4751 18.2216 24.6699 19.1263Z" fill="#DEC21C"/>
<path d="M44.3045 21.3415C42.9312 20.5859 41.4401 20.0645 39.8933 19.799C44.4212 22.1649 47.4262 26.1778 47.4262 32.5219C47.4 35.1999 46.6963 37.8283 45.3799 40.1652C44.0635 42.502 42.1768 44.4722 39.8933 45.8943C42.6484 44.2345 45.1008 42.1228 47.1462 39.6488C49.6996 36.7061 51.7193 33.3449 53.1153 29.7152C50.9317 26.2336 47.9017 23.354 44.3045 21.3415Z" fill="#E5CB22"/>
<path d="M39.8933 19.799C33.2473 18.5812 25.1542 21.4807 21.1223 28.1321C19.6874 30.5762 18.8469 33.3195 18.6676 36.1436C18.4883 38.9676 18.9752 41.7942 20.0895 44.3982C20.7112 45.8687 21.5532 47.2372 22.5868 48.4575C24.773 48.7822 26.9816 48.9353 29.192 48.9156C32.978 48.9579 36.6951 47.9084 39.8933 45.8943C42.1771 44.4726 44.0642 42.5025 45.3806 40.1656C46.6971 37.8286 47.4005 35.2 47.4262 32.5219C47.4262 26.1778 44.4212 22.1649 39.8933 19.799ZM39.1464 42.8789C36.6884 44.4479 33.7053 44.9859 30.8492 44.3752C27.9932 43.7645 25.4967 42.0548 23.9055 39.6198C20.6029 34.5573 22.2367 28.0219 27.1906 24.5425C32.7338 20.6282 39.8408 22.1707 42.4315 27.8015C44.958 33.2874 44.2637 39.6256 39.1464 42.8789Z" fill="#CCA727"/>
</g>
<defs>
<clipPath id="clip0_1_63">
<rect width="42" height="39.375" fill="white" transform="translate(13 14)"/>
</clipPath>
</defs>
</svg>
