<svg width="68" height="68" viewBox="0 0 68 68" fill="none" xmlns="http://www.w3.org/2000/svg">
<circle cx="34" cy="34" r="34" fill="#EDF0F4"/>
<rect x="18.646" y="18.5134" width="30.4246" height="30.4246" fill="white"/>
<path fill-rule="evenodd" clip-rule="evenodd" d="M32.2096 37.8856H28.9569L29.0122 44.2361H23.4805V23.4478H32.0436C32.9822 23.4391 33.9088 23.6593 34.7431 24.0894C35.555 24.4954 36.2802 25.0552 36.8784 25.7379C37.4711 26.4176 37.946 27.1917 38.2834 28.028C38.6295 28.8549 38.8064 29.7427 38.8034 30.639C38.8045 31.5608 38.6396 32.4752 38.3166 33.3385C38.0197 34.1909 37.5698 34.982 36.989 35.6729C36.4046 36.3403 35.694 36.8855 34.898 37.2771C34.0579 37.6764 33.1397 37.8842 32.2096 37.8856ZM31.7229 28.4706H28.957V32.896H31.8446C32.2111 32.8793 32.5515 32.701 32.7739 32.4092C33.146 31.928 33.3165 31.321 33.2496 30.7165C33.3123 30.0847 33.1257 29.4535 32.7296 28.9574C32.4705 28.6699 32.1091 28.4952 31.7229 28.4706Z" fill="#2D8EFF"/>
<path fill-rule="evenodd" clip-rule="evenodd" d="M16.4331 49.2809V18.4358C16.4331 17.3299 17.3297 16.4333 18.4356 16.4333H49.2806C49.8117 16.4333 50.321 16.6443 50.6966 17.0199C51.0721 17.3954 51.2831 17.9047 51.2831 18.4358V49.2809C51.2831 50.3868 50.3866 51.2833 49.2806 51.2833H18.4356C17.3297 51.2833 16.4331 50.3868 16.4331 49.2809ZM22.496 47.201H45.1983V47.1789C46.2956 47.1789 47.1886 46.2958 47.2008 45.1985V22.4962C47.2008 21.3903 46.3042 20.4937 45.1983 20.4937H22.496C21.39 20.4937 20.4935 21.3903 20.4935 22.4962V45.1985C20.4935 46.3045 21.39 47.201 22.496 47.201Z" fill="#2D8EFF"/>
<rect x="31.4019" y="40.3306" width="12.8226" height="3.9386" fill="#2D8EFF"/>
</svg>
