<svg width="68" height="68" viewBox="0 0 68 68" fill="none" xmlns="http://www.w3.org/2000/svg">
<rect width="68" height="68" rx="34" fill="white"/>
<g clip-path="url(#clip0_1_44)">
<path d="M21.5205 13.6972L33.0698 27.2202L40.8221 22.6629C40.8221 22.6629 31.4691 10.1629 28.975 11.0465C26.6297 11.9394 21.5205 13.6972 21.5205 13.6972Z" fill="black"/>
<path d="M41.1106 22.6629C41.1106 22.6629 42.8695 19.5751 43.7443 15.455C43.7443 15.455 52.5203 18.9799 49.1513 27.8061L41.1106 22.6629Z" fill="black"/>
<path d="M49.1513 27.8154L49.8865 37.0788L53.2462 36.6417C53.2462 36.6417 54.121 36.3441 53.9814 34.7351C53.8325 32.968 53.544 29.2942 53.544 29.2942C53.544 29.2942 53.6929 28.4107 51.6455 28.1224C49.1513 27.6666 49.1513 27.8154 49.1513 27.8154Z" fill="black"/>
<path d="M49.8772 37.0788L43.1487 42.5197L46.2198 48.5464C46.2198 48.5464 46.955 50.8995 49.142 48.2488C51.1895 45.5981 52.0643 45.161 51.9154 43.5427C51.7851 41.9244 51.3384 38.1019 49.8772 37.0788Z" fill="black"/>
<path d="M43.0091 42.5104L33.7957 38.3902L25.7549 54.7127C25.7549 54.7127 25.1686 55.8846 27.216 56.0334C29.2635 56.331 32.6231 57.0658 34.382 55.2987C36.1409 53.6897 43.0091 42.5104 43.0091 42.5104Z" fill="black"/>
<path d="M33.7957 38.2507L32.9209 27.369L13.033 28.699C13.033 28.699 11.8604 28.8478 12.0093 31.052C12.1582 33.991 12.4467 37.2276 12.4467 37.2276C12.4467 37.2276 12.2978 38.5483 14.9315 38.6971C17.5653 38.8366 33.5072 38.8366 33.7957 38.2507Z" fill="black"/>
</g>
<defs>
<clipPath id="clip0_1_44">
<rect width="42" height="45.4426" fill="white" transform="translate(12 11)"/>
</clipPath>
</defs>
</svg>
