<svg width="69" height="69" viewBox="0 0 69 69" fill="none" xmlns="http://www.w3.org/2000/svg">
<g clip-path="url(#clip0_312_11886)">
<path d="M34.5 69C53.5538 69 69 53.5538 69 34.5C69 15.4462 53.5538 0 34.5 0C15.4462 0 0 15.4462 0 34.5C0 53.5538 15.4462 69 34.5 69Z" fill="#3555F9"/>
<path d="M30.9639 14.2894C32.7967 13.9487 34.6726 13.9875 36.527 14.0802C38.666 14.3303 40.8093 14.7788 42.7758 15.6629C46.7034 17.3041 50.0324 20.1115 52.3129 23.7057C53.1603 24.9412 53.7296 26.3255 54.301 27.6991C54.8314 26.8538 55.3058 25.9741 55.7672 25.09C55.9656 24.6739 56.3818 24.3526 56.8669 24.3741C57.1896 24.3489 57.5096 24.4492 57.7603 24.6541C58.0109 24.8589 58.1729 25.1525 58.2124 25.4738C58.2663 25.9913 57.9407 26.4377 57.7273 26.8862C57.0545 28.2446 56.1855 29.4995 55.2864 30.7243C55.1204 30.9011 55.1894 31.1469 55.2088 31.3625C56.2093 37.2642 54.3053 43.5454 50.2494 47.9915C47.9112 50.5904 44.9647 52.5686 41.674 53.7487C37.8833 55.0748 33.7088 55.3745 29.7887 54.4474C24.1049 53.2161 19.0765 49.4686 16.2173 44.4963C15.592 43.4893 15.1931 42.3702 14.6993 41.3007C14.1602 42.1309 13.7031 43.0041 13.2438 43.8753C13.1359 44.0911 12.9735 44.2751 12.7727 44.409C12.5719 44.5429 12.3396 44.622 12.0989 44.6386C11.2773 44.6386 10.5313 43.7545 10.8612 42.9675C11.5684 41.3417 12.5366 39.8366 13.6212 38.4307C13.854 38.1871 13.8217 37.8421 13.7786 37.538C13.3759 34.9433 13.4931 32.2944 14.1236 29.7454C15.7839 22.578 21.7351 16.5922 28.9478 14.7271C29.6162 14.5697 30.2847 14.4036 30.9639 14.2894ZM25.8708 18.6234C22.0478 20.633 18.9708 23.9946 17.3752 27.9643C16.4523 30.362 15.9823 32.9409 16.1246 35.5069C16.5295 35.2029 16.9154 34.8746 17.2803 34.5236C19.4258 32.6089 21.9378 31.1254 24.5641 29.9437C29.4437 27.7249 34.8171 26.7697 40.156 26.511C38.3512 24.6394 36.3933 22.9122 34.5885 21.0406C35.1578 20.4153 35.7745 19.8374 36.3912 19.2595C37.092 19.8935 37.7388 20.5813 38.4245 21.2303C40.6455 23.4405 42.9332 25.5859 45.1175 27.8263C42.7888 30.1486 40.3996 32.4126 38.0709 34.7349C37.8746 34.9195 37.6688 35.0937 37.4542 35.2567C36.8677 34.6659 36.1863 34.1484 35.7163 33.4563C37.148 31.9555 38.7781 30.6402 40.1517 29.0855C37.6892 29.12 35.2397 29.4694 32.829 29.948C30.882 30.2952 29.0103 30.9529 27.1409 31.5803C23.2251 33.0466 19.6134 35.384 16.8599 38.5105C16.696 38.6722 16.7197 38.9116 16.7628 39.1143C17.0884 40.5115 17.703 41.8182 18.3757 43.0818C20.5966 47.0859 24.4348 50.1801 28.8443 51.5774C31.4232 52.3709 34.1745 52.6771 36.8569 52.304C40.6065 51.833 44.1224 50.2266 46.9331 47.7004C50.9545 44.1556 53.2099 38.7542 52.8628 33.452C52.438 33.7819 52.0585 34.157 51.6617 34.515C48.9645 36.8354 45.8622 38.6381 42.5106 39.8323C38.155 41.4495 33.5147 42.2861 28.868 42.4176C29.2734 42.9481 29.7736 43.3923 30.2459 43.8645C31.6366 45.2186 33.008 46.59 34.4204 47.9225C33.877 48.563 33.243 49.1214 32.6436 49.7079C32.042 49.2184 31.5224 48.6492 30.9617 48.1123C28.8615 46.0768 26.7829 44.0154 24.687 41.9713C24.3968 41.7072 24.1299 41.4187 23.8892 41.1088C24.797 40.1342 25.8406 39.2932 26.77 38.3402C28.3656 36.7985 29.9181 35.2114 31.5331 33.6891C32.1369 34.2756 32.7708 34.8363 33.3077 35.4853C31.8717 36.9731 30.3429 38.3725 28.8874 39.8409C30.483 39.9207 32.0571 39.6469 33.6398 39.4959C34.7826 39.3752 35.906 39.1164 37.0337 38.8814C42.8233 37.5445 48.4619 34.7953 52.3474 30.265C50.8596 23.8308 45.3892 18.535 38.8795 17.0386C34.5433 15.9367 29.8146 16.5642 25.8708 18.6234Z" fill="white"/>
</g>
<defs>
<clipPath id="clip0_312_11886">
<rect width="69" height="69" fill="white"/>
</clipPath>
</defs>
</svg>
