<svg width="68" height="68" viewBox="0 0 68 68" fill="none" xmlns="http://www.w3.org/2000/svg">
<rect width="68" height="68" rx="34" fill="white"/>
<g clip-path="url(#clip0_2_86)">
<path d="M40.6803 37.0192L51.0577 26.7713C51.4433 26.3908 51.749 25.9384 51.9572 25.4403C52.1654 24.9421 52.2719 24.4081 52.2707 23.869L52.2883 15.5858C52.2873 15.1609 52.1216 14.7526 51.8254 14.4452L31.9171 34.1228C31.5302 34.5027 31.223 34.9548 31.0135 35.4529C30.8039 35.951 30.6959 36.4854 30.6959 37.0251C30.6959 37.5647 30.8039 38.0991 31.0135 38.5972C31.223 39.0953 31.5302 39.5474 31.9171 39.9273L45.954 53.7887C46.3387 54.1679 46.7951 54.4684 47.2971 54.6729C47.799 54.8774 48.3367 54.9819 48.8795 54.9806C49.4223 54.9792 49.9594 54.872 50.4604 54.665C50.9613 54.458 51.4162 54.1553 51.799 53.7742C52.1818 53.393 52.4851 52.9409 52.6916 52.4437C52.898 51.9465 53.0036 51.4138 53.0022 50.8761C53.0008 50.3385 52.8926 49.8063 52.6836 49.3101C52.4747 48.8139 52.1691 48.3633 51.7843 47.9841L40.6803 37.0192Z" fill="#008C62"/>
<path d="M50.6652 14.0008H19.395C16.8666 14.0008 15.0003 15.8931 15.0003 18.4761V50.7931C14.9932 51.3422 15.0972 51.8872 15.3061 52.3959C15.5151 52.9045 15.8248 53.3666 16.2169 53.7548C16.6091 54.1429 17.0757 54.4494 17.5893 54.656C18.103 54.8627 18.6532 54.9653 19.2075 54.9579V54.9579C19.7623 54.9673 20.3132 54.8661 20.8276 54.6601C21.342 54.4541 21.8093 54.1477 22.2016 53.7591C22.5939 53.3704 22.9033 52.9076 23.1112 52.398C23.3191 51.8885 23.4213 51.3427 23.4118 50.7931V21.9734H44.2137L51.8313 14.4651C51.6787 14.3136 51.4967 14.1944 51.2963 14.1145C51.0959 14.0347 50.8812 13.996 50.6652 14.0008V14.0008Z" fill="#00E6A0"/>
</g>
<defs>
<clipPath id="clip0_2_86">
<rect width="38" height="40.9688" fill="white" transform="translate(15 14)"/>
</clipPath>
</defs>
</svg>
