<svg width="68" height="68" viewBox="0 0 68 68" fill="none" xmlns="http://www.w3.org/2000/svg">
<path d="M34 68C52.7272 68 68 52.7272 68 34C68 15.2762 52.7272 0 34 0C15.2762 0 5.6744e-07 15.2762 5.6744e-07 34C-0.00339943 52.7272 15.2728 68 34 68Z" fill="black"/>
<path fill-rule="evenodd" clip-rule="evenodd" d="M25.2792 16.3779H30.1752C30.3622 16.3779 30.5118 16.5309 30.5118 16.7179V23.8715C30.5118 24.0619 30.6648 24.2115 30.8518 24.2115H37.1384C37.3254 24.2115 37.4784 24.0619 37.4784 23.8715V16.7179C37.4784 16.5309 37.628 16.3779 37.8184 16.3779H42.711C42.898 16.3779 43.051 16.5309 43.051 16.7179V23.8715C43.051 24.0619 43.2006 24.2115 43.391 24.2115H49.375C49.5654 24.2115 49.715 24.3645 49.715 24.5515V29.4339C49.715 29.6243 49.5654 29.7739 49.375 29.7739H43.391C43.2006 29.7739 43.051 29.9269 43.051 30.1139V37.7129C43.051 37.8999 43.2006 38.0529 43.391 38.0529H49.375C49.5654 38.0529 49.715 38.2025 49.715 38.3929V43.2753C49.715 43.4623 49.5654 43.6153 49.375 43.6153H43.391C43.2006 43.6153 43.051 43.7683 43.051 43.9553V51.1089C43.051 51.2959 42.898 51.4489 42.711 51.4489H37.8184C37.628 51.4489 37.4784 51.2959 37.4784 51.1089V43.9553C37.4784 43.7649 37.3254 43.6153 37.1384 43.6153H30.8552C30.6682 43.6153 30.5152 43.7683 30.5152 43.9553V51.1089C30.5152 51.2959 30.3656 51.4489 30.1786 51.4489H25.2826C25.0956 51.4489 24.9426 51.2959 24.9426 51.1089V43.9553C24.9426 43.7649 24.793 43.6153 24.6026 43.6153H18.6186C18.4282 43.6153 18.2786 43.4623 18.2786 43.2753V38.3929C18.2786 38.2025 18.4282 38.0529 18.6186 38.0529H24.6026C24.793 38.0529 24.9426 37.8999 24.9426 37.7129V30.1139C24.9426 29.9269 24.793 29.7739 24.6026 29.7739H18.6186C18.4282 29.7739 18.2786 29.6243 18.2786 29.4339V24.5515C18.2786 24.3645 18.4282 24.2115 18.6186 24.2115H24.6026C24.793 24.2115 24.9426 24.0619 24.9426 23.8715V16.7179C24.9358 16.5309 25.0922 16.3779 25.2792 16.3779ZM37.4819 37.7164V30.114C37.4819 29.927 37.3289 29.774 37.1419 29.774H30.8553C30.6683 29.774 30.5153 29.927 30.5153 30.114V37.713C30.5153 37.9 30.6683 38.053 30.8553 38.053H37.1419C37.3289 38.0564 37.4819 37.9 37.4819 37.7164Z" fill="white"/>
</svg>
