<svg width="68" height="68" viewBox="0 0 68 68" fill="none" xmlns="http://www.w3.org/2000/svg">
<path fill-rule="evenodd" clip-rule="evenodd" d="M34 68C15.3 68 0 52.7003 0 33.8307C0.17 15.1311 15.3 -0.168593 34.17 0.00140308C52.87 0.1714 68 15.3011 68 34.3407C67.83 52.8703 52.7 68 34 68Z" fill="#EDF0F4"/>
<path fill-rule="evenodd" clip-rule="evenodd" d="M56.1963 29.6758C54.2591 19.0481 44.9638 11.2153 34.0385 11.2153C23.1131 11.2153 13.8179 19.0481 11.8807 29.6758L11.665 30.8589L31.8853 44.1744L40.5081 35.0917L40.5472 35.0492C41.198 34.3194 41.1555 33.1995 40.4413 32.5214L40.3989 32.4824C39.6691 31.8315 38.5491 31.874 37.8711 32.5882L31.3433 39.4638L15.7075 29.1674L15.7471 29.0099C17.8644 20.7804 25.3355 14.8514 34.0385 14.8514C43.1995 14.8514 50.9956 21.4209 52.6191 30.3279C52.7992 31.3157 53.7459 31.9705 54.7337 31.7904C55.7215 31.6104 56.3763 30.6636 56.1963 29.6758ZM36.2085 23.5305L27.2907 32.5625L27.2501 32.605C26.5858 33.322 26.6066 34.442 27.3071 35.1336L27.3496 35.1743C28.0666 35.8385 29.1866 35.8177 29.8782 35.1172L36.7168 28.1908L52.3668 38.3205L52.33 38.4679C50.2127 46.6974 42.7416 52.6264 34.0386 52.6264C24.74 52.6264 16.864 45.8614 15.3946 36.7815L15.3853 36.7287C15.2008 35.7665 14.2829 35.1197 13.3095 35.2772C12.3183 35.4377 11.6448 36.3712 11.8052 37.3624C13.5585 48.1965 22.9491 56.2625 34.0386 56.2625C44.964 56.2625 54.2592 48.4297 56.1964 37.802L56.4139 36.6088L36.2085 23.5305Z" fill="url(#paint0_linear_323_5684)"/>
<defs>
<linearGradient id="paint0_linear_323_5684" x1="-1.54077" y1="21.9824" x2="13.4779" y2="63.6701" gradientUnits="userSpaceOnUse">
<stop offset="0.119792" stop-color="#053F92"/>
<stop offset="1" stop-color="#4CDADF"/>
</linearGradient>
</defs>
</svg>
