<svg width="68" height="68" viewBox="0 0 68 68" fill="none" xmlns="http://www.w3.org/2000/svg">
<circle cx="34" cy="34" r="34" fill="black"/>
<path fill-rule="evenodd" clip-rule="evenodd" d="M44.6749 38.701C44.8279 39.8076 45.1297 40.6343 45.5786 41.182C46.4004 42.1791 47.8077 42.6774 49.8015 42.6774C50.9957 42.6774 51.9653 42.5462 52.7101 42.2833C54.1232 41.7791 54.8298 40.8425 54.8298 39.4735C54.8298 38.6734 54.4792 38.0545 53.7784 37.6162C53.0772 37.1891 51.9764 36.8114 50.4751 36.4825L47.9118 35.9077C45.3921 35.3377 43.6507 34.7188 42.6865 34.0505C41.0545 32.9333 40.2379 31.186 40.2379 28.8086C40.2379 26.6395 41.0268 24.8375 42.6041 23.4026C44.1819 21.9677 46.4987 21.25 49.555 21.25C52.1077 21.25 54.2847 21.9263 56.0867 23.2794C57.8892 24.6325 58.8338 26.596 58.9215 29.1704H54.0573C53.9697 27.7132 53.3343 26.6783 52.1512 26.0647C51.3628 25.6594 50.3822 25.4564 49.2102 25.4564C47.9065 25.4564 46.8658 25.7194 46.0881 26.2453C45.3103 26.7713 44.9214 27.5049 44.9214 28.4474C44.9214 29.3128 45.3045 29.9593 46.0716 30.3864C46.5646 30.6712 47.6159 31.0053 49.2267 31.3889L53.4002 32.3908C55.2298 32.8291 56.61 33.4151 57.5413 34.1493C58.9873 35.2888 59.7104 36.9373 59.7104 39.0952C59.7104 41.3084 58.8641 43.146 57.1715 44.6085C55.479 46.0711 53.0883 46.8021 49.9986 46.8021C46.844 46.8021 44.3626 46.0817 42.5552 44.6409C40.7474 43.2007 39.8438 41.2208 39.8438 38.701H44.6749Z" fill="white"/>
<path fill-rule="evenodd" clip-rule="evenodd" d="M14.875 13.8125V54.1875H49.9375V50.4688H19.125V17.5312H49.9375V13.8125H14.875Z" fill="white"/>
</svg>
