<svg width="69" height="69" viewBox="0 0 69 69" fill="none" xmlns="http://www.w3.org/2000/svg">
<g clip-path="url(#clip0_312_12005)">
<path d="M34.5 69C53.5538 69 69 53.5538 69 34.5C69 15.4462 53.5538 0 34.5 0C15.4462 0 0 15.4462 0 34.5C0 53.5538 15.4462 69 34.5 69Z" fill="#5B6DEE"/>
<path d="M28.6781 32.3843C27.4752 32.3781 26.2741 32.4821 25.0901 32.6948C26.0647 23.6817 33.5771 16.855 42.5212 16.855C47.9981 16.855 51.75 19.5374 51.75 25.0875C51.75 30.6399 47.2456 33.3223 40.6755 33.3223C35.8239 33.3223 33.5297 32.3864 28.6781 32.3864V32.3843ZM28.3245 35.6726C21.7544 35.6726 17.25 38.3571 17.25 43.9073C17.25 49.4575 21.0019 52.1399 26.4787 52.1399C35.4229 52.1399 42.9353 45.3153 43.9099 36.3C42.7259 36.5128 41.5248 36.6167 40.3219 36.6105C35.4703 36.6105 33.1739 35.6726 28.3245 35.6726Z" fill="white"/>
</g>
<defs>
<clipPath id="clip0_312_12005">
<rect width="69" height="69" fill="white"/>
</clipPath>
</defs>
</svg>
