<svg width="69" height="69" viewBox="0 0 69 69" fill="none" xmlns="http://www.w3.org/2000/svg">
<g clip-path="url(#clip0_312_11989)">
<path d="M34.5 69C53.5538 69 69 53.5538 69 34.5C69 15.4462 53.5538 0 34.5 0C15.4462 0 0 15.4462 0 34.5C0 53.5538 15.4462 69 34.5 69Z" fill="#0B1C26"/>
<path d="M34.5 58.2188C21.4159 58.1799 10.7812 47.5604 10.7812 34.5C10.7812 21.4396 21.4159 10.8201 34.5 10.7812C47.5841 10.8201 58.2188 21.4396 58.2188 34.5C58.2188 47.5604 47.5841 58.1929 34.5 58.2188ZM55.5342 38.2734C55.2838 38.8508 54.8171 39.3069 54.2341 39.544C53.6512 39.781 52.9985 39.7801 52.4163 39.5413C53.2551 40.4167 53.779 41.5919 53.779 42.8835C53.779 43.263 53.7273 43.6166 53.6497 43.9702C54.538 42.1676 55.1741 40.2507 55.5342 38.2756V38.2734ZM53.3348 38.5106C53.6505 38.5112 53.9535 38.3863 54.1771 38.1635C54.4007 37.9407 54.5267 37.6382 54.5272 37.3225C54.5278 37.0069 54.403 36.7039 54.1802 36.4803C53.9573 36.2566 53.6548 36.1307 53.3392 36.1301C53.1828 36.1297 53.028 36.1601 52.8834 36.2195C52.7388 36.2789 52.6074 36.3662 52.4966 36.4765C52.2728 36.6991 52.1465 37.0015 52.1457 37.3171C52.1448 37.6328 52.2694 37.9359 52.492 38.1597C52.7146 38.3835 53.017 38.5098 53.3327 38.5106H53.3348ZM53.8696 25.5149C54.4569 27.1585 54.6016 28.9277 54.2889 30.6448C53.9763 32.362 53.2174 33.9667 52.0885 35.2978C52.4607 35.0719 52.8866 34.9498 53.3219 34.9442C54.5661 34.9442 55.586 35.8973 55.6916 37.1263C55.7973 36.2638 55.862 35.4013 55.862 34.5129C55.8766 31.4026 55.1959 28.3283 53.8696 25.5149ZM52.6535 28.8442C52.6483 26.6594 51.7765 24.5659 50.2294 23.0232C48.6823 21.4805 46.5863 20.6148 44.4015 20.6159C42.2167 20.6148 40.1207 21.4805 38.5736 23.0232C37.0265 24.5659 36.1547 26.6594 36.1495 28.8442C36.1547 31.029 37.0265 33.1224 38.5736 34.6651C40.1207 36.2078 42.2167 37.0736 44.4015 37.0724C46.5856 37.0713 48.6803 36.2048 50.2269 34.6626C51.7735 33.1204 52.6461 31.0282 52.6535 28.8442ZM44.0737 42.8878C44.0737 41.0981 45.0656 39.4529 46.6548 38.6184C44.6416 39.0861 42.5332 38.9212 40.6173 38.1462C42.2464 39.3953 43.4529 41.1143 44.0737 43.0711C44.0867 42.9913 44.0737 42.9396 44.0737 42.8878ZM44.546 46.0747C44.5434 46.8669 44.4464 47.6559 44.257 48.4251C44.6495 47.6423 45.4494 47.1464 46.327 47.1464C46.4503 47.1457 46.5732 47.1587 46.6936 47.1852C45.6846 46.6666 44.8878 45.8127 44.4403 44.7702C44.5093 45.2015 44.5438 45.637 44.546 46.0747ZM48.9188 45.9303C49.7283 45.9314 50.5053 45.612 51.0799 45.0419C51.6545 44.4717 51.9799 43.6973 51.985 42.8878C51.985 41.2038 50.6093 39.8453 48.9188 39.8453C47.2283 39.8453 45.8677 41.2167 45.8677 42.8857C45.8677 44.5718 47.2434 45.9303 48.921 45.9303H48.9188ZM50.9349 37.3376C50.9393 36.9344 51.0427 36.5398 51.2368 36.1862C50.3665 36.9899 49.3653 37.639 48.2763 38.1053C48.4876 38.0815 48.6968 38.0557 48.9188 38.0557C49.7903 38.0536 50.6459 38.2883 51.3942 38.7349C51.0959 38.3294 50.9357 37.8389 50.9371 37.3355L50.9349 37.3376ZM34.4978 36.0439C35.7916 36.0439 37.0724 36.2918 38.2713 36.7748C36.2581 35.2328 34.9086 32.9811 34.4978 30.4786C34.0854 32.9799 32.7372 35.2308 30.7266 36.7748C31.9274 36.2963 33.2074 36.0477 34.5 36.0417L34.4978 36.0439ZM34.4978 22.7333C33.585 22.7352 32.6906 22.4772 31.919 21.9894C33.2784 23.4245 34.1773 25.2336 34.5 27.1838C34.8306 25.2355 35.7284 23.428 37.081 21.9873C36.3088 22.4754 35.4135 22.7334 34.5 22.7312L34.4978 22.7333ZM39.3968 17.8494C39.3968 18.9427 39.0281 20.0057 38.3489 20.8682C39.3671 20.0977 40.5236 19.5297 41.7558 19.1949C41.7019 19.1949 41.6631 19.2079 41.6243 19.2079C40.6151 19.2079 39.7483 18.5826 39.3968 17.692C39.3861 17.7438 39.3968 17.7977 39.3968 17.8494ZM43.1164 14.9644C43.6554 15.4086 44.0069 16.0598 44.0069 16.8058C44.0069 17.7503 43.4463 18.6063 42.5795 18.9858C44.3166 18.6659 46.1073 18.8089 47.7716 19.4005C49.4359 19.9921 50.9151 21.0114 52.0605 22.356C49.8083 19.1235 46.7165 16.5671 43.1185 14.9622L43.1164 14.9644ZM41.6113 15.6307C41.455 15.6302 41.3001 15.6606 41.1556 15.72C41.011 15.7794 40.8796 15.8668 40.7687 15.977C40.6579 16.0872 40.5699 16.2182 40.5097 16.3624C40.4495 16.5067 40.4183 16.6614 40.4178 16.8177C40.4174 16.974 40.4478 17.1288 40.5072 17.2734C40.5666 17.418 40.6539 17.5494 40.7642 17.6603C40.8744 17.7711 41.0054 17.8591 41.1496 17.9193C41.2938 17.9795 41.4485 18.0107 41.6048 18.0112C41.9208 18.012 42.2242 17.8873 42.4482 17.6645C42.6722 17.4417 42.7985 17.139 42.7994 16.8231C42.8003 16.5071 42.6756 16.2037 42.4528 15.9797C42.2299 15.7557 41.9273 15.6294 41.6113 15.6285V15.6307ZM35.9792 13.1876C36.7675 13.4378 37.4794 13.8843 38.0478 14.4852C38.6162 15.086 39.0225 15.8215 39.2287 16.6225C39.2727 16.0232 39.5416 15.4627 39.9814 15.0532C40.4213 14.6438 40.9996 14.4156 41.6005 14.4145C41.6787 14.4168 41.7566 14.4255 41.8334 14.4404C39.9494 13.7538 37.9792 13.3321 35.9792 13.1876ZM31.4079 17.8494C31.4292 18.6551 31.7642 19.4206 32.3416 19.9829C32.9189 20.5452 33.693 20.8599 34.4989 20.8599C35.3048 20.8599 36.0789 20.5452 36.6563 19.9829C37.2336 19.4206 37.5686 18.6551 37.5899 17.8494C37.56 17.0499 37.2214 16.2931 36.6452 15.738C36.069 15.183 35.3001 14.8728 34.5 14.8728C33.6999 14.8728 32.931 15.183 32.3548 15.738C31.7786 16.2931 31.44 17.0499 31.4101 17.8494H31.4079ZM27.1537 14.4404C27.2312 14.4254 27.3098 14.4167 27.3887 14.4145C27.9904 14.4131 28.5701 14.6404 29.0105 15.0503C29.4509 15.4603 29.719 16.0223 29.7606 16.6225C29.9665 15.8218 30.3725 15.0865 30.9405 14.4856C31.5085 13.8848 32.2199 13.4382 33.0079 13.1876C30.9637 13.3429 28.9973 13.7612 27.1537 14.4404ZM29.601 17.8494C29.5987 17.7966 29.6031 17.7438 29.6139 17.692C29.4374 18.1384 29.1309 18.5215 28.7342 18.7918C28.3374 19.062 27.8687 19.207 27.3887 19.2079C27.3348 19.2079 27.296 19.1949 27.2572 19.1949C28.4862 19.5313 29.6441 20.1006 30.664 20.866C29.9758 20.0113 29.6007 18.9468 29.601 17.8494ZM26.1963 16.8166C26.1964 16.9729 26.2273 17.1276 26.2873 17.272C26.3472 17.4164 26.435 17.5475 26.5457 17.6579C26.6563 17.7683 26.7876 17.8559 26.932 17.9156C27.0765 17.9753 27.2313 18.0059 27.3876 18.0058C27.5439 18.0056 27.6987 17.9747 27.843 17.9148C27.9874 17.8548 28.1185 17.767 28.2289 17.6564C28.3394 17.5458 28.4269 17.4145 28.4866 17.27C28.5463 17.1255 28.5769 16.9707 28.5768 16.8144C28.5765 16.4988 28.4508 16.1961 28.2274 15.9731C28.004 15.7501 27.7011 15.625 27.3855 15.6253C27.0698 15.6256 26.7671 15.7512 26.5441 15.9746C26.3211 16.1981 26.196 16.5009 26.1963 16.8166ZM16.9373 22.3689C18.0801 21.021 19.5591 19.9993 21.2241 19.4074C22.8892 18.8156 24.6812 18.6745 26.4184 18.9987C26.0442 18.8355 25.7185 18.5786 25.4727 18.2527C25.227 17.9267 25.0695 17.5429 25.0155 17.1383C24.9615 16.7337 25.0128 16.322 25.1645 15.9431C25.3162 15.5641 25.5632 15.2307 25.8815 14.9752C22.2774 16.5712 19.1828 19.1294 16.9373 22.3689ZM16.3465 28.8463C16.3517 31.0311 17.2235 33.1246 18.7706 34.6673C20.3177 36.2099 22.4137 37.0757 24.5985 37.0746C26.7833 37.0757 28.8793 36.2099 30.4264 34.6673C31.9735 33.1246 32.8453 31.0311 32.8505 28.8463C32.8453 26.6615 31.9735 24.568 30.4264 23.0254C28.8793 21.4827 26.7833 20.6169 24.5985 20.6181C20.0531 20.631 16.3465 24.3139 16.3465 28.8463ZM24.9263 42.8878C24.9263 42.9396 24.9133 43.0064 24.9133 43.0582C25.5376 41.1031 26.7434 39.3851 28.3698 38.1333C26.4536 38.9075 24.3452 39.0717 22.3323 38.6033C23.1136 39.0138 23.7681 39.6298 24.2252 40.3848C24.6823 41.1398 24.9247 42.0052 24.9263 42.8878ZM18.0629 37.3355C18.0651 37.8422 17.899 38.3338 17.5907 38.7327C18.3394 38.2873 19.1949 38.0534 20.0661 38.0557C20.2817 38.0535 20.4973 38.0708 20.7086 38.1074C19.6145 37.6509 18.6116 37.0008 17.7481 36.1883C17.9551 36.5333 18.0629 36.9323 18.0629 37.3355ZM17.015 42.8878C17.015 43.697 17.3364 44.4731 17.9086 45.0453C18.4808 45.6175 19.2569 45.9389 20.0661 45.9389C20.8753 45.9389 21.6513 45.6175 22.2235 45.0453C22.7957 44.4731 23.1172 43.697 23.1172 42.8878C23.1172 41.2016 21.7436 39.8432 20.0661 39.8432C19.6655 39.8418 19.2687 39.9195 18.8983 40.0719C18.5279 40.2243 18.1913 40.4485 17.9077 40.7314C17.6242 41.0143 17.3994 41.3504 17.2462 41.7205C17.093 42.0906 17.0144 42.4873 17.015 42.8878ZM22.2935 47.1852C22.4121 47.1723 22.5307 47.1442 22.66 47.1442C23.5376 47.1464 24.3376 47.6402 24.73 48.4251C24.5406 47.6559 24.4436 46.8669 24.4411 46.0747C24.4454 45.6327 24.4756 45.1907 24.5338 44.7551C24.0961 45.8031 23.3047 46.6634 22.2935 47.1852ZM13.2954 37.1155C13.3471 36.5214 13.6191 35.9681 14.058 35.5643C14.4969 35.1605 15.0709 34.9355 15.6673 34.9334C16.1007 34.9356 16.5277 35.0585 16.8964 35.287C15.7675 33.9559 15.0086 32.3512 14.696 30.6341C14.3834 28.9169 14.528 27.1477 15.1153 25.5041C13.4221 29.1236 12.791 33.1494 13.2954 37.1134V37.1155ZM15.6673 36.1474C15.511 36.1471 15.3562 36.1776 15.2117 36.2372C15.0671 36.2967 14.9358 36.3841 14.825 36.4945C14.7143 36.6048 14.6264 36.7358 14.5663 36.8801C14.5063 37.0244 14.4752 37.1792 14.4749 37.3355C14.4746 37.4918 14.5051 37.6466 14.5647 37.7911C14.6242 37.9356 14.7117 38.067 14.822 38.1777C14.9323 38.2885 15.0634 38.3764 15.2077 38.4364C15.352 38.4965 15.5067 38.5276 15.663 38.5279C15.9787 38.5284 16.2816 38.4036 16.5053 38.1808C16.7289 37.958 16.8548 37.6555 16.8554 37.3398C16.856 37.0241 16.7311 36.7211 16.5083 36.4975C16.2855 36.2739 15.983 36.1479 15.6673 36.1474ZM15.2231 42.8878C15.2231 41.6372 15.7104 40.4383 16.5837 39.5456C16.0014 39.7838 15.349 39.7845 14.7662 39.5475C14.1834 39.3105 13.7166 38.8547 13.4658 38.2778C13.8323 40.2874 14.4641 42.1957 15.3525 43.9702C15.269 43.6154 15.2256 43.2523 15.2231 42.8878ZM21.3512 47.5496C20.5566 47.7668 19.7197 47.7776 18.9198 47.581C18.1199 47.3844 17.3834 46.9869 16.7799 46.4262C17.9227 48.1146 19.2984 49.6304 20.866 50.9328C20.523 50.5224 20.3332 50.0057 20.3291 49.4708C20.3291 48.7011 20.7129 47.983 21.3512 47.5518V47.5496ZM21.5345 49.4687C21.5345 49.7672 21.6531 50.0535 21.8641 50.2646C22.0752 50.4757 22.3615 50.5942 22.66 50.5942C22.9585 50.5942 23.2448 50.4757 23.4559 50.2646C23.667 50.0535 23.7856 49.7672 23.7856 49.4687C23.7856 49.1702 23.667 48.8839 23.4559 48.6728C23.2448 48.4617 22.9585 48.3431 22.66 48.3431C22.3615 48.3431 22.0752 48.4617 21.8641 48.6728C21.6531 48.8839 21.5345 49.1702 21.5345 49.4687ZM31.6063 55.6744C30.0713 55.2098 28.6693 54.3856 27.5168 53.2703C26.3644 52.155 25.4947 50.7807 24.9802 49.2617C24.9802 49.3264 25.006 49.3911 25.006 49.4708C25.0056 49.8646 24.9052 50.2519 24.7142 50.5963C24.5233 50.9407 24.248 51.231 23.9142 51.44C23.5805 51.649 23.1991 51.7699 22.8059 51.7913C22.4127 51.8127 22.0205 51.7339 21.666 51.5624C24.5747 53.7581 27.9965 55.1736 31.6063 55.6744ZM42.739 46.0747C42.739 43.8899 41.8711 41.7946 40.3262 40.2496C38.7813 38.7047 36.6859 37.8368 34.5011 37.8368C32.3162 37.8368 30.2209 38.7047 28.676 40.2496C27.1311 41.7946 26.2631 43.8899 26.2631 46.0747C26.2677 48.2569 27.1373 50.3482 28.6813 51.8902C30.2254 53.4323 32.3178 54.2991 34.5 54.3008C36.6818 54.2969 38.7733 53.429 40.3169 51.887C41.8605 50.345 42.7306 48.2544 42.7369 46.0726L42.739 46.0747ZM47.3491 51.5603C46.9942 51.7331 46.6013 51.8128 46.2071 51.7921C45.813 51.7713 45.4306 51.6508 45.0958 51.4417C44.7619 51.2328 44.4868 50.9422 44.2967 50.5973C44.1065 50.2524 44.0075 49.8647 44.0091 49.4708C44.0112 49.4005 44.0199 49.3305 44.0349 49.2617C43.5202 50.7809 42.6502 52.1553 41.4973 53.2707C40.3445 54.3861 38.9421 55.2101 37.4066 55.6744C41.0152 55.1677 44.4358 53.752 47.3469 51.5603H47.3491ZM47.4677 49.4687C47.4677 49.2462 47.4017 49.0286 47.2781 48.8436C47.1546 48.6585 46.9789 48.5143 46.7734 48.429C46.5678 48.3438 46.3416 48.3213 46.1233 48.3646C45.9051 48.4079 45.7045 48.5148 45.547 48.672C45.3895 48.8292 45.2821 49.0296 45.2385 49.2478C45.1948 49.466 45.2168 49.6922 45.3016 49.8979C45.3865 50.1036 45.5304 50.2796 45.7152 50.4035C45.9 50.5275 46.1174 50.5938 46.34 50.5942C46.6374 50.592 46.9221 50.473 47.1326 50.2629C47.3432 50.0527 47.4627 49.7683 47.4655 49.4708L47.4677 49.4687ZM52.2201 46.4284C51.6166 46.9891 50.88 47.3864 50.08 47.5826C49.28 47.7788 48.4432 47.7675 47.6488 47.5496C48.2871 47.9809 48.6709 48.7011 48.6709 49.4687C48.6709 50.0315 48.4617 50.5274 48.134 50.9328C49.702 49.6311 51.0777 48.1139 52.2201 46.4262V46.4284Z" fill="white"/>
</g>
<defs>
<clipPath id="clip0_312_11989">
<rect width="69" height="69" fill="white"/>
</clipPath>
</defs>
</svg>
