<svg width="68" height="68" viewBox="0 0 68 68" fill="none" xmlns="http://www.w3.org/2000/svg">
<circle cx="34" cy="34" r="34" fill="#EDF0F4"/>
<path fill-rule="evenodd" clip-rule="evenodd" d="M34.2643 39.3224L21.2774 31.9028C19.3017 34.4596 18.1333 37.6244 18.1333 41.0508C18.1333 49.5465 25.3165 56.4335 34.1775 56.4335C34.2064 56.4335 34.2354 56.4334 34.2643 56.4333V39.3224Z" fill="#47A2F8"/>
<path fill-rule="evenodd" clip-rule="evenodd" d="M34.2642 39.3224L47.251 31.9028C49.2267 34.4596 50.3951 37.6244 50.3951 41.0507C50.3951 49.5465 43.2119 56.4335 34.3509 56.4335C34.3219 56.4335 34.293 56.4335 34.2642 56.4333V39.3224Z" fill="#7EC6F9"/>
<path d="M34.2642 11.8999L23.0332 29.1149L34.2642 22.7406V11.8999Z" fill="#47A2F8"/>
<path d="M34.2642 11.8999L45.4951 29.1149L34.2642 22.7406V11.8999Z" fill="#7EC6F9"/>
<path d="M34.2642 35.6195L23.0332 29.1151L34.2642 22.7407V35.6195Z" fill="#7EC6F9"/>
<path d="M34.2642 35.6195L45.4951 29.1151L34.2642 22.7407V35.6195Z" fill="#D2ECFD"/>
<path d="M34.2642 39.3485L47.273 31.8901L34.2642 56.4335V39.3485Z" fill="#D2ECFD"/>
<path d="M34.2642 39.3485L21.2554 31.8901L34.2642 56.4335V39.3485Z" fill="#7EC6F9"/>
</svg>
