<svg width="68" height="68" viewBox="0 0 68 68" fill="none" xmlns="http://www.w3.org/2000/svg">
<circle cx="34" cy="34" r="34" fill="#FD2E53"/>
<path fill-rule="evenodd" clip-rule="evenodd" d="M17.0009 18.8254C17.0434 18.8943 19.5668 21.856 22.6084 25.407C28.4678 32.2478 28.5619 32.3795 28.5619 33.7408C28.5619 35.1021 28.4678 35.2337 22.6084 42.0745C19.5668 45.6256 17.0434 48.5872 17.0009 48.6561C16.9545 48.731 18.753 48.7782 21.4779 48.7734L26.0323 48.7656L31.0914 42.8387C37.0203 35.8928 36.9709 35.9692 36.9709 33.7408C36.9709 31.5123 37.0203 31.5887 31.0914 24.6429L26.0323 18.7159L21.4779 18.7081C18.753 18.7033 16.9545 18.7505 17.0009 18.8254ZM37.3391 21.7321C35.967 23.3997 34.8921 24.8074 34.9504 24.8603C35.0087 24.9132 36.2521 25.2482 37.7134 25.6046C40.6383 26.3181 41.1923 26.3416 42.2598 25.7983C42.7139 25.5672 49.9572 19.8245 50.9809 18.8841C51.1489 18.7297 50.2686 18.7002 45.5075 18.7002H39.8338L37.3391 21.7321ZM37.5178 41.921C35.9412 42.3227 34.9327 42.6439 34.9525 42.7379C34.9706 42.8231 36.0766 44.2178 37.4104 45.8371L39.8358 48.7814H45.5086C50.2689 48.7814 51.149 48.7518 50.981 48.5975C49.9392 47.6403 42.7096 41.9122 42.2449 41.6757C41.1927 41.1401 40.4268 41.1797 37.5178 41.921Z" fill="white"/>
</svg>
