<svg width="67" height="66" viewBox="0 0 67 66" fill="none" xmlns="http://www.w3.org/2000/svg">
<path fill-rule="evenodd" clip-rule="evenodd" d="M20.7893 38.3573C20.552 38.5188 20.391 38.6466 20.2136 38.7467C17.807 40.1078 15.3916 41.455 12.994 42.8322C12.501 43.1155 12.0903 43.1625 11.5826 42.8683C10.606 42.3025 9.55264 42.1833 8.43697 42.4332C6.1763 42.9395 4.62864 45.4265 5.21664 47.6541C5.8583 50.083 8.34697 51.5159 10.682 50.7988C12.688 50.1825 13.709 48.7958 13.8446 46.7705C13.886 46.1551 14.1253 45.7854 14.671 45.481C17.3476 43.9886 20.008 42.468 22.663 40.9375C23.169 40.6463 23.6083 40.6043 24.1563 40.8564C25.3996 41.4294 26.7556 41.6852 28.0803 41.3894C29.2746 41.1227 30.2733 41.2964 31.3283 41.8343C31.898 42.1242 32.0853 42.4348 32.082 43.0364C32.0596 47.0959 32.0486 51.156 32.0853 55.2152C32.092 55.9793 31.88 56.4377 31.2056 56.8665C29.2036 58.1399 28.7103 60.8157 30.0303 62.7753C31.3676 64.7619 34.0786 65.3178 36.085 64.0175C38.8113 62.2503 38.739 58.3862 35.94 56.7027C35.5703 56.48 35.275 56.286 35.2773 55.7734C35.2963 51.6 35.294 47.4262 35.2806 43.2528C35.279 42.7964 35.4616 42.5925 35.8956 42.5156C36.623 42.3869 37.3553 42.269 38.0666 42.0786C38.716 41.9046 39.31 41.8881 39.9556 42.1387C41.6243 42.7852 43.2713 42.6644 44.8266 41.7814C45.3333 41.4941 45.7253 41.52 46.2236 41.8103C48.3336 43.0403 50.459 44.2454 52.5996 45.4226C53.2343 45.7716 53.5193 46.1906 53.5303 46.9343C53.5576 48.8753 55.251 50.6651 57.187 50.9108C59.1876 51.1642 61.014 50.1959 61.861 48.4326C62.6576 46.7731 62.259 44.7849 60.8673 43.4774C59.496 42.1886 57.4853 41.9384 55.7316 42.8939C55.2386 43.1628 54.86 43.1438 54.3886 42.8696C52.3773 41.7003 50.3583 40.5415 48.318 39.4218C47.7623 39.1168 47.5673 38.8229 47.7416 38.1777C48.2543 36.2808 47.89 34.5401 46.6843 32.9473C45.857 31.8545 45.126 30.6914 44.3413 29.5671C44.0043 29.0841 44.091 28.76 44.6156 28.4645C47.9073 26.609 51.1916 24.74 54.4713 22.8634C54.893 22.6224 55.2416 22.5958 55.68 22.8591C56.786 23.524 57.976 23.6255 59.217 23.2499C61.1896 22.6529 62.5353 20.5639 62.2193 18.5639C61.8793 16.4102 59.9666 14.747 57.8686 14.7802C55.45 14.8183 53.5786 16.6374 53.5143 19.0456C53.501 19.548 53.364 19.8937 52.8946 20.1577C49.522 22.0596 46.1583 23.9778 42.801 25.9056C42.398 26.1371 42.1223 26.1207 41.771 25.7973C40.1666 24.3197 38.2583 23.4597 36.0726 23.2321C35.4626 23.1688 35.2796 22.9025 35.283 22.3026C35.306 18.3573 35.3036 14.4114 35.2766 10.4665C35.272 9.77371 35.5036 9.32091 36.0976 8.94494C37.7756 7.88303 38.4646 5.96246 37.8876 4.11544C37.3226 2.30619 35.6486 1.08306 33.7276 1.07579C31.7263 1.06795 30.073 2.24413 29.489 4.09049C28.8723 6.04028 29.5976 7.94213 31.398 9.05855C31.7593 9.28282 32.0796 9.47261 32.078 9.9855C32.064 14.3185 32.0803 18.6519 32.051 22.9852C32.0493 23.2571 31.806 23.6249 31.5636 23.7805C30.5033 24.4635 29.4046 25.0893 28.3143 25.7267C27.2406 26.3545 26.0153 26.6333 24.9353 26.055C21.42 24.1739 17.9756 22.163 14.506 20.1984C14.076 19.9551 13.8753 19.6159 13.8623 19.0863C13.786 16.0056 10.9123 14.3934 8.7153 14.8958C6.8893 15.3131 5.66164 16.3231 5.21897 18.1005C4.77764 19.8734 5.3223 21.4239 6.79364 22.5413C8.2623 23.6564 9.9033 23.7798 11.549 22.9179C12.091 22.6345 12.499 22.6385 13.0166 22.9419C14.745 23.9558 16.4996 24.9258 18.2413 25.9174C19.456 26.609 20.6656 27.308 21.9756 28.0603C18.9163 31.228 18.6013 34.6725 20.7893 38.3573ZM63.2503 19.1132C63.25 21.0137 62.4636 22.5143 60.843 23.5467C60.3346 23.8705 60.1493 24.2369 60.152 24.8319C60.174 30.1914 60.1753 35.5508 60.1533 40.9103C60.1506 41.5279 60.337 41.897 60.8733 42.2414C63.2653 43.7772 64.0053 46.9389 62.574 49.2959C61.0676 51.7766 57.964 52.6882 55.4073 51.3563C54.886 51.0848 54.4843 51.1006 53.9953 51.3793C49.2126 54.1103 44.4243 56.8324 39.6286 59.5413C39.138 59.8185 39.0986 60.2256 39.0673 60.6939C38.905 63.1342 37.158 65.1346 34.786 65.6169C31.6476 66.2546 28.6306 64.1049 28.347 60.968C28.271 60.1334 27.9513 59.6444 27.2013 59.2258C22.5936 56.6541 18.012 54.0364 13.4353 51.4108C12.8976 51.1025 12.4816 51.0753 11.9106 51.3626C9.3113 52.6717 6.24664 51.7678 4.80464 49.3205C3.35964 46.8674 4.0743 43.8077 6.50564 42.2198C7.05497 41.8609 7.2593 41.4567 7.25664 40.8154C7.23497 35.5246 7.2343 30.2337 7.2553 24.9426C7.25797 24.2996 7.05764 23.8931 6.50064 23.5418C4.58364 22.3321 3.75397 20.2976 4.18764 18.029C4.58264 15.9646 6.21264 14.3986 8.35997 13.9416C9.66697 13.6631 10.89 13.8227 12.0413 14.4614C12.4746 14.7014 12.825 14.7034 13.2603 14.4551C17.9833 11.7606 22.71 9.07168 27.454 6.41297C28.094 6.0544 28.2806 5.56646 28.3166 4.91795C28.476 2.04022 31.2046 -0.22578 34.3366 0.0858323C36.7186 0.323235 38.8673 2.429 39.0403 4.83882C39.102 5.70404 39.499 6.17491 40.2306 6.58535C44.8126 9.15476 49.3776 11.7534 53.9346 14.3658C54.4806 14.6791 54.9116 14.6774 55.4766 14.4006C59.104 12.6239 63.228 15.1371 63.2503 19.1132Z" fill="#2583FF"/>
<path fill-rule="evenodd" clip-rule="evenodd" d="M22.1046 33.6789C22.1193 30.682 24.551 28.1655 27.6113 28.1027C28.5623 28.083 29.2653 27.8026 29.9583 27.1866C33.4573 24.0708 38.304 25.2595 40.708 27.9576C41.584 28.941 42.0943 30.1129 42.3506 31.3752C42.482 32.0194 42.8163 32.4246 43.3466 32.7667C44.6683 33.6185 45.403 34.861 45.262 36.3961C45.0986 38.1672 44.2023 39.549 42.3796 40.1269C41.3136 40.4648 40.2266 40.4631 39.2193 39.9131C38.724 39.6432 38.276 39.6396 37.7673 39.8383C35.4286 40.7518 33.1543 40.6276 30.9876 39.3365C30.464 39.0243 29.973 39.0029 29.4053 39.1632C25.696 40.2086 22.0856 37.4898 22.1046 33.6789Z" fill="#2583FF"/>
<path fill-rule="evenodd" clip-rule="evenodd" d="M57.9026 45.4165C58.6166 45.4339 59.2086 46.019 59.1823 46.6806C59.1563 47.3272 58.5066 47.9071 57.8263 47.8903C57.1323 47.8729 56.6086 47.3367 56.6143 46.6488C56.62 45.9182 57.1633 45.3987 57.9026 45.4165Z" fill="#2583FF"/>
<path fill-rule="evenodd" clip-rule="evenodd" d="M32.4038 5.29257C32.4602 4.59777 33.0685 4.09833 33.7885 4.15645C34.5148 4.21457 35.0092 4.80003 34.9345 5.51356C34.8648 6.17487 34.2522 6.69433 33.6035 6.64179C32.9185 6.58663 32.3508 5.94797 32.4038 5.29257Z" fill="#2583FF"/>
<path fill-rule="evenodd" clip-rule="evenodd" d="M57.8554 20.3563C57.1534 20.3543 56.634 19.8476 56.6237 19.1545C56.6127 18.4196 57.1294 17.9084 57.8804 17.9107C58.5847 17.913 59.1864 18.4846 59.1824 19.1476C59.1787 19.8217 58.5894 20.3582 57.8554 20.3563Z" fill="#2583FF"/>
<path fill-rule="evenodd" clip-rule="evenodd" d="M10.7284 19.1439C10.7181 19.858 10.2234 20.3538 9.51674 20.3581C8.74174 20.363 8.17474 19.8163 8.20108 19.0897C8.22641 18.3962 8.79808 17.8925 9.53874 17.9122C10.2454 17.9309 10.7387 18.4415 10.7284 19.1439Z" fill="#2583FF"/>
<path fill-rule="evenodd" clip-rule="evenodd" d="M33.6517 59.1676C34.356 59.1584 34.9584 59.7232 34.9517 60.3874C34.9447 61.0987 34.4057 61.6099 33.6674 61.6067C32.93 61.603 32.407 61.0872 32.4097 60.3664C32.4124 59.7074 32.9624 59.1765 33.6517 59.1676Z" fill="#2583FF"/>
<path fill-rule="evenodd" clip-rule="evenodd" d="M9.50045 45.4214C10.1948 45.4194 10.7158 45.9287 10.7278 46.6202C10.7401 47.342 10.1965 47.8982 9.48512 47.8916C8.77379 47.8857 8.20145 47.3259 8.20411 46.6399C8.20712 45.9392 8.75612 45.4234 9.50045 45.4214Z" fill="#2583FF"/>
</svg>
