<svg width="68" height="68" viewBox="0 0 68 68" fill="none" xmlns="http://www.w3.org/2000/svg">
<circle cx="34" cy="34" r="34" fill="#7012FE"/>
<path d="M28.987 50.3738C25.145 50.8129 22.355 53.3925 21.4402 54.6275C20.9828 52.9809 20.4523 48.9467 21.9891 45.9829C23.5259 43.019 33.6066 40.723 38.4549 39.9454C32.6461 38.6647 21.0286 34.6489 21.0286 28.831C21.0286 21.5586 30.7708 18.6771 37.2199 17.7166C42.3792 16.9481 45.773 14.6521 46.825 13.6001C46.7335 15.5669 45.5901 20.2688 41.7481 23.3424C37.906 26.416 31.6399 27.6418 28.987 27.8705C34.7501 28.7852 46.2487 32.3163 46.139 39.1221C46.0017 47.6295 33.7896 49.8249 28.987 50.3738Z" fill="white"/>
<path d="M40.3762 29.5171C39.2784 28.8584 37.266 28.1449 36.397 27.8705C37.5404 27.4588 40.2116 26.4434 41.7485 25.675C43.2854 24.9066 45.0416 22.885 45.7276 21.9702C45.8649 22.9765 46.057 25.4555 45.7276 27.3216C45.3982 29.1877 43.9438 30.935 43.2577 31.5753C42.7547 31.1636 41.474 30.1757 40.3762 29.5171Z" fill="white"/>
</svg>
