<svg width="68" height="68" viewBox="0 0 68 68" fill="none" xmlns="http://www.w3.org/2000/svg">
<circle cx="34" cy="34" r="34" fill="#EDF0F4"/>
<path fill-rule="evenodd" clip-rule="evenodd" d="M34.0001 8.5C34.861 8.5 35.7117 8.54265 36.5506 8.62594V40.4449L17.5856 18.9184V53.5149C12.0301 48.8374 8.50024 41.8308 8.50024 34C8.50024 19.9167 19.9169 8.5 34.0001 8.5ZM59.5 34C59.5 22.1868 51.4673 12.2498 40.5658 9.35324V50.8965L21.8771 29.5776V56.4394C25.4828 58.3914 29.612 59.4999 34.0001 59.4999C48.0834 59.4999 59.5 48.0831 59.5 34ZM44.1617 32.4759C44.0286 33.354 44.2885 34.1143 44.8576 34.606C45.4033 35.0772 46.1385 35.2182 46.8112 35.0836C47.468 34.9517 47.927 34.5473 48.2557 34.1319C48.5487 33.7619 48.7869 33.3185 48.985 32.9498C49.0024 32.9175 49.0195 32.8858 49.036 32.8547C49.2637 32.4325 49.4435 32.1203 49.6406 31.906C49.8148 31.7166 49.9476 31.6628 50.0966 31.6628C50.7652 31.6628 51.039 31.8736 51.164 32.0385C51.3116 32.2332 51.3823 32.5372 51.3438 32.902C51.2877 33.4359 50.7473 33.856 50.1945 33.856V35.386C51.3596 35.386 52.7106 34.5335 52.8653 33.0621C52.9291 32.4574 52.8419 31.7193 52.3834 31.1142C51.902 30.4793 51.1209 30.1328 50.0966 30.1328C49.3991 30.1328 48.8853 30.4671 48.5146 30.8702C48.1667 31.2483 47.9028 31.733 47.6896 32.1284L47.6544 32.1934C47.4377 32.5956 47.2612 32.9232 47.0562 33.1823C46.8507 33.4419 46.6791 33.5495 46.5105 33.5833C46.2313 33.6393 45.9954 33.5669 45.8577 33.4481C45.7437 33.3495 45.6081 33.1431 45.6746 32.7053C45.7348 32.3073 45.9286 32.11 46.1423 31.9886C46.3884 31.8489 46.6768 31.808 46.8313 31.808V30.278C46.4924 30.278 45.9243 30.353 45.3867 30.6581C44.8173 30.9816 44.3009 31.5581 44.1617 32.4759ZM45.0015 23.4009C44.4264 24.1616 44.2304 25.056 44.1643 25.8074C44.1169 26.3463 44.1345 26.9009 44.1465 27.282V27.2822C44.1508 27.413 44.1541 27.5233 44.1541 27.6057V28.3707H44.9191H52.0323H52.6721L52.7853 27.7409C52.9105 27.0434 52.9067 26.0824 52.7063 25.1659C52.5094 24.2657 52.0899 23.2625 51.2571 22.6538C50.3628 22.0003 49.0628 21.858 47.9528 21.9902C46.8561 22.1208 45.6397 22.557 45.0015 23.4009ZM51.3378 26.8407H45.6651C45.6587 26.5637 45.6593 26.2682 45.6881 25.9414C45.7424 25.3253 45.8926 24.7587 46.2215 24.3237C46.4875 23.9719 47.1954 23.6212 48.1333 23.5094C49.0579 23.3993 49.9027 23.5594 50.354 23.8891C50.7478 24.1769 51.0482 24.7469 51.2114 25.4928C51.3126 25.9559 51.348 26.4304 51.3378 26.8407ZM51.2109 37.674C52.0035 38.1369 52.5849 38.9832 52.5849 40.2758C52.5849 41.5666 52.006 42.4198 51.2262 42.9C50.5133 43.3391 49.6945 43.4319 49.1388 43.3929H44.5476V41.8629H49.1676H49.1985L49.2291 41.8655C49.5573 41.892 50.0464 41.83 50.424 41.5972C50.7494 41.3968 51.0549 41.038 51.0549 40.2758C51.0549 39.5149 50.7519 39.1775 50.4393 38.9952C50.0688 38.7787 49.5838 38.731 49.2533 38.7682L49.2105 38.7731H49.1676H44.5476V37.2431H49.1276C49.6809 37.189 50.4964 37.2566 51.2109 37.674Z" fill="url(#paint0_radial_323_4069)"/>
<defs>
<radialGradient id="paint0_radial_323_4069" cx="0" cy="0" r="1" gradientUnits="userSpaceOnUse" gradientTransform="translate(34.0001 34) scale(25.4999 25.5)">
<stop stop-color="#6573AB"/>
<stop offset="1" stop-color="#57628F"/>
</radialGradient>
</defs>
</svg>
