<svg width="69" height="69" viewBox="0 0 69 69" fill="none" xmlns="http://www.w3.org/2000/svg">
<g clip-path="url(#clip0_312_12207)">
<path d="M34.5 69C53.5538 69 69 53.5538 69 34.5C69 15.4462 53.5538 0 34.5 0C15.4462 0 0 15.4462 0 34.5C0 53.5538 15.4462 69 34.5 69Z" fill="#FFC04E"/>
<path d="M33.6332 25.5667H33.6397L33.575 25.847L33.0143 28.4927H32.9497L29.256 44.2031H24.5575L28.3245 28.4927H22.0024L18.4532 44.2031H13.2868L17.9831 24.7969H33.7949L33.6332 25.5667ZM42.5622 24.7969H50.3894C57.1234 25.1052 56.4959 29.5708 56.4959 29.5708H58.2188L57.5934 31.4187H56.0258C55.5579 33.1135 52.4249 34.0386 52.4249 34.0386C56.0258 34.5 55.8706 37.2729 55.8706 37.2729H57.5934L57.1234 39.1208H55.7132C55.3531 41.6868 53.0783 42.9331 51.2088 43.5261C50.0782 43.879 48.9 44.0557 47.7157 44.05H37.8637L42.5622 24.7969ZM15.7902 28.4927H10.7812L11.7214 24.7969H16.7303L15.7902 28.4927ZM37.2406 42.0469L33.1696 32.4968L34.8924 25.1052L38.9613 34.1917L37.2406 42.0469ZM49.2164 32.4968C49.777 32.4968 50.3161 32.2812 50.7107 31.8888C51.1053 31.4963 51.3295 30.9702 51.3295 30.4182C51.3295 29.8662 51.1074 29.3379 50.7107 28.9477C50.3139 28.5574 49.777 28.3396 49.2164 28.3396H46.1653L45.2273 32.4968H49.2164ZM48.162 40.5073C49.5657 40.5073 50.7042 39.4378 50.7042 38.1203C50.7042 36.8007 49.5722 35.7312 48.162 35.7312H44.4921L43.3622 40.5073H48.162Z" fill="white"/>
</g>
<defs>
<clipPath id="clip0_312_12207">
<rect width="69" height="69" fill="white"/>
</clipPath>
</defs>
</svg>
