<svg width="69" height="69" viewBox="0 0 69 69" fill="none" xmlns="http://www.w3.org/2000/svg">
<g clip-path="url(#clip0_312_12247)">
<path d="M34.5 69C15.525 69 0 53.475 0 34.5C0 15.525 15.525 0 34.5 0C53.475 0 69 15.525 69 34.5C69 53.475 53.475 69 34.5 69Z" fill="#002868"/>
<path d="M51.8878 55.1974H17.1118C15.2902 55.1974 13.7998 53.707 13.7998 51.8854V17.1094C13.7998 15.2878 15.2902 13.7974 17.1118 13.7974H51.8878C53.7094 13.7974 55.1998 15.2878 55.1998 17.1094V51.8854C55.1998 53.707 53.7094 55.1974 51.8878 55.1974Z" fill="white"/>
<path d="M21.8788 51.0321C21.7698 51.0321 21.6815 50.9327 21.6815 50.8237V45.2609C21.6815 45.1519 21.5932 45.0525 21.4841 45.0525H19.5204C19.41 45.0525 19.312 44.9642 19.312 44.8552V43.7802C19.312 43.6711 19.4114 43.5718 19.5204 43.5718H25.5648C25.6738 43.5718 25.7732 43.6698 25.7732 43.7802V44.8552C25.7732 44.9642 25.6738 45.0525 25.5648 45.0525H23.6121C23.5031 45.0525 23.4037 45.1505 23.4037 45.2609V50.8237C23.4037 50.9327 23.3154 51.0321 23.2064 51.0321H21.8788Z" fill="#002868"/>
<path d="M31.8065 43.7802C31.8065 43.6711 31.8949 43.5718 32.0039 43.5718H33.3204C33.4294 43.5718 33.5288 43.6698 33.5288 43.7802V47.5765C33.5288 49.8259 32.2564 51.1314 30.2375 51.1314C28.2296 51.1314 26.9683 49.8259 26.9683 47.5765V43.7802C26.9683 43.6711 27.0566 43.5718 27.1656 43.5718H28.4821C28.5911 43.5718 28.6905 43.6698 28.6905 43.7802V47.6304C28.6905 48.7385 29.2604 49.5279 30.2485 49.5279C31.2366 49.5279 31.8065 48.7385 31.8065 47.6304V43.7802Z" fill="#002868"/>
<path d="M39.5742 46.0095C39.3989 46.0095 39.3437 45.9432 39.2775 45.8121C39.047 45.2739 38.5419 44.9344 37.7746 44.9344C37.0832 44.9344 36.5023 45.1759 36.5023 45.6369C36.5023 46.1419 37.0405 46.3503 38.2245 46.4925C40.0241 46.7008 41.0549 47.2501 41.0549 48.6756C41.0549 50.2778 39.6501 51.1224 37.8519 51.1224C36.2939 51.1224 34.9553 50.3647 34.7469 48.775C34.7248 48.6218 34.8021 48.5666 34.9553 48.5666H36.1628C36.316 48.5666 36.4043 48.6328 36.4484 48.7529C36.6127 49.2801 37.1729 49.6858 37.9844 49.6858C38.6979 49.6858 39.323 49.4222 39.323 48.8633C39.323 48.194 38.6648 48.0739 37.3482 47.9083C35.8343 47.711 34.7814 47.2722 34.7814 45.8784C34.7814 44.4846 35.9779 43.4868 37.8533 43.4868C39.5424 43.4868 40.7168 44.3976 40.9583 45.7583C40.9915 45.9115 40.9473 46.0108 40.7831 46.0108H39.5742V46.0095Z" fill="#002868"/>
<path d="M42.5474 51.0321C42.4384 51.0321 42.3501 50.9327 42.3501 50.8237V43.7802C42.3501 43.6711 42.4384 43.5718 42.5474 43.5718H45.531C47.7473 43.5718 49.4695 45.0967 49.4695 47.324C49.4695 49.5182 47.7694 51.0321 45.531 51.0321H42.5474ZM45.531 49.5499C46.7275 49.5499 47.659 48.606 47.659 47.3005C47.659 45.9951 46.7261 45.0511 45.52 45.0511H44.2807C44.1717 45.0511 44.0834 45.1491 44.0834 45.2595V49.3512C44.0834 49.4602 44.1717 49.5486 44.2807 49.5486H45.531V49.5499Z" fill="#002868"/>
<path d="M54.0961 39.4685H14.9041C14.6005 39.4685 14.3521 39.2201 14.3521 38.9165V17.1125C14.3521 15.5945 15.5941 14.3525 17.1121 14.3525H51.8881C53.4061 14.3525 54.648 15.5945 54.648 17.1125V38.9165C54.648 39.2201 54.3997 39.4685 54.0961 39.4685Z" fill="#002868"/>
<path d="M36.5327 34.9929H32.9448C32.7171 34.9929 32.5308 34.8066 32.5308 34.5789V19.3989C32.5308 19.1712 32.7171 18.9849 32.9448 18.9849H36.5327C36.7604 18.9849 36.9467 19.1712 36.9467 19.3989V34.5789C36.9467 34.8066 36.7604 34.9929 36.5327 34.9929Z" fill="white"/>
<path d="M42.6419 23.4009H26.3578C26.1301 23.4009 25.9438 23.2146 25.9438 22.9869V19.3989C25.9438 19.1712 26.1301 18.9849 26.3578 18.9849H42.6419C42.8696 18.9849 43.0559 19.1712 43.0559 19.3989V22.9869C43.0559 23.2146 42.8696 23.4009 42.6419 23.4009Z" fill="white"/>
</g>
<defs>
<clipPath id="clip0_312_12247">
<rect width="69" height="69" fill="white"/>
</clipPath>
</defs>
</svg>
