<svg width="68" height="68" viewBox="0 0 68 68" fill="none" xmlns="http://www.w3.org/2000/svg">
<circle cx="34" cy="34" r="34" fill="#EDF0F4"/>
<path d="M40.3775 39.6666H38.459C38.1038 39.6666 37.8018 39.3824 37.8018 39.0093V33.9644L34.4444 36.0605C34.1602 36.2382 33.8049 36.2382 33.5207 36.0605L30.1811 33.9644V39.0093C30.1811 39.3646 29.8969 39.6666 29.5238 39.6666H27.6231C27.2678 39.6666 26.9658 39.3824 26.9658 39.0093V29.2747C26.9658 28.7951 27.3566 28.4043 27.8362 28.4043C28.0139 28.4043 28.1738 28.4576 28.3159 28.5642L33.6095 32.2058C33.8227 32.3656 34.1247 32.3656 34.3378 32.2058L39.6314 28.5642C40.0223 28.2977 40.5729 28.4043 40.8394 28.7951C40.946 28.9372 40.9815 29.1149 40.9993 29.2747V39.0093C41.017 39.3646 40.7328 39.6666 40.3775 39.6666Z" fill="#FF4A4A"/>
<path d="M24.1057 39.6488H12.2039C11.7243 39.6488 11.3335 39.258 11.3335 38.7784V28.9905C11.3513 28.6175 11.6355 28.3333 12.0085 28.3333H13.927C14.2823 28.3333 14.5843 28.6175 14.5843 28.9905V36.4336H21.7964V28.9905C21.7964 28.6352 22.0806 28.3333 22.4537 28.3333H24.3189C24.6741 28.3333 24.9761 28.6175 24.9761 28.9905V38.7784C24.9761 39.258 24.5853 39.6488 24.1057 39.6488Z" fill="#FF4A4A"/>
<path d="M43.8948 28.3333H55.7966C56.2762 28.3333 56.6671 28.7241 56.6671 29.2037V38.9916C56.6671 39.3468 56.3828 39.6488 56.0276 39.6488H54.1091C53.7538 39.6488 53.4518 39.3646 53.4518 38.9916V31.9748C53.4518 31.7439 53.2564 31.5485 53.0255 31.5485H46.6838C46.4528 31.5485 46.2574 31.7439 46.2574 31.9748V38.9916C46.2574 39.3468 45.9732 39.6488 45.6002 39.6488H43.6817C43.3264 39.6488 43.0244 39.3646 43.0244 38.9916V29.2037C43.0244 28.7241 43.4152 28.3333 43.8948 28.3333Z" fill="#FF4A4A"/>
<path d="M48.8863 33.6091H50.787C51.1423 33.6091 51.4443 33.8934 51.4443 34.2664V36.2026C51.4443 36.5579 51.16 36.8599 50.787 36.8599H48.8863C48.531 36.8599 48.229 36.5757 48.229 36.2026V34.2486C48.229 33.8934 48.531 33.6091 48.8863 33.6091Z" fill="#FF4A4A"/>
</svg>
