<svg width="68" height="68" viewBox="0 0 68 68" fill="none" xmlns="http://www.w3.org/2000/svg">
<circle cx="34" cy="34" r="34" fill="#AD7DE2"/>
<path d="M31.3589 22.2563H36.5549V32.6483C36.5549 33.7032 36.2814 34.3283 35.8907 34.7189C35.5001 35.2268 34.8359 35.5003 33.9374 35.5003C33.0388 35.5003 32.4919 35.2268 31.984 34.7189C31.5933 34.2111 31.3198 33.5469 31.3198 32.6483V22.2563H31.3589Z" fill="white"/>
<path d="M46.9859 32.9219C46.9859 36.7114 45.8138 40.0712 43.3526 42.5325C40.8913 44.8766 37.7659 46.0486 33.9763 46.0486C30.1868 46.0486 27.1004 44.9938 24.6001 42.5325C22.0998 40.0712 20.9668 36.6723 20.9668 32.9219V22.2564H26.1628V32.9219C26.1628 35.6566 26.9442 37.4928 28.2334 38.6648C29.5226 39.954 31.3588 40.6182 33.9763 40.6182C36.7111 40.6182 38.391 39.8368 39.7193 38.6648C41.0085 37.3756 41.7899 35.5394 41.7899 32.8046V22.1001H46.9859V32.9219Z" fill="white"/>
</svg>
