<svg width="68" height="68" viewBox="0 0 68 68" fill="none" xmlns="http://www.w3.org/2000/svg">
<circle cx="34" cy="34" r="34" fill="#EDF0F2"/>
<ellipse cx="33.9905" cy="34.0089" rx="25.4849" ry="25.4849" fill="#C8D2D9"/>
<path d="M50.1701 53.6756C46.2846 56.8836 41.5224 58.8562 36.5011 59.3344C29.7862 59.992 23.0712 57.9596 17.8308 53.6756C12.6102 49.3915 9.30257 43.2146 8.62509 36.4797C8.12695 31.4584 9.12324 26.4172 11.4944 21.9738C13.8655 17.5304 17.5119 13.884 21.9554 11.5128C26.3988 9.14168 31.44 8.12547 36.4613 8.62362C41.4825 9.12176 46.2248 11.0745 50.1303 14.2825L44.9894 20.5591C42.3393 18.3872 39.0914 17.0322 35.6642 16.7134C32.237 16.3747 28.8098 17.0721 25.7811 18.6861C22.7524 20.3001 20.2816 22.7908 18.6477 25.8195C17.0337 28.8482 16.3563 32.2953 16.695 35.7026C17.1533 40.2855 19.4049 44.5097 22.9716 47.4189C26.5383 50.348 31.1212 51.7228 35.7041 51.2646C39.1313 50.9258 42.3592 49.5709 45.0094 47.399L50.1701 53.6756Z" fill="url(#paint0_linear_323_7427)"/>
<path d="M34.0701 54.8711C45.5672 54.8711 54.8725 45.5458 54.8725 34.0687C54.8725 22.5716 45.5672 13.2463 34.0701 13.2463C22.573 13.2463 13.2478 22.5716 13.2478 34.0687C13.2478 45.5658 22.573 54.8711 34.0701 54.8711Z" fill="white"/>
<path d="M37.5375 35.7226C37.5375 33.7699 36.3419 33.1123 34.0106 32.8134C32.297 32.5743 31.9583 32.1758 31.9583 31.3788C31.9583 30.5817 32.5361 30.1035 33.652 30.1035C34.6682 30.1035 35.246 30.4423 35.4851 31.2592C35.5051 31.3389 35.5648 31.4186 35.6445 31.4784C35.7242 31.5382 35.8039 31.5581 35.9036 31.5581H36.8002C36.86 31.5581 36.9198 31.5382 36.9596 31.5183C37.0194 31.4983 37.0593 31.4585 37.0991 31.4186C37.139 31.3788 37.1589 31.319 37.1788 31.2791C37.1987 31.2194 37.1987 31.1596 37.1788 31.0998C36.8999 29.8246 36.0231 29.0674 34.6682 28.8283V27.4933C34.6682 27.3737 34.6283 27.2741 34.5486 27.1944C34.4689 27.1147 34.3693 27.0748 34.2497 27.0748H33.3929C33.2734 27.0748 33.1738 27.1147 33.0941 27.1944C33.0144 27.2741 32.9745 27.3737 32.9745 27.4933V28.7884C31.2808 29.0275 30.2048 30.1235 30.2048 31.5382C30.2048 33.3713 31.3406 34.0687 33.6918 34.3876C35.3058 34.6466 35.7641 34.9853 35.7641 35.882C35.7641 36.7786 34.987 37.3764 33.8911 37.3764C32.4166 37.3764 31.9184 36.7388 31.7391 35.9218C31.7192 35.8222 31.6594 35.7425 31.5996 35.6827C31.5199 35.6229 31.4203 35.5831 31.3406 35.5831H30.3642C30.3045 35.5831 30.2447 35.603 30.2048 35.6229C30.1451 35.6429 30.1052 35.6827 30.0654 35.7226C30.0255 35.7624 30.0056 35.8222 29.9856 35.8621C29.9657 35.9218 29.9657 35.9816 29.9856 36.0215C30.2248 37.4163 31.1413 38.4325 32.9944 38.6716V39.9867C32.9944 40.1062 33.0343 40.2058 33.114 40.2856C33.1937 40.3653 33.2933 40.4051 33.4129 40.4051H34.2697C34.3892 40.4051 34.4889 40.3653 34.5686 40.2856C34.6483 40.2058 34.6881 40.1062 34.6881 39.9867V38.6716C36.4216 38.3926 37.5375 37.217 37.5375 35.7226Z" fill="#283947"/>
<path d="M31.1014 41.7003C29.4874 41.1224 28.0927 40.0464 27.0964 38.6516C26.1001 37.2568 25.582 35.5831 25.582 33.8894C25.582 32.1957 26.12 30.522 27.0964 29.1272C28.0927 27.7324 29.4874 26.6564 31.1014 26.0785C31.2011 26.0387 31.3007 25.959 31.3605 25.8594C31.4202 25.7597 31.4601 25.6601 31.4601 25.5405V24.7634C31.4601 24.7037 31.4601 24.624 31.4202 24.5642C31.4003 24.5044 31.3405 24.4446 31.2808 24.4048C31.221 24.3649 31.1612 24.345 31.0815 24.3251C31.0018 24.3052 30.942 24.3251 30.8822 24.3649C28.8498 25.0026 27.0764 26.2778 25.8012 27.9914C24.5459 29.705 23.8684 31.7574 23.8684 33.8894C23.8684 36.0015 24.5459 38.0738 25.8012 39.7874C27.0565 41.501 28.8299 42.7563 30.8822 43.4139C30.942 43.4338 31.0217 43.4537 31.0815 43.4537C31.1413 43.4537 31.221 43.4139 31.2808 43.374C31.3405 43.3342 31.3804 43.2744 31.4202 43.2146C31.4402 43.1548 31.4601 43.0751 31.4601 43.0154V42.2383C31.4601 42.1187 31.4202 42.0191 31.3605 41.9194C31.3007 41.8198 31.221 41.7401 31.1014 41.7003Z" fill="#657786"/>
<path d="M36.8796 24.3847C36.8198 24.3648 36.7401 24.3448 36.6803 24.3448C36.6206 24.3448 36.5409 24.3847 36.4811 24.4246C36.4213 24.4644 36.3815 24.5242 36.3416 24.584C36.3217 24.6437 36.3018 24.7234 36.3018 24.7832V25.5603C36.3018 25.6799 36.3416 25.7795 36.4014 25.8791C36.4612 25.9788 36.5608 26.0385 36.6604 26.0983C38.2744 26.6762 39.6692 27.7521 40.6655 29.1469C41.6618 30.5417 42.1798 32.2155 42.1798 33.9092C42.1798 35.6029 41.6418 37.2766 40.6655 38.6714C39.6692 40.0662 38.2744 41.1422 36.6604 41.72C36.5608 41.7599 36.4612 41.8396 36.4014 41.9193C36.3416 42.0189 36.3018 42.1185 36.3018 42.2381V43.0152C36.3018 43.075 36.3018 43.1547 36.3416 43.2145C36.3615 43.2742 36.4213 43.334 36.4811 43.3739C36.5409 43.4137 36.6006 43.4336 36.6803 43.4536C36.7401 43.4536 36.8198 43.4536 36.8796 43.4137C38.912 42.7761 40.6854 41.5009 41.9606 39.7872C43.216 38.0736 43.8934 36.0213 43.8934 33.8892C43.8934 31.7771 43.216 29.7049 41.9606 27.9912C40.6854 26.2976 38.912 25.0223 36.8796 24.3847Z" fill="#657786"/>
<defs>
<linearGradient id="paint0_linear_323_7427" x1="8.70513" y1="16.2073" x2="20.3831" y2="59.5057" gradientUnits="userSpaceOnUse">
<stop stop-color="#27D3A2"/>
<stop offset="1" stop-color="#9388FD"/>
</linearGradient>
</defs>
</svg>
