<svg width="68" height="68" viewBox="0 0 68 68" fill="none" xmlns="http://www.w3.org/2000/svg">
<path d="M66.9751 42.2248C62.4342 60.4392 43.9859 71.5242 25.7693 66.9821C7.56028 62.4411 -3.52469 43.9917 1.01825 25.7787C5.5572 7.56225 24.0055 -3.52355 42.2165 1.0174C60.4318 5.55834 71.5161 24.0098 66.9746 42.2251L66.975 42.2248H66.9751Z" fill="#50AF95"/>
<path fill-rule="evenodd" clip-rule="evenodd" d="M38.3023 37.8546C38.0619 37.8726 36.8198 37.9468 34.049 37.9468C31.8453 37.9468 30.2806 37.8807 29.7316 37.8546C21.2151 37.48 14.8582 35.9974 14.8582 34.2224C14.8582 32.4474 21.2151 30.9668 29.7316 30.5862V36.3781C30.2886 36.4182 31.8833 36.5123 34.0871 36.5123C36.7316 36.5123 38.0559 36.4021 38.2943 36.3801V30.5902C46.7928 30.9688 53.1356 32.4514 53.1356 34.2224C53.1356 35.9934 46.7948 37.476 38.2943 37.8526L38.3023 37.8546ZM38.3023 29.9911V24.8083H50.1625V16.9048H17.8714V24.8083H29.7296V29.9891C20.0912 30.4319 12.8428 32.3412 12.8428 34.6291C12.8428 36.917 20.0912 38.8242 29.7296 39.269V55.8774H38.3003V39.263C47.9167 38.8202 55.1531 36.913 55.1531 34.6271C55.1531 32.3412 47.9227 30.4339 38.3003 29.9891L38.3023 29.9911Z" fill="white"/>
</svg>
