<svg width="68" height="68" viewBox="0 0 68 68" fill="none" xmlns="http://www.w3.org/2000/svg">
<rect width="68" height="68" rx="34" fill="white"/>
<g clip-path="url(#clip0_1_79)">
<path d="M22 49.1331C23.3049 50.6106 24.892 51.8159 26.6692 52.6791C28.4464 53.5422 30.3783 54.046 32.3529 54.1613C34.7121 54.0368 36.9378 53.035 38.5882 51.3548C41.8436 48.5835 45.2614 46.0064 48.8235 43.6371L50.8235 42.8185C51.6471 42.4677 53.0588 41.6492 54.3529 40.129C55.7647 38.2581 56 36.2702 56 35.5685C55.8436 33.3558 55.1141 31.2208 53.8824 29.371C50.6682 35.0636 46.0617 39.8587 40.489 43.3129C34.9163 46.7671 28.5573 48.7689 22 49.1331Z" fill="#0293D6"/>
<path d="M26.4706 15.9234C27.3488 15.0013 28.4067 14.2666 29.5798 13.7641C30.7529 13.2615 32.0167 13.0015 33.2941 13C34.1035 12.9461 34.9155 13.0528 35.683 13.3138C36.4505 13.5748 37.1581 13.9848 37.7647 14.5202C41.1393 16.8964 45.1589 18.201 49.2941 18.2621C50.3529 18.379 52.4706 18.7298 53.8824 20.4839C54.9412 21.8871 55.0588 23.4073 55.0588 24.1089C54.9641 25.9158 54.5664 27.6942 53.8824 29.371L26.4706 15.9234Z" fill="#EBE638"/>
<path d="M22 49.1331C20.9412 49.0161 19.5294 48.6653 17.8824 47.9637C16.2353 47.2621 14.2353 46.4435 12.9412 44.2218C12.1176 42.8185 12 41.4153 12 40.4798C12.0287 37.9989 12.6326 35.558 13.7647 33.3468C14.891 30.6137 15.6429 27.7426 16 24.8105L16.5882 22.4718C16.9412 21.3024 17.1765 20.1331 18 18.9637L19.2941 17.5605C21.4316 16.2248 23.9611 15.6477 26.4706 15.9234C23.1103 20.7013 20.9508 26.2099 20.173 31.988C19.3951 37.766 20.0216 43.6452 22 49.1331Z" fill="#BAD147"/>
<path d="M26.4706 15.9234C26.3529 15.9234 32.8235 16.2742 36.8235 17.6774L40.1176 19.0806C38.8235 18.9637 30.5882 18.6129 24.3529 24.8105C16.4706 32.7621 19.0588 43.6371 19.1765 44.2218C17.3498 41.9375 16.429 39.0669 16.5882 36.1532C16.7431 32.2862 17.701 28.4928 19.4017 25.0114C21.1023 21.53 23.5091 18.4359 26.4706 15.9234Z" fill="#78B650"/>
<path d="M42.2353 44.8064C44.461 40.785 45.447 36.2014 45.0705 31.6269C44.6939 27.0523 42.9714 22.689 40.1176 19.0806C43.5254 19.6469 46.6599 21.2867 49.0588 23.7581C50.4706 24.9274 52.2353 26.6815 53.8824 29.371C51.5562 35.5125 47.5157 40.8672 42.2353 44.8064Z" fill="#2F8260"/>
<path d="M46 24.2258C44.1176 21.0685 41.4118 19.6653 40.2353 19.0806C39.2941 18.8468 30.4706 17.4435 23.7647 23.875C18.3529 29.0202 18 35.6855 18 36.9718C18.0249 41.3787 19.5138 45.6539 22.2353 49.1331C25.7326 49.8024 29.3262 49.8024 32.8235 49.1331C34.5882 48.7823 38.7059 48.0806 42.2353 45.0403C42.7059 44.5726 47.8824 39.7782 48.2353 32.1774C48.2353 30.8911 48.2353 27.6169 46 24.2258ZM41.7647 41.1815C40.6722 42.3627 39.3446 43.3053 37.8662 43.9494C36.3878 44.5936 34.7907 44.9253 33.1765 44.9234C32.4706 44.9234 27.7647 44.8065 24.4706 40.9476C24 40.3629 21.6471 37.5565 21.7647 33.3468C22 27.7339 26.4706 24.4597 27.4118 23.7581C28.2353 23.1734 30.2353 21.8871 33.1765 21.7702C33.8824 21.6532 36.3529 21.5363 38.8235 22.9395C44.2353 25.8629 44.4706 32.879 44.4706 33.3468C44.4706 34.6331 44.4706 38.1411 41.7647 41.1815Z" fill="#085229"/>
</g>
<defs>
<clipPath id="clip0_1_79">
<rect width="44" height="41.1613" fill="white" transform="translate(12 13)"/>
</clipPath>
</defs>
</svg>
