<svg width="68" height="68" viewBox="0 0 68 68" fill="none" xmlns="http://www.w3.org/2000/svg">
<circle cx="34" cy="34" r="34" fill="url(#paint0_linear_323_2744)"/>
<mask id="mask0_323_2744" style="mask-type:luminance" maskUnits="userSpaceOnUse" x="0" y="0" width="68" height="68">
<circle cx="34" cy="34" r="34" fill="white"/>
</mask>
<g mask="url(#mask0_323_2744)">
<path d="M48.3818 0H84.6258L84.6598 71.4L12.7158 70.958L48.3818 0Z" fill="url(#paint1_linear_323_2744)"/>
</g>
<path fill-rule="evenodd" clip-rule="evenodd" d="M55.5332 18.7L35.9686 57.3295L35.9491 57.3687L35.9393 57.3918C35.6521 58.0524 35.0959 58.3602 34.3246 58.3665L34.3005 58.3666H34.2666C33.4749 58.3666 32.9067 58.0531 32.6191 57.3717L32.6178 57.3687L32.6 57.3327L13.0332 18.7341L22.7268 18.7342L22.8134 18.7345L22.8744 18.7352L22.9133 18.7359L22.9509 18.7368L22.9872 18.7379L23.0223 18.7392L23.0563 18.7407L23.0892 18.7426L23.1053 18.7436L23.1367 18.7458L23.1672 18.7484L23.1821 18.7498L23.2114 18.7528L23.2258 18.7544L23.2539 18.758L23.2815 18.7619L23.3084 18.7662L23.3348 18.7709L23.3608 18.776C23.4467 18.7938 23.5262 18.8187 23.6101 18.8535C23.8196 18.9404 23.9951 19.0822 24.1219 19.2728C24.1908 19.3763 24.2375 19.4787 24.2736 19.5913L24.2785 19.6069L34.2659 39.2214L44.231 19.6193L44.2322 19.6155L44.2356 19.6029C44.3349 19.2436 44.5943 18.9807 44.936 18.8405L44.9518 18.8341C45.1946 18.7379 45.4759 18.7 45.8245 18.7H55.5332ZM15.9114 20.5106L34.1691 56.5268L34.1998 56.5886L34.2177 56.5894L34.2411 56.59L34.2666 56.5902H34.3005L34.3259 56.59L34.3493 56.5894L34.3672 56.5886L34.396 56.5306L52.6563 20.4764L45.8081 20.4765L45.7765 20.4768L45.7738 20.4769L34.2672 43.1115L22.7592 20.5107L15.9114 20.5106Z" fill="white"/>
<path d="M39.8451 18.7C39.0911 18.7 38.8512 18.8027 38.5084 19.4874L30.2481 35.6811L21.9878 19.4874C21.8164 18.8711 21.4051 19.0423 20.6511 19.0423H13.659C13.3162 19.0423 12.9735 19.4189 13.042 19.6586L28.8771 50.7107C29.117 51.2585 29.5626 51.5666 30.2481 51.5666H30.2824C30.9679 51.5666 31.4477 51.2927 31.6534 50.7107L47.5228 19.4874C47.6256 19.2477 47.6256 19.0765 47.5228 18.9396C47.4199 18.8027 47.18 18.7 46.9058 18.7H39.8451Z" fill="white"/>
<defs>
<linearGradient id="paint0_linear_323_2744" x1="-23.494" y1="14.212" x2="-23.494" y2="61.2" gradientUnits="userSpaceOnUse">
<stop stop-color="#5B62FE"/>
<stop offset="1" stop-color="#3831AB"/>
</linearGradient>
<linearGradient id="paint1_linear_323_2744" x1="-4964.39" y1="10.455" x2="-4964.39" y2="58.7928" gradientUnits="userSpaceOnUse">
<stop stop-color="#1F1B55" stop-opacity="0.98"/>
<stop offset="1" stop-color="#493ED1"/>
</linearGradient>
</defs>
</svg>
