<svg width="65" height="66" viewBox="0 0 65 66" fill="none" xmlns="http://www.w3.org/2000/svg">
<g clip-path="url(#clip0_312_349)">
<path d="M53.0008 13.8514L51.2161 15.6636C55.4747 20.3924 57.8364 26.5682 57.8364 32.976C57.8364 39.3838 55.4747 45.5597 51.2161 50.2885L53.0008 52.1007C57.7369 46.8845 60.3663 40.0496 60.3663 32.9549C60.3663 25.8602 57.7369 19.0253 53.0008 13.8091V13.8514Z" fill="#5A5564"/>
<path d="M15.4675 14.0083C20.1246 9.68413 26.2069 7.28614 32.5177 7.28614C38.8284 7.28614 44.9107 9.68413 49.5678 14.0083L51.3525 12.1961C46.2154 7.38717 39.484 4.71729 32.4968 4.71729C25.5096 4.71729 18.7783 7.38717 13.6411 12.1961L15.4675 14.0083Z" fill="#5A5564"/>
<path d="M13.796 50.3067C9.54238 45.579 7.18384 39.4069 7.18384 33.0033C7.18384 26.5997 9.54238 20.4276 13.796 15.6999L12.0113 13.8877C7.27518 19.1039 4.64575 25.9388 4.64575 33.0335C4.64575 40.1282 7.27518 46.9631 12.0113 52.1793L13.796 50.3067Z" fill="#5A5564"/>
<path d="M49.5445 51.9795C44.8873 56.3037 38.805 58.7017 32.4943 58.7017C26.1836 58.7017 20.1013 56.3037 15.4442 51.9795L13.6594 53.7917C18.7966 58.6006 25.5279 61.2705 32.5151 61.2705C39.5023 61.2705 46.2337 58.6006 51.3708 53.7917L49.5445 51.9795Z" fill="#5A5564"/>
<path d="M43.7678 26.9537C43.4109 23.1722 40.1984 21.9037 36.1351 21.5171V16.3101H32.994V21.4204C32.1671 21.4204 31.3223 21.4204 30.4835 21.4204V16.3101H27.3661V21.5533H20.9946V24.9663C20.9946 24.9663 23.3148 24.924 23.2791 24.9663C23.6974 24.9196 24.1173 25.0396 24.4502 25.301C24.7832 25.5624 25.0031 25.9448 25.0638 26.3677V40.7203C25.0549 40.8694 25.0166 41.0152 24.9512 41.1491C24.8858 41.2829 24.7946 41.4021 24.6831 41.4995C24.5736 41.5988 24.4455 41.6746 24.3065 41.7224C24.1675 41.7701 24.0203 41.7888 23.874 41.7774C23.9156 41.8136 21.5895 41.7774 21.5895 41.7774L20.9946 45.589H27.3066V50.9169H30.4478V45.6676H32.9583V50.8927H36.1054V45.6253C41.412 45.2991 45.1123 43.9701 45.5764 38.9262C45.9511 34.8669 44.0712 33.0547 41.0669 32.3238C42.8933 31.4116 44.0236 29.7203 43.7678 26.9537ZM39.3655 38.298C39.3655 42.2606 32.6787 41.8076 30.5489 41.8076V34.7763C32.6787 34.7823 39.3655 34.1601 39.3655 38.298ZM37.908 28.3913C37.908 32.0157 32.3277 31.5747 30.5548 31.5747V25.1838C32.3277 25.1838 37.908 24.6159 37.908 28.3913Z" fill="#F09242"/>
<path d="M32.4941 66C26.0667 65.9988 19.784 64.0625 14.4403 60.436C9.09659 56.8094 4.9319 51.6555 2.47279 45.6258C0.0136808 39.5961 -0.629426 32.9614 0.624783 26.5606C1.87899 20.1597 4.9742 14.2803 9.51904 9.66549C14.0639 5.05072 19.8543 1.9079 26.1581 0.634395C32.4619 -0.639109 38.9961 0.0138913 44.9345 2.51083C50.8728 5.00778 55.9487 9.23653 59.5203 14.6624C63.0919 20.0883 64.9988 26.4677 65 32.994C65.0008 37.3286 64.1605 41.6209 62.5272 45.6258C60.8939 49.6306 58.4996 53.2695 55.481 56.3345C52.4624 59.3996 48.8786 61.8308 44.9345 63.4892C40.9903 65.1476 36.763 66.0008 32.4941 66ZM32.4941 2.57333C26.5725 2.5781 20.7852 4.36529 15.8637 7.709C10.9422 11.0527 7.10737 15.8028 4.84399 21.359C2.58061 26.9151 1.99024 33.0279 3.1475 38.9247C4.30477 44.8214 7.15772 50.2375 11.3458 54.4883C15.5338 58.739 20.8689 61.6337 26.6768 62.8064C32.4847 63.9792 38.5046 63.3773 43.9756 61.0769C49.4467 58.7765 54.1233 54.8808 57.4144 49.8823C60.7055 44.8837 62.4633 39.0067 62.4657 32.994C62.4673 28.9976 61.693 25.0401 60.1872 21.3478C58.6814 17.6555 56.4736 14.3008 53.69 11.4755C50.9064 8.65022 47.6016 6.40976 43.9647 4.88226C40.3277 3.35475 36.4299 2.57015 32.4941 2.57333Z" fill="#282138"/>
</g>
<defs>
<clipPath id="clip0_312_349">
<rect width="65" height="66" fill="white"/>
</clipPath>
</defs>
</svg>
