<svg width="68" height="68" viewBox="0 0 68 68" fill="none" xmlns="http://www.w3.org/2000/svg">
<path fill-rule="evenodd" clip-rule="evenodd" d="M34 68C15.3 68 0 52.7003 0 33.8307C0.17 15.1311 15.3 -0.168593 34.17 0.00140308C52.87 0.1714 68 15.3011 68 34.3407C67.83 52.8703 52.7 68 34 68Z" fill="#EDF0F4"/>
<path fill-rule="evenodd" clip-rule="evenodd" d="M12.4671 19.3256C12.4792 19.3585 14.3889 25.6259 16.7108 33.2532C19.4523 42.2588 20.9835 47.2173 21.0779 47.3956C21.3726 47.9516 22.0886 48.4826 22.7219 48.6146C22.886 48.6488 23.7838 48.6672 25.2928 48.6672C27.8497 48.6672 27.9071 48.6618 28.459 48.3684C28.7966 48.1889 29.2289 47.7812 29.4034 47.4779C29.4711 47.3601 30.5163 44.7954 31.7261 41.7785C32.9359 38.7617 33.9414 36.3104 33.9605 36.3313C33.9796 36.3522 34.9849 38.7992 36.1946 41.769C37.4043 44.7388 38.4503 47.2757 38.5191 47.4065C38.8006 47.9419 39.4409 48.4294 40.0819 48.5964C40.4826 48.7008 44.8474 48.7008 45.2481 48.5964C45.9312 48.4184 46.5568 47.9234 46.8422 47.3351C46.9669 47.0782 50.9905 34.0188 50.9905 33.8712C50.9905 33.8396 49.795 33.8276 47.4594 33.8357L43.9284 33.8479L43.2769 35.9887L42.6254 38.1296L42.5446 37.9393C42.5001 37.8346 41.6521 35.8115 40.6601 33.4435C39.5791 30.8633 38.7679 28.9914 38.6358 28.7721C38.0116 27.7361 36.9968 26.8919 35.8674 26.4689C33.3885 25.5404 30.5783 26.5497 29.2454 28.8473C29.1491 29.0132 28.1972 31.1643 27.13 33.6275C26.0628 36.0907 25.1826 38.0989 25.174 38.0903C25.1654 38.0816 23.8984 33.8481 22.3586 28.6824L19.5589 19.2902L16.0019 19.278C13.1627 19.2683 12.4495 19.2779 12.4671 19.3256ZM46.7117 24.6782C45.8107 27.6544 45.0644 30.1165 45.0534 30.1494C45.0372 30.1971 45.7524 30.2067 48.5941 30.1969L52.155 30.1848L53.8557 24.7375C54.7911 21.7415 55.5566 19.2849 55.5569 19.2784C55.5572 19.2719 53.9358 19.2666 51.9537 19.2666L48.35 19.2666L46.7117 24.6782Z" fill="black"/>
</svg>
