<svg width="68" height="68" viewBox="0 0 68 68" fill="none" xmlns="http://www.w3.org/2000/svg">
<circle cx="34" cy="34" r="34" fill="#EDF0F4"/>
<path d="M18.4023 33.8662V29.6872H31.891V25.3958H18.4023V21.2393H49.5752V25.4183H36.0865V29.7097H49.5752V33.8887H36.0865L49.6429 53.975C55.6429 49.3241 59.5 42.067 59.5 33.9112C59.5 19.8687 48.0865 8.5 34.0113 8.5C19.9135 8.5 8.5 19.8687 8.5 33.9112C8.5 42.067 12.3571 49.3241 18.3571 53.975L31.9135 33.8887C31.9135 33.8662 18.4023 33.8662 18.4023 33.8662Z" fill="#E3242D"/>
<path d="M21.6748 56.419C25.277 58.3899 29.3971 59.5 33.7873 59.5C38.1775 59.5 42.2976 58.3899 45.8998 56.419L33.7873 38.25L21.6748 56.419Z" fill="#E3242D"/>
</svg>
