<svg width="68" height="68" viewBox="0 0 68 68" fill="none" xmlns="http://www.w3.org/2000/svg">
<circle cx="34" cy="34" r="34" fill="#EDF0F4"/>
<path fill-rule="evenodd" clip-rule="evenodd" d="M24.082 17L14.1667 34.1752L24.082 51.3503H43.9163L44.2442 50.7913L53.8334 34.1826L43.9163 17H24.082ZM25.9732 19.2752H40.6626L31.0045 22.3294C31.181 22.6164 31.307 22.9315 31.3772 23.2611L42.4944 19.756L44.7137 30.5415C45.0385 30.4482 45.3745 30.3993 45.7125 30.3961L43.8491 21.4685L50.9058 33.6795H49.4859C49.5045 33.8453 49.5138 34.012 49.5139 34.1789C49.5142 34.3457 49.5048 34.5125 49.4859 34.6783H50.9058L43.6199 47.303L45.6547 37.9616C45.3221 37.9535 44.992 37.9022 44.6727 37.8088L42.2726 48.803L31.3958 45.1638C31.3376 45.4885 31.2309 45.8026 31.079 46.0955L39.9303 49.062H25.9732L26.7186 47.7856C26.4057 47.6677 26.1099 47.5085 25.8391 47.3123L25.1068 48.5757L18.1506 36.5287L25.0453 42.6146C25.2352 42.3378 25.4607 42.0872 25.7161 41.8692L17.0363 34.205L26.0385 26.2165C25.8 25.9804 25.5995 25.7089 25.444 25.4115L18.091 31.9335L25.1068 19.7746L26.1428 21.5803C26.3963 21.3566 26.6829 21.1737 26.9925 21.038L25.9732 19.2752ZM30.7364 25.9481C30.9498 25.6897 31.1186 25.3975 31.2358 25.0835L42.8169 31.775C42.6036 32.0318 42.4262 32.3164 42.2896 32.621L30.7364 25.9481ZM27.5088 27.042V41.0792C27.6614 41.0587 27.8152 41.0487 27.9691 41.0494C28.1494 41.0472 28.3295 41.0603 28.5076 41.0885V27.1129C28.4276 27.1175 28.3473 27.1175 28.2672 27.1129C28.0119 27.1133 27.7574 27.0839 27.5088 27.0253V27.042ZM30.7251 42.4039L42.2932 35.731V35.7236C42.4298 36.0276 42.6072 36.3116 42.8206 36.5677L31.2245 43.276C31.1016 42.9624 30.9334 42.6686 30.7251 42.4039Z" fill="black"/>
<path fill-rule="evenodd" clip-rule="evenodd" d="M25.3287 22.7307C25.8236 21.5418 26.9869 20.7689 28.2747 20.7735C30.0209 20.7816 31.4344 22.1951 31.4425 23.9413C31.4471 25.2291 30.6742 26.3924 29.4853 26.8873C28.2963 27.3822 26.9263 27.111 26.0157 26.2003C25.105 25.2897 24.8338 23.9197 25.3287 22.7307ZM30.2892 23.1185C29.9519 22.3036 29.1568 21.7722 28.2748 21.7722C27.6961 21.7697 27.1404 21.9984 26.7311 22.4074C26.3217 22.8164 26.0926 23.3719 26.0946 23.9505C26.0939 24.8325 26.6246 25.6281 27.4392 25.9661C28.2538 26.3042 29.1919 26.1181 29.8158 25.4947C30.4397 24.8713 30.6266 23.9334 30.2892 23.1185Z" fill="black"/>
<path fill-rule="evenodd" clip-rule="evenodd" d="M24.7419 43.2013C25.2836 41.8966 26.5583 41.0471 27.971 41.0493C29.8938 41.0534 31.4515 42.6111 31.4556 44.5339C31.4578 45.9466 30.6083 47.2213 29.3036 47.763C27.9989 48.3046 26.4964 48.0064 25.4975 47.0074C24.4985 46.0085 24.2003 44.506 24.7419 43.2013ZM27.9738 42.0388C28.9833 42.0377 29.8943 42.6445 30.2821 43.5768C30.6702 44.5099 30.4577 45.585 29.7436 46.3001C29.0295 47.0153 27.9548 47.2295 27.0211 46.8427C26.0874 46.456 25.4789 45.5446 25.4796 44.5339C25.4787 43.8716 25.7415 43.2361 26.21 42.7679C26.6779 42.3003 27.3125 42.0381 27.9738 42.0388Z" fill="black"/>
<path fill-rule="evenodd" clip-rule="evenodd" d="M42.2418 32.7239C42.8291 31.3105 44.2101 30.3903 45.7406 30.3926H45.735C47.8225 30.3967 49.5136 32.0879 49.5177 34.1753C49.5177 35.7058 48.5955 37.0855 47.1813 37.6707C45.7671 38.2558 44.1396 37.9312 43.0582 36.8482C41.9768 35.7651 41.6546 34.1372 42.2418 32.7239ZM48.5246 34.1753C48.5246 32.6377 47.2782 31.3913 45.7407 31.3913C45.0014 31.3883 44.2915 31.6807 43.7688 32.2034C43.2461 32.7262 42.9537 33.436 42.9567 34.1753C42.9567 35.7128 44.2031 36.9592 45.7407 36.9592C47.2782 36.9592 48.5246 35.7128 48.5246 34.1753Z" fill="black"/>
</svg>
