<svg width="66" height="66" viewBox="0 0 66 66" fill="none" xmlns="http://www.w3.org/2000/svg">
<g clip-path="url(#clip0_312_5)">
<path fill-rule="evenodd" clip-rule="evenodd" d="M21.675 50.832C18.4036 53.3263 15.1333 55.8192 11.8631 58.3123C4.61341 52.2684 0 43.1688 0 32.9919C0 27.0003 1.59878 21.3823 4.39413 16.5405L19.4025 36.1736L13.8345 41.9688C14.4811 43.2812 15.4538 44.9312 16.9026 46.6276C18.5911 48.6048 20.3353 49.9537 21.675 50.832Z" fill="#004466"/>
<path fill-rule="evenodd" clip-rule="evenodd" d="M50.7928 44.27C53.2872 47.5415 55.7801 50.8118 58.2733 54.0821C52.2292 61.3317 43.1297 65.9451 32.9529 65.9451C26.9611 65.9451 21.3432 64.3464 16.5015 61.551L36.1345 46.5427L41.9297 52.1107C43.2421 51.4641 44.8921 50.4914 46.5885 49.0425C48.5657 47.354 49.9145 45.6098 50.7928 44.27Z" fill="#004466"/>
<path fill-rule="evenodd" clip-rule="evenodd" d="M44.2307 15.1516C47.5022 12.6574 50.7725 10.1644 54.0428 7.67139C61.2924 13.7153 65.9058 22.8149 65.9058 32.9917C65.9058 38.9834 64.307 44.6014 61.5117 49.4432L46.5034 29.81L52.0713 24.0148C51.4247 22.7024 50.452 21.0525 49.0032 19.356C47.3147 17.3788 45.5705 16.03 44.2307 15.1516Z" fill="#004466"/>
<path fill-rule="evenodd" clip-rule="evenodd" d="M15.1129 21.7142C12.6187 18.4427 10.1256 15.1725 7.63257 11.9021C13.6766 4.65247 22.7761 0.0390625 32.9529 0.0390625C38.9447 0.0390625 44.5626 1.63784 49.4044 4.43319L29.7713 19.4416L23.9761 13.8736C22.6636 14.5202 21.0137 15.4929 19.3172 16.9417C17.34 18.6303 15.9913 20.3745 15.1129 21.7142Z" fill="#004466"/>
</g>
<defs>
<clipPath id="clip0_312_5">
<rect width="66" height="66" fill="white"/>
</clipPath>
</defs>
</svg>
